<?xml version="1.0" encoding="UTF-8"?>
<svg width="48px" height="48px" viewBox="0 0 48 48" version="1.1" xmlns="http://www.w3.org/2000/svg" xmlns:xlink="http://www.w3.org/1999/xlink">
    <title>箭头</title>
    <g id="页面-1" stroke="none" stroke-width="1" fill="" fill-rule="evenodd">
        <g id="OpenCFD" transform="translate(-1842.000000, -2476.000000)" fill="#0055D5">
            <g id="2" transform="translate(-18.000000, 2000.000000)">
                <g id="编组-29" transform="translate(0.000000, 120.000000)">
                    <g id="切换" transform="translate(0.000000, 356.000000)">
                        <g id="箭头" transform="translate(1860.000000, 0.000000)">
                            <rect id="矩形" opacity="0" x="0" y="0" width="48" height="48"></rect>
                            <path d="M15.6927745,44.3076923 C15.0545511,44.3076923 14.4135924,44.1068692 13.8916675,43.6965865 C12.728784,42.7842692 12.5935921,41.1815848 13.5914999,40.1168277 L28.6601568,23.9991607 L13.5915,7.88144726 C12.5935921,6.81669019 12.7288347,5.21395937 13.8916676,4.30168853 C15.0518159,3.3930859 16.801561,3.51334759 17.794049,4.57685102 L34.4096377,22.3468394 C35.2993515,23.2975568 35.2993515,24.7007182 34.4096377,25.6514356 L17.794049,43.421424 C17.2477602,44.0065273 16.4716096,44.3076923 15.6927745,44.3076923 Z" id="路径"></path>
                        </g>
                    </g>
                </g>
            </g>
        </g>
    </g>
</svg>
