<?xml version="1.0" encoding="UTF-8"?>
<svg width="32px" height="32px" viewBox="0 0 32 32" version="1.1" xmlns="http://www.w3.org/2000/svg" xmlns:xlink="http://www.w3.org/1999/xlink">
    <title>编组 13</title>
    <g id="页面-1" stroke="none" stroke-width="1" fill="none" fill-rule="evenodd">
        <g id="OpenCFD获奖情况" transform="translate(-359.000000, -317.000000)">
            <g id="3" transform="translate(359.000000, 100.000000)">
                <g id="时间轴" transform="translate(0.000000, 196.000000)">
                    <g id="编组-13" transform="translate(0.000000, 21.000000)">
                        <circle id="椭圆形" stroke="#C0C0C0" stroke-width="3" fill="#FFFFFF" cx="16" cy="16" r="14.5"></circle>
                        <path d="M14.2266299,19.7400795 C12.236138,17.6812464 10.2457284,15.622427 8.25726552,13.5636487 C7.43686898,12.7159157 8.76899543,11.4521168 9.59136612,12.3037707 C11.3630289,14.1359878 13.132745,15.9682323 14.9044078,17.7994212 C16.7366112,15.9584301 18.5707887,14.117439 20.4030058,12.2754471 C21.2370843,11.4374889 22.5692382,12.7012604 21.7361605,13.5363122 C19.6783144,15.6049201 17.6195225,17.6724724 15.5607168,19.7400932 C15.2189009,20.0819228 14.5645112,20.0907105 14.2266436,19.7400932 L14.2266299,19.7400795 Z" id="路径" fill="#C0C0C0" fill-rule="nonzero" transform="translate(15.000000, 15.999886) rotate(-270.000000) translate(-15.000000, -15.999886) "></path>
                    </g>
                </g>
            </g>
        </g>
    </g>
</svg>