<?xml version="1.0" encoding="UTF-8"?>
<svg width="1069.5px" height="70.95px" viewBox="0 0 1069.5 70.95" version="1.1" xmlns="http://www.w3.org/2000/svg" xmlns:xlink="http://www.w3.org/1999/xlink">
    <title>高精度计算流体力学软件</title>
    <g id="页面-1" stroke="none" stroke-width="1" fill="none" fill-rule="evenodd">
        <g id="OpenCFD" transform="translate(-425.425000, -327.700000)" fill="#FFFFFF" fill-rule="nonzero">
            <g id="高精度计算流体力学软件" transform="translate(425.425000, 327.700000)">
                <path d="M15.6,68.85 L20.325,33.675 L6.825,33.675 C6.325,33.675 5.875,33.875 5.475,34.275 C4.975,34.675 4.675,35.15 4.575,35.7 L0,70.8 L13.65,70.8 C14.1,70.8 14.525,70.625 14.925,70.275 C15.325,69.875 15.55,69.4 15.6,68.85 Z M94.725,2.55 L59.625,2.55 L59.7,1.8 C59.75,1.3 59.625,0.875 59.325,0.525 C59.075,0.225 58.7,0.075 58.2,0.075 L44.7,0.075 L44.4,2.55 L10.875,2.55 C10.275,2.55 9.75,2.75 9.3,3.15 C8.8,3.6 8.5,4.125 8.4,4.725 L7.875,8.925 L92.1,8.925 C92.65,8.925 93.125,8.75 93.525,8.4 C93.875,8.05 94.075,7.6 94.125,7.05 L94.725,2.55 Z M27.375,16.875 L72.975,16.875 L72.15,22.875 C72.05,23.325 71.8,23.725 71.4,24.075 C70.9,24.425 70.4,24.6 69.9,24.6 L26.55,24.6 C26,24.6 25.6,24.4 25.35,24 C25.1,23.55 25.025,23.175 25.125,22.875 L26.775,11.475 L11.625,11.475 L9.9,23.175 C9.65,25.375 10.2,27.25 11.55,28.8 C12.9,30.35 14.65,31.125 16.8,31.125 L78.6,31.125 C80.85,31.125 82.8,30.35 84.45,28.8 C86.2,27.25 87.275,25.375 87.675,23.175 L89.025,11.475 L28.125,11.475 L27.375,16.875 Z M65.775,61.725 C67.525,60.175 68.55,58.25 68.85,55.95 L70.425,43.575 L36.675,43.575 L36.075,48.45 L57.525,48.45 L56.55,55.5 C56.5,56.1 56.3,56.625 55.95,57.075 C55.55,57.475 55.1,57.675 54.6,57.675 L35.325,57.675 C34.675,57.675 34.2,57.45 33.9,57 C33.6,56.55 33.5,56.05 33.6,55.5 L35.25,43.575 L22.65,43.575 L21.15,55.95 C20.8,58.25 21.275,60.175 22.575,61.725 C23.825,63.225 25.525,63.975 27.675,63.975 L59.775,63.975 C61.975,63.975 63.975,63.225 65.775,61.725 Z M90.15,33.675 L21.975,33.675 L21.075,40.575 L74.7,40.575 L71.85,61.875 C71.75,62.525 71.55,63.05 71.25,63.45 C70.9,63.85 70.55,64.125 70.2,64.275 C69.8,64.475 69.45,64.6 69.15,64.65 C68.85,64.7 68.675,64.725 68.625,64.725 L64.575,64.725 C63.425,64.725 62.4,65.1 61.5,65.85 C60.7,66.6 60.225,67.575 60.075,68.775 L59.85,70.8 L77.475,70.8 C79.725,70.8 81.7,69.925 83.4,68.175 C85.15,66.525 86.15,64.55 86.4,62.25 L90.15,33.675 Z" id="形状"></path>
                <path d="M115.275,19.35 L109.05,19.35 C108.4,19.35 107.85,19.1 107.4,18.6 C106.95,18.1 106.75,17.5 106.8,16.8 L107.55,1.05 L107.55,1.05 C109.9,1.05 111.875,1.95 113.475,3.75 C115.075,5.55 115.85,7.75 115.8,10.35 L115.275,19.35 Z M158.4,37.35 L159.15,31.8 L186.75,31.8 L182.775,61.65 C182.625,62.95 182.25,64.15 181.65,65.25 C181.1,66.35 180.375,67.3 179.475,68.1 C178.625,68.95 177.65,69.6 176.55,70.05 C175.5,70.55 174.4,70.8 173.25,70.8 L161.1,70.8 L161.25,69.6 C161.45,68.3 161.9875,67.25 162.8625,66.45 C163.7375,65.65 164.75,65.25 165.9,65.25 L165.9,65.25 C166.5,65.25 167.05,65 167.55,64.5 C168,64.1 168.275,63.575 168.375,62.925 L168.975,58.575 L153.9,58.575 L152.625,68.1 C152.475,68.9 152.1375,69.55 151.6125,70.05 C151.0875,70.55 150.45,70.8 149.7,70.8 L138,70.8 L143.175,31.8 L157.425,31.8 L156.675,37.35 L156.525,38.325 L156.075,41.625 L171.15,41.625 L171.75,37.35 L158.4,37.35 Z M143.775,1.05 L140.325,17.475 C140.175,18.025 139.9,18.475 139.5,18.825 C139.1,19.175 138.625,19.35 138.075,19.35 L131.175,19.35 L133.875,6.675 C134.275,5.025 135.0875,3.675 136.3125,2.625 C137.5375,1.575 138.95,1.05 140.55,1.05 L143.775,1.05 Z M173.325,23.175 L189.15,23.175 L188.625,27 C188.525,27.7 188.2375,28.275 187.7625,28.725 C187.2875,29.175 186.725,29.4 186.075,29.4 L142.2,29.4 L142.725,25.575 C142.825,24.875 143.1125,24.3 143.5875,23.85 C144.0625,23.4 144.625,23.175 145.275,23.175 L158.775,23.175 L159.3,19.425 L144.675,19.425 L145.275,15.375 C145.325,14.725 145.575,14.2 146.025,13.8 C146.475,13.4 147,13.2 147.6,13.2 L160.125,13.2 L160.65,8.925 L145.2,8.925 L145.575,6.6 C145.725,5.45 146.1875,4.5125 146.9625,3.7875 C147.7375,3.0625 148.65,2.7 149.7,2.7 L161.475,2.7 L161.625,1.95 C161.675,1.4 161.875,0.9625 162.225,0.6375 C162.575,0.3125 163,0.15 163.5,0.15 L176.4,0.15 L176.025,2.7 L191.4,2.7 L191.1,5.1 C190.95,6.2 190.475,7.1125 189.675,7.8375 C188.875,8.5625 187.95,8.925 186.9,8.925 L175.275,8.925 L174.675,13.2 L189.225,13.2 L188.7,17.25 C188.6,17.85 188.3375,18.3625 187.9125,18.7875 C187.4875,19.2125 186.975,19.425 186.375,19.425 L173.85,19.425 L173.325,23.175 Z M132.225,0.225 L129.45,21.375 L141.825,21.375 L141.3,24.975 C141.2,25.625 140.9125,26.175 140.4375,26.625 C139.9625,27.075 139.4,27.3 138.75,27.3 L138.75,27.3 L135.075,70.5 L135.075,70.5 C132.775,70.5 130.8625,69.6125 129.3375,67.8375 C127.8125,66.0625 127.125,63.925 127.275,61.425 L130.2,27.3 L128.7,27.3 L123.225,68.85 C123.125,69.4 122.875,69.8625 122.475,70.2375 C122.075,70.6125 121.6,70.8 121.05,70.8 L110.1,70.8 L115.8,27.3 L114.3,27.3 L108.3,61.425 C107.75,64.125 106.525,66.3125 104.625,67.9875 C102.725,69.6625 100.525,70.5 98.025,70.5 L98.025,70.5 L105.6,27.3 L103.35,27.3 L103.875,23.7 C103.975,23 104.2625,22.4375 104.7375,22.0125 C105.2125,21.5875 105.775,21.375 106.425,21.375 L116.625,21.375 L118.725,4.95 C118.925,3.6 119.5125,2.475 120.4875,1.575 C121.4625,0.675 122.575,0.225 123.825,0.225 L132.225,0.225 Z M170.4,47.625 L155.325,47.625 L154.65,52.65 L169.725,52.65 L170.4,47.625 Z" id="形状"></path>
                <path d="M219.9,3.075 L211.65,61.95 C211.3,64.2 210.225,66.125 208.425,67.725 C206.575,69.375 204.5,70.2 202.2,70.2 L194.775,70.2 L195.825,62.4 L196.725,56.175 L204.15,3.075 L219.9,3.075 Z M259.2,3.075 L290.025,3.075 L289.8,4.875 C289.6,6.125 289.0375,7.15 288.1125,7.95 C287.1875,8.75 286.1,9.15 284.85,9.15 L222.075,9.15 L222.9,3.075 L244.125,3.075 L244.5,0.075 L257.025,0.075 C257.675,0.075 258.225,0.3375 258.675,0.8625 C259.125,1.3875 259.325,2 259.275,2.7 L259.2,3.075 Z M282.9,10.95 L282.225,15.675 L288.3,15.675 L287.925,18.225 C287.775,19.075 287.3875,19.775 286.7625,20.325 C286.1375,20.875 285.4,21.15 284.55,21.15 L281.475,21.15 L280.65,26.775 C280.45,28.525 279.65,30 278.25,31.2 C276.9,32.4 275.35,33 273.6,33 L229.575,33 C227.825,33 226.475,32.4 225.525,31.2 C224.475,30 224.1,28.525 224.4,26.775 L225.225,21.15 L219.225,21.15 L219.675,17.925 C219.775,17.275 220.0625,16.7375 220.5375,16.3125 C221.0125,15.8875 221.55,15.675 222.15,15.675 L225.975,15.675 L226.35,13.05 C226.45,12.45 226.725,11.95 227.175,11.55 C227.625,11.15 228.15,10.95 228.75,10.95 L241.8,10.95 L241.125,15.675 L267.15,15.675 L267.45,13.05 C267.55,12.45 267.825,11.95 268.275,11.55 C268.725,11.15 269.25,10.95 269.85,10.95 L282.9,10.95 Z M265.725,25.425 L266.4,21.15 L240.375,21.15 L239.7,25.425 C239.7,25.675 239.7125,25.8875 239.7375,26.0625 C239.7625,26.2375 239.85,26.4 240,26.55 C240.15,26.75 240.3,26.875 240.45,26.925 C240.6,26.975 240.8,27 241.05,27 L263.85,27 C264.05,27 264.25,26.975 264.45,26.925 C264.65,26.875 264.85,26.75 265.05,26.55 C265.3,26.4 265.4625,26.2375 265.5375,26.0625 C265.6125,25.8875 265.675,25.675 265.725,25.425 Z M258.9,56.925 L282.525,70.8 L269.55,70.8 C265.45,70.8 261.55,69.75 257.85,67.65 L249.15,62.625 L238.125,68.475 C235.125,70.025 231.95,70.8 228.6,70.8 L211.05,70.8 L239.025,56.4 L217.2,43.5 L236.7,43.5 L248.85,50.55 L266.625,40.95 L221.1,40.95 C218.7,40.95 217.65,39.8 217.95,37.5 L218.25,35.325 L285.15,35.325 L284.55,39.975 C284.3,41.725 282.9,43.35 280.35,44.85 L258.9,56.925 Z" id="形状"></path>
                <path d="M310.35,62.85 C310.1,62.65 310,62.375 310.05,62.025 L316.95,16.5 L293.325,16.5 L292.575,21.675 C292.425,22.625 292.65,23.425 293.25,24.075 C293.85,24.725 294.65,25.05 295.65,25.05 L299.775,25.05 L293.7,64.95 C293.4,66.7 293.85,68.15 295.05,69.3 C296.2,70.4 297.775,70.9 299.775,70.8 L315.975,69.975 L316.725,65.325 C316.775,64.625 316.575,64.05 316.125,63.6 C315.725,63.15 315.125,62.925 314.325,62.925 L311.4,63.075 C311,63.175 310.65,63.1 310.35,62.85 Z M312.15,0.075 L303.075,0.075 L303.075,12.9 L317.7,12.9 L317.7,5.1 C317.7,3.65 317.175,2.45 316.125,1.5 C315.075,0.55 313.75,0.075 312.15,0.075 Z M344.175,31.725 L338.25,70.725 L357.075,70.725 L363,31.725 L382.425,31.725 C383.425,31.725 384.325,31.425 385.125,30.825 C385.875,30.225 386.325,29.45 386.475,28.5 L387.225,23.625 L364.275,23.625 L367.8,0.075 L353.025,0.075 C351.875,0.075 350.875,0.425 350.025,1.125 C349.175,1.825 348.65,2.725 348.45,3.825 L345.375,23.625 L325.125,23.625 C324.175,23.625 323.35,23.925 322.65,24.525 C321.95,25.075 321.525,25.8 321.375,26.7 L320.625,31.725 L344.175,31.725 Z" id="形状"></path>
                <path d="M450.975,13.2 L440.55,13.2 L446.4,1.575 C447.05,0.525 447.85,5.68434189e-14 448.8,5.68434189e-14 L461.625,5.68434189e-14 L460.725,1.8 L483.975,1.8 L483.225,7.125 L478.2,7.275 L479.325,13.2 L469.5,13.2 C467.65,13.2 466.45,12.15 465.9,10.05 L465.375,7.125 L457.875,7.125 L456.975,9.15 C455.425,11.85 453.425,13.2 450.975,13.2 Z M466.05,20.175 L415.05,20.175 L415.8,14.775 L481.725,14.775 L478.5,38.55 C478.2,40.9 477.175,42.85 475.425,44.4 C473.675,46 471.675,46.8 469.425,46.8 L402.3,46.8 C400.1,46.8 398.325,46 396.975,44.4 C395.675,42.85 395.175,40.9 395.475,38.55 L398.7,14.775 L413.7,14.775 L412.95,20.175 L412.8,21.3 L412.5,23.7 L465.525,23.7 L466.05,20.175 Z M463.425,39.6 L463.725,37.425 L410.625,37.425 L410.325,39.6 C410.275,40.1 410.4,40.525 410.7,40.875 C411,41.225 411.375,41.4 411.825,41.4 L461.4,41.4 C461.85,41.4 462.275,41.225 462.675,40.875 C463.075,40.525 463.325,40.1 463.425,39.6 Z M414.9,9.375 C413.45,11.925 411.575,13.2 409.275,13.2 L398.625,13.2 L404.625,1.35 C405.175,0.45 405.85,5.68434189e-14 406.65,5.68434189e-14 L419.7,5.68434189e-14 L418.8,1.8 L442.05,1.8 L441.375,7.125 L435.3,7.275 L436.35,13.2 L426.675,13.2 C424.425,13.2 422.95,11.925 422.25,9.375 L421.875,7.125 L415.95,7.125 L414.9,9.375 Z M471.975,51.45 L478.65,51.45 L478.275,54.375 C478.125,55.275 477.7375,56.0125 477.1125,56.5875 C476.4875,57.1625 475.75,57.45 474.9,57.45 L471.225,57.45 L469.8,67.95 C469.65,68.75 469.275,69.425 468.675,69.975 C468.075,70.525 467.375,70.8 466.575,70.8 L454.425,70.8 L456.225,57.45 L412.2,57.45 L410.925,60.15 C406.975,67.25 401.525,70.8 394.575,70.8 L390.45,70.8 L396.75,57.45 L391.05,57.45 L391.425,54.525 C391.575,53.625 391.9625,52.8875 392.5875,52.3125 C393.2125,51.7375 393.95,51.45 394.8,51.45 L399.3,51.45 L400.35,49.2 C400.75,48.45 401.3,48.075 402,48.075 L416.325,48.075 L414.75,51.45 L457.05,51.45 L457.35,49.2 C457.4,48.9 457.5375,48.6375 457.7625,48.4125 C457.9875,48.1875 458.25,48.075 458.55,48.075 L472.425,48.075 L471.975,51.45 Z M464.925,28.425 L411.825,28.425 L411.225,32.625 L464.325,32.625 L464.925,28.425 Z" id="形状"></path>
                <path d="M532.5,25.05 L539.475,11.475 L577.65,11.475 C578.55,11.475 579.3625,11.15 580.0875,10.5 C580.8125,9.85 581.25,9.025 581.4,8.025 L581.925,4.2 L556.5,4.2 L556.65,3.6 C556.75,2.6 556.5375,1.7875 556.0125,1.1625 C555.4875,0.5375 554.8,0.225 553.95,0.225 L541.875,0.225 L541.35,4.2 L519.6,4.2 C518.85,4.2 518.175,4.4875 517.575,5.0625 C516.975,5.6375 516.6,6.325 516.45,7.125 L515.85,11.475 L524.175,11.475 L516.9,25.35 C516.25,26.65 515.85,27.9 515.7,29.1 C515.55,30.3 515.65,31.35 516,32.25 C516.35,33.2 516.925,33.95 517.725,34.5 C518.475,35.05 519.475,35.25 520.725,35.1 L562.35,30.9 L562.575,33.525 C562.625,34.275 562.8875,34.875 563.3625,35.325 C563.8375,35.775 564.4,36 565.05,36 L576.9,36 L575.925,21.225 C575.775,19.525 575.1625,18.15 574.0875,17.1 C573.0125,16.05 571.7,15.525 570.15,15.525 L561.3,15.525 L561.825,23.7 L532.65,26.625 C532,26.675 531.95,26.15 532.5,25.05 Z M507.9,70.725 L516.975,70.725 C518.575,70.725 520.0375,70.1875 521.3625,69.1125 C522.6875,68.0375 523.575,66.675 524.025,65.025 L530.625,38.85 L519.15,38.85 C518.2,38.85 517.35,39.15 516.6,39.75 C515.85,40.35 515.35,41.15 515.1,42.15 L507.9,70.725 Z M551.625,38.85 L541.05,38.85 C539.9,38.85 538.875,39.2625 537.975,40.0875 C537.075,40.9125 536.525,41.925 536.325,43.125 L532.5,70.95 L547.275,70.95 L551.625,38.85 Z M561.675,38.85 C560.925,38.85 560.25,39.1125 559.65,39.6375 C559.05,40.1625 558.7,40.825 558.6,41.625 L555.45,64.5 C555.2,66.3 555.6,67.825 556.65,69.075 C557.7,70.325 559.1,70.95 560.85,70.95 L573,70.95 L573.525,66.9 C573.575,66.4 573.475,66 573.225,65.7 C572.975,65.4 572.625,65.25 572.175,65.25 L571.875,65.25 C571.375,65.25 570.975,65.05 570.675,64.65 C570.375,64.3 570.25,63.875 570.3,63.375 L573.675,38.85 L561.675,38.85 Z M487.575,70.5 L495.15,70.5 C496.9,70.5 498.475,69.85 499.875,68.55 C501.275,67.25 502.2,65.6 502.65,63.6 L510,27.3 L495.9,27.3 L487.575,70.5 Z M510.375,23.625 L511.275,16.65 L494.775,13.35 L494.4,15.975 C494.25,17.275 494.475,18.375 495.075,19.275 C495.625,20.225 496.475,20.825 497.625,21.075 L510.375,23.625 Z M511.95,11.175 L512.775,4.2 L496.275,0.9 L495.975,3.525 C495.825,4.775 496.05,5.875 496.65,6.825 C497.25,7.775 498.075,8.375 499.125,8.625 L511.95,11.175 Z" id="形状"></path>
                <path d="M605.4,21.75 L614.625,0.3 L603.6,0.3 C600.4,0.3 597.8,1.775 595.8,4.725 L585.075,30.75 L592.425,30.75 L586.725,70.725 L602.4,70.725 L609.375,21.75 L605.4,21.75 Z M620.025,16.65 L607.2,70.8 C611.5,70.8 615.3,69.5 618.6,66.9 C621.95,64.3 624.15,60.875 625.2,56.625 L634.725,16.65 L620.025,16.65 Z M655.8,6.075 L656.7,0.075 L643.875,0.075 C643.075,0.075 642.375,0.325 641.775,0.825 C641.125,1.375 640.725,2.075 640.575,2.925 L640.125,6.075 L620.625,6.075 C619.425,6.075 618.375,6.45 617.475,7.2 C616.525,8 615.975,9 615.825,10.2 L615.375,13.35 L639.15,13.35 L633.225,55.35 L629.925,55.35 C629.275,55.35 628.7,55.55 628.2,55.95 C627.75,56.35 627.475,56.875 627.375,57.525 L626.55,62.925 L632.175,62.925 L630.975,70.8 L646.725,70.8 L647.85,62.925 L651.15,62.925 C651.8,62.925 652.35,62.725 652.8,62.325 C653.25,61.975 653.525,61.5 653.625,60.9 L654.375,55.35 L648.9,55.35 L654.825,13.35 L673.725,13.35 C675.175,13.35 676.425,12.9 677.475,12 C678.575,11.05 679.25,9.85 679.5,8.4 L679.8,6.075 L655.8,6.075 Z M666.525,70.8 L670.5,70.8 L672.975,16.65 L658.35,16.65 L656.4,60.3 C656.35,63.25 657.3,65.7375 659.25,67.7625 C661.2,69.7875 663.625,70.8 666.525,70.8 Z" id="形状"></path>
                <path d="M702.075,19.2 L682.575,70.8 L688.2,70.8 C696.2,70.8 702.175,66.675 706.125,58.425 L721.05,19.2 L757.425,19.2 L751.65,59.775 C751.55,60.575 751.175,61.225 750.525,61.725 C749.925,62.225 749.25,62.475 748.5,62.475 L738.6,62.475 C737.15,62.475 735.9,62.95 734.85,63.9 C733.8,64.8 733.15,65.975 732.9,67.425 L732.45,70.8 L760.35,70.8 C762.7,70.8 764.8,70 766.65,68.4 C768.45,66.8 769.525,64.85 769.875,62.55 L777.3,10.125 L724.575,10.125 L728.55,0.075 L709.125,0.075 L705.225,10.125 L689.775,10.125 L689.475,12.075 C689.275,14.025 689.8,15.7 691.05,17.1 C692.25,18.5 693.8,19.2 695.7,19.2 L702.075,19.2 Z" id="路径"></path>
                <path d="M789.3,23.55 C789.9,24.9 790.7,26 791.7,26.85 C792.75,27.7 794.25,28.125 796.2,28.125 L838.125,28.125 L819,38.325 L818.325,41.475 L785.175,41.475 C784.075,41.475 783.125,41.75 782.325,42.3 C781.475,42.85 780.95,43.525 780.75,44.325 L780.075,48.45 L817.05,48.45 L814.2,62.325 C814.1,62.925 813.75,63.45 813.15,63.9 C812.55,64.45 811.9,64.725 811.2,64.725 L801.225,64.725 C800.075,64.725 799.075,64.95 798.225,65.4 C797.325,65.85 796.8,66.525 796.65,67.425 L796.05,70.8 L823.125,70.8 C825.325,70.8 827.325,70.175 829.125,68.925 C830.875,67.775 831.9,66.425 832.2,64.875 L835.5,48.45 L864.3,48.45 C865.45,48.45 866.45,48.075 867.3,47.325 C868.15,46.625 868.7,45.825 868.95,44.925 L869.625,41.475 L836.775,41.475 L862.2,29.175 C863.2,28.625 863.9,27.825 864.3,26.775 L866.175,21.225 L788.175,21.225 L789.3,23.55 Z M870.45,0.15 L857.625,0.15 C855.225,0.1 853.65,0.225 852.9,0.525 C851.25,0.925 850.05,1.975 849.3,3.675 L847.95,6.675 L838.5,6.675 L839.55,0.075 L823.05,0.075 C822.05,0.075 821.15,0.375 820.35,0.975 C819.6,1.575 819.125,2.35 818.925,3.3 L818.4,6.675 L808.5,6.675 L807.675,0.075 L793.65,0.075 C792.45,0.075 791.45,0.45 790.65,1.2 C789.85,2 789.5,2.925 789.6,3.975 L790.05,6.675 L786.75,6.675 C785.8,6.675 784.975,6.975 784.275,7.575 C783.575,8.125 783.15,8.85 783,9.75 L781.875,18.6 L800.475,18.6 L801.15,13.05 L852.225,13.05 L849.975,18.6 L867,18.6 C868.7,18.6 870.15,18.15 871.35,17.25 C872.6,16.3 873.375,15.075 873.675,13.575 L874.8,6.675 L867.525,6.675 L870.45,0.15 Z" id="形状"></path>
                <path d="M891.9,70.725 L903.975,70.725 C904.625,70.725 905.1875,70.5 905.6625,70.05 C906.1375,69.6 906.425,69.05 906.525,68.4 L908.4,54.3 L911.475,54.3 C912.225,54.3 912.8875,54.05 913.4625,53.55 C914.0375,53.05 914.375,52.4 914.475,51.6 L914.925,48.375 L909.225,48.375 L911.025,34.8 L915.975,34.8 L916.8,28.875 L911.85,28.875 L913.875,14.1 L904.5,14.1 C903.2,14.1 902.0625,14.5375 901.0875,15.4125 C900.1125,16.2875 899.525,17.4 899.325,18.75 L897.975,28.875 L894.825,28.875 C893.775,28.875 893.475,28.2 893.925,26.85 L899.175,9.6 L917.775,9.6 C918.475,9.6 919.0875,9.3625 919.6125,8.8875 C920.1375,8.4125 920.45,7.825 920.55,7.125 L921.075,3.675 L900.9,3.675 L902.025,0.075 L892.95,0.075 C891.7,0.075 890.8,0.75 890.25,2.1 L889.8,3.675 L888.075,3.675 C887.375,3.675 886.7625,3.9 886.2375,4.35 C885.7125,4.8 885.4,5.4 885.3,6.15 L884.85,9.6 L887.925,9.6 L882.525,27 C881.825,29.05 881.775,30.85 882.375,32.4 C882.975,34 884.3,34.8 886.35,34.8 L896.7,34.8 L894.9,48.375 L882,48.375 C881.25,48.375 880.5875,48.625 880.0125,49.125 C879.4375,49.625 879.1,50.275 879,51.075 L878.55,54.3 L894.075,54.3 L891.9,70.725 Z M945,60.375 C945.6,63.475 947,65.9875 949.2,67.9125 C951.4,69.8375 953.975,70.8 956.925,70.8 L961.95,70.8 L955.95,35.025 C955.85,34.375 955.5625,33.85 955.0875,33.45 C954.6125,33.05 954.075,32.85 953.475,32.85 L944.175,32.85 L950.1,19.35 L937.125,19.35 C935.475,19.35 934.2,20.2 933.3,21.9 L912.3,70.5 L918.75,70.5 C924.3,70.5 928.575,67.625 931.575,61.875 L941.325,39.375 L945,60.375 Z M953.475,16.725 L966,16.725 C967.3,16.725 968.25,16 968.85,14.55 L971.4,5.85 C971.6,5.05 971.475,4.325 971.025,3.675 C970.575,3.025 969.95,2.7 969.15,2.7 L939.675,2.7 L940.575,0.15 L927.45,0.15 C926.4,0.15 925.65,0.725 925.2,1.875 L920.625,16.725 L930.45,16.725 C933.35,16.725 935.5,15.1 936.9,11.85 L937.875,8.7 L956.025,8.7 L953.475,16.725 Z" id="形状"></path>
                <path d="M975.9,70.8 L989.1,70.8 C989.9,70.8 990.5875,70.55 991.1625,70.05 C991.7375,69.55 992.075,68.925 992.175,68.175 L998.85,21.975 L993.75,21.975 L1004.1,0.075 L990.45,0.075 C988.8,0.075 987.5,0.9 986.55,2.55 L975.6,24.975 L982.425,24.975 L975.9,70.8 Z M1022.175,70.8 L1034.925,70.8 C1035.825,70.8 1036.625,70.5 1037.325,69.9 C1038.025,69.3 1038.45,68.55 1038.6,67.65 L1041.825,45 L1059.525,45 C1061.275,45 1062.8,44.4375 1064.1,43.3125 C1065.4,42.1875 1066.2,40.775 1066.5,39.075 L1066.5,39.075 L1042.725,39.075 L1046.4,13.2 L1062.45,13.2 C1064.25,13.2 1065.8,12.6375 1067.1,11.5125 C1068.4,10.3875 1069.2,8.975 1069.5,7.275 L1069.5,7.275 L1047.3,7.275 L1048.275,0.075 L1035.975,0.075 C1034.925,0.075 1034.0125,0.4125 1033.2375,1.0875 C1032.4625,1.7625 1032,2.6 1031.85,3.6 L1031.325,7.275 L1025.4,7.275 L1027.65,2.1 L1013.7,2.1 C1012.55,2.1 1011.675,2.675 1011.075,3.825 L1002.225,24.225 L1011.075,24.225 C1015.375,24.225 1018.675,22.075 1020.975,17.775 L1022.85,13.2 L1030.5,13.2 L1026.75,39.075 L1006.95,39.075 C1005.2,39.075 1003.6625,39.625 1002.3375,40.725 C1001.0125,41.825 1000.2,43.25 999.9,45 L999.9,45 L1025.925,45 L1022.175,70.8 Z" id="形状"></path>
            </g>
        </g>
    </g>
</svg>