<?xml version="1.0" encoding="UTF-8"?>
<svg width="1011.57px" height="66.08px" viewBox="0 0 1011.57 66.08" version="1.1" xmlns="http://www.w3.org/2000/svg" xmlns:xlink="http://www.w3.org/1999/xlink">
    <title>连续-非连续数值分析系统</title>
    <g id="页面-1" stroke="none" stroke-width="1" fill="none" fill-rule="evenodd">
        <g id="CDEM" transform="translate(-446.870000, -290.000000)" fill="#FFFFFF" fill-rule="nonzero">
            <g id="连续-非连续数值分析系统" transform="translate(446.870000, 290.000000)">
                <path d="M43.47,57.82 L43.47,57.82 L55.93,57.82 C56.49,57.82 56.98,57.6333333 57.4,57.26 C57.82,56.8866667 58.0766667,56.42 58.17,55.86 L59.22,48.02 L76.93,48.02 C77.63,48.02 78.2366667,47.7983333 78.75,47.355 C79.2633333,46.9116667 79.5666667,46.34 79.66,45.64 L80.15,42.56 L59.99,42.56 L61.25,33.81 L78.82,33.81 C79.38,33.81 79.87,33.6233333 80.29,33.25 C80.71,32.8766667 80.9666667,32.41 81.06,31.85 L81.55,28.28 L62.02,28.28 L64.12,13.16 L51.38,13.16 C50.9133333,13.16 50.505,13.3116667 50.155,13.615 C49.805,13.9183333 49.6066667,14.3033333 49.56,14.77 L47.67,28.28 L38.57,28.28 C38.01,28.28 37.59,28.1166667 37.31,27.79 C37.03,27.4633333 37.0066667,27.02 37.24,26.46 L45.78,9.45 L82.32,9.45 C83.02,9.45 83.615,9.22833333 84.105,8.785 C84.595,8.34166667 84.91,7.77 85.05,7.07 L85.47,3.92 L48.51,3.92 L50.61,0 L36.47,0 L34.37,3.92 L27.79,3.92 C27.0433333,3.92 26.39,4.165 25.83,4.655 C25.27,5.145 24.92,5.78666667 24.78,6.58 L24.36,9.45 L31.57,9.45 L22.75,26.53 C22.2833333,27.4166667 22.05,28.3033333 22.05,29.19 C22.05,30.0766667 22.2133333,30.8466667 22.54,31.5 C22.8666667,32.1533333 23.3566667,32.7133333 24.01,33.18 C24.71,33.6 25.5266667,33.81 26.46,33.81 L46.9,33.81 L45.64,42.56 L23.31,42.56 C22.5166667,42.56 21.8283333,42.805 21.245,43.295 C20.6616667,43.785 20.3233333,44.4266667 20.23,45.22 L19.81,48.02 L44.87,48.02 L43.47,57.82 Z M6.65,20.37 L6.65,20.37 L1.13686838e-13,65.94 L8.54,65.94 C8.77333333,65.94 8.98333333,65.94 9.17,65.94 C10.1033333,65.9866667 10.99,65.9166667 11.83,65.73 C12.6233333,65.5433333 13.2766667,65.0766667 13.79,64.33 L14,63.91 L72.52,65.8 C74.0133333,65.8 75.32,65.3333333 76.44,64.4 C77.56,63.42 78.2366667,62.1833333 78.47,60.69 L19.32,58.66 C18.9466667,58.66 18.5033333,58.5433333 17.99,58.31 C17.4766667,58.1233333 17.0333333,57.8433333 16.66,57.47 C16.2866667,57.0966667 15.9833333,56.7 15.75,56.28 C15.5166667,55.7666667 15.4466667,55.2533333 15.54,54.74 L20.93,15.19 L5.18,15.19 C4.48,15.19 3.85,15.4466667 3.29,15.96 C2.73,16.4266667 2.40333333,17.01 2.31,17.71 L1.89,20.37 L6.65,20.37 Z M7.91,1.12 L7.91,1.12 C7.11666667,3.26666667 7.16333333,5.32 8.05,7.28 C8.93666667,9.19333333 10.43,10.6166667 12.53,11.55 L18.27,13.86 L21.14,6.3 L7.91,1.12 Z" id="形状"></path>
                <path d="M160.44,0 L160.44,0 L146.51,0 L146.23,1.61 L131.95,1.61 C131.063333,1.61 130.305,1.90166667 129.675,2.485 C129.045,3.06833333 128.66,3.80333333 128.52,4.69 L128.17,7.14 L145.53,7.14 L144.76,13.02 L129.57,13.02 C128.87,13.02 128.263333,13.2416667 127.75,13.685 C127.236667,14.1283333 126.933333,14.7233333 126.84,15.47 L126.49,18.2 L162.05,18.2 C162.656667,18.2 163.146667,18.3866667 163.52,18.76 C163.846667,19.0866667 163.963333,19.5533333 163.87,20.16 L162.4,30.87 L174.09,30.87 L175.7,19.04 C175.933333,17.1733333 175.513333,15.7033333 174.44,14.63 C173.413333,13.5566667 171.99,13.02 170.17,13.02 L158.69,13.02 L159.46,7.14 L173.81,7.14 C174.65,7.14 175.385,6.86 176.015,6.3 C176.645,5.74 177.03,4.99333333 177.17,4.06 L177.52,1.61 L160.23,1.61 L160.44,0 Z M126.56,42.56 L126.56,42.56 C125.626667,42.56 124.798333,42.8866667 124.075,43.54 C123.351667,44.1933333 122.896667,45.0333333 122.71,46.06 L122.43,48.09 L132.23,48.09 L121.73,66.01 L127.12,66.01 C132.346667,66.01 136.616667,63.5133333 139.93,58.52 L146.02,48.09 L147,48.09 L150.57,57.33 C153.416667,63.1166667 157.546667,66.01 162.96,66.01 L168.35,66.01 L161.35,48.09 L168.14,48.09 C169.12,48.09 169.96,47.7633333 170.66,47.11 C171.36,46.4566667 171.803333,45.6166667 171.99,44.59 L172.27,42.56 L148.96,42.56 L160.16,21.42 L148.61,21.42 C147.303333,21.42 146.23,22.0733333 145.39,23.38 L135.17,42.56 L126.56,42.56 Z M126.56,21.56 L126.56,21.56 L126.56,21.56 C126.42,23.1 126.781667,24.4416667 127.645,25.585 C128.508333,26.7283333 129.663333,27.4166667 131.11,27.65 L138.25,28.42 L138.95,22.82 L126.56,21.56 Z M125.37,30.73 L125.37,30.73 L125.37,30.8 C125.183333,32.34 125.521667,33.6816667 126.385,34.825 C127.248333,35.9683333 128.426667,36.6333333 129.92,36.82 L136.99,37.59 L137.76,31.99 L125.37,30.73 Z M118.79,40.04 L118.79,40.04 C119.303333,40.04 119.7,40.18 119.98,40.46 C120.12,40.8333333 120.143333,41.3233333 120.05,41.93 L118.72,48.23 L93.87,51.03 C93.1233333,51.0766667 92.5866667,50.7733333 92.26,50.12 C91.8866667,49.4666667 91.8866667,48.7433333 92.26,47.95 L105.63,26.67 L94.92,26.67 C94.1266667,26.67 93.59,26.3433333 93.31,25.69 C92.9366667,25.0833333 92.9366667,24.43 93.31,23.73 L105.42,1.75 C105.886667,0.816666667 106.843333,0.35 108.29,0.35 L116.2,0.35 L105.56,20.02 C105.046667,21 105.21,21.49 106.05,21.49 L108.57,21.49 L114.1,11.48 C114.753333,10.5 115.43,10.01 116.13,10.01 L125.58,10.01 L108.08,39.9 L108.01,39.97 C107.776667,40.2966667 107.66,40.5766667 107.66,40.81 C107.66,41.0433333 107.893333,41.1366667 108.36,41.09 L118.79,40.04 Z M91.35,59.01 L91.35,59.01 C91.9566667,58.45 92.6333333,58.1233333 93.38,58.03 L117.88,55.86 L116.97,60.97 C116.876667,61.5766667 116.573333,62.1133333 116.06,62.58 C115.64,63.0466667 115.15,63.3266667 114.59,63.42 L89.6,65.59 L90.3,61.25 C90.44,60.3633333 90.79,59.6166667 91.35,59.01 Z" id="形状"></path>
                <path d="M182.42,31.01 L182.42,31.01 C181.533333,31.01 180.763333,31.29 180.11,31.85 C179.456667,32.41 179.06,33.1333333 178.92,34.02 L178.92,34.02 C178.826667,35.0933333 179.118333,36.0266667 179.795,36.82 C180.471667,37.6133333 181.346667,38.01 182.42,38.01 L190.26,38.01 C191.146667,38.01 191.916667,37.73 192.57,37.17 C193.223333,36.61 193.62,35.8866667 193.76,35 L193.76,35 C193.853333,33.9266667 193.561667,32.9933333 192.885,32.2 C192.208333,31.4066667 191.333333,31.01 190.26,31.01 L182.42,31.01 Z" id="路径"></path>
                <path d="M201.39,54.11 L201.39,54.11 C199.99,54.11 198.765,54.5883333 197.715,55.545 C196.665,56.5016667 196.023333,57.7266667 195.79,59.22 L195.51,60.83 L216.02,60.83 L215.32,66.01 L225.82,66.01 C226.8,66.01 227.64,65.695 228.34,65.065 C229.04,64.435 229.46,63.6066667 229.6,62.58 L238,0 L227.22,0 C226.333333,0 225.563333,0.303333333 224.91,0.91 C224.256667,1.51666667 223.86,2.28666667 223.72,3.22 L223.65,3.78 L208.6,3.78 C207.2,3.78 205.975,4.25833333 204.925,5.215 C203.875,6.17166667 203.233333,7.39666667 203,8.89 L202.79,10.5 L222.74,10.5 L220.57,27.02 L206.22,27.02 C204.82,27.02 203.595,27.4983333 202.545,28.455 C201.495,29.4116667 200.853333,30.6366667 200.62,32.13 L200.41,33.74 L219.66,33.74 L216.93,54.11 L201.39,54.11 Z M263.97,0 L263.97,0 L253.47,0 C252.49,0 251.638333,0.326666667 250.915,0.98 C250.191667,1.63333333 249.76,2.49666667 249.62,3.57 L241.22,66.01 L251.79,66.01 C252.723333,66.01 253.54,65.695 254.24,65.065 C254.94,64.435 255.383333,63.6066667 255.57,62.58 L255.78,60.83 L271.04,60.83 C272.486667,60.83 273.735,60.3516667 274.785,59.395 C275.835,58.4383333 276.476667,57.2133333 276.71,55.72 L276.92,54.11 L256.69,54.11 L259.42,33.74 L273.49,33.74 C274.89,33.74 276.115,33.2616667 277.165,32.305 C278.215,31.3483333 278.856667,30.1233333 279.09,28.63 L279.3,27.02 L260.33,27.02 L262.5,10.5 L277.34,10.5 C278.74,10.5 279.965,10.0216667 281.015,9.065 C282.065,8.10833333 282.706667,6.88333333 282.94,5.39 L283.15,3.78 L263.41,3.78 L263.97,0 Z" id="形状"></path>
                <path d="M331.17,57.82 L331.17,57.82 L343.63,57.82 C344.19,57.82 344.68,57.6333333 345.1,57.26 C345.52,56.8866667 345.776667,56.42 345.87,55.86 L346.92,48.02 L364.63,48.02 C365.33,48.02 365.936667,47.7983333 366.45,47.355 C366.963333,46.9116667 367.266667,46.34 367.36,45.64 L367.85,42.56 L347.69,42.56 L348.95,33.81 L366.52,33.81 C367.08,33.81 367.57,33.6233333 367.99,33.25 C368.41,32.8766667 368.666667,32.41 368.76,31.85 L369.25,28.28 L349.72,28.28 L351.82,13.16 L339.08,13.16 C338.613333,13.16 338.205,13.3116667 337.855,13.615 C337.505,13.9183333 337.306667,14.3033333 337.26,14.77 L335.37,28.28 L326.27,28.28 C325.71,28.28 325.29,28.1166667 325.01,27.79 C324.73,27.4633333 324.706667,27.02 324.94,26.46 L333.48,9.45 L370.02,9.45 C370.72,9.45 371.315,9.22833333 371.805,8.785 C372.295,8.34166667 372.61,7.77 372.75,7.07 L373.17,3.92 L336.21,3.92 L338.31,0 L324.17,0 L322.07,3.92 L315.49,3.92 C314.743333,3.92 314.09,4.165 313.53,4.655 C312.97,5.145 312.62,5.78666667 312.48,6.58 L312.06,9.45 L319.27,9.45 L310.45,26.53 C309.983333,27.4166667 309.75,28.3033333 309.75,29.19 C309.75,30.0766667 309.913333,30.8466667 310.24,31.5 C310.566667,32.1533333 311.056667,32.7133333 311.71,33.18 C312.41,33.6 313.226667,33.81 314.16,33.81 L334.6,33.81 L333.34,42.56 L311.01,42.56 C310.216667,42.56 309.528333,42.805 308.945,43.295 C308.361667,43.785 308.023333,44.4266667 307.93,45.22 L307.51,48.02 L332.57,48.02 L331.17,57.82 Z M294.35,20.37 L294.35,20.37 L287.7,65.94 L296.24,65.94 C296.473333,65.94 296.683333,65.94 296.87,65.94 C297.803333,65.9866667 298.69,65.9166667 299.53,65.73 C300.323333,65.5433333 300.976667,65.0766667 301.49,64.33 L301.7,63.91 L360.22,65.8 C361.713333,65.8 363.02,65.3333333 364.14,64.4 C365.26,63.42 365.936667,62.1833333 366.17,60.69 L307.02,58.66 C306.646667,58.66 306.203333,58.5433333 305.69,58.31 C305.176667,58.1233333 304.733333,57.8433333 304.36,57.47 C303.986667,57.0966667 303.683333,56.7 303.45,56.28 C303.216667,55.7666667 303.146667,55.2533333 303.24,54.74 L308.63,15.19 L292.88,15.19 C292.18,15.19 291.55,15.4466667 290.99,15.96 C290.43,16.4266667 290.103333,17.01 290.01,17.71 L289.59,20.37 L294.35,20.37 Z M295.61,1.12 L295.61,1.12 C294.816667,3.26666667 294.863333,5.32 295.75,7.28 C296.636667,9.19333333 298.13,10.6166667 300.23,11.55 L305.97,13.86 L308.84,6.3 L295.61,1.12 Z" id="形状"></path>
                <path d="M448.14,0 L448.14,0 L434.21,0 L433.93,1.61 L419.65,1.61 C418.763333,1.61 418.005,1.90166667 417.375,2.485 C416.745,3.06833333 416.36,3.80333333 416.22,4.69 L415.87,7.14 L433.23,7.14 L432.46,13.02 L417.27,13.02 C416.57,13.02 415.963333,13.2416667 415.45,13.685 C414.936667,14.1283333 414.633333,14.7233333 414.54,15.47 L414.19,18.2 L449.75,18.2 C450.356667,18.2 450.846667,18.3866667 451.22,18.76 C451.546667,19.0866667 451.663333,19.5533333 451.57,20.16 L450.1,30.87 L461.79,30.87 L463.4,19.04 C463.633333,17.1733333 463.213333,15.7033333 462.14,14.63 C461.113333,13.5566667 459.69,13.02 457.87,13.02 L446.39,13.02 L447.16,7.14 L461.51,7.14 C462.35,7.14 463.085,6.86 463.715,6.3 C464.345,5.74 464.73,4.99333333 464.87,4.06 L465.22,1.61 L447.93,1.61 L448.14,0 Z M414.26,42.56 L414.26,42.56 C413.326667,42.56 412.498333,42.8866667 411.775,43.54 C411.051667,44.1933333 410.596667,45.0333333 410.41,46.06 L410.13,48.09 L419.93,48.09 L409.43,66.01 L414.82,66.01 C420.046667,66.01 424.316667,63.5133333 427.63,58.52 L433.72,48.09 L434.7,48.09 L438.27,57.33 C441.116667,63.1166667 445.246667,66.01 450.66,66.01 L456.05,66.01 L449.05,48.09 L455.84,48.09 C456.82,48.09 457.66,47.7633333 458.36,47.11 C459.06,46.4566667 459.503333,45.6166667 459.69,44.59 L459.97,42.56 L436.66,42.56 L447.86,21.42 L436.31,21.42 C435.003333,21.42 433.93,22.0733333 433.09,23.38 L422.87,42.56 L414.26,42.56 Z M414.26,21.56 L414.26,21.56 L414.26,21.56 C414.12,23.1 414.481667,24.4416667 415.345,25.585 C416.208333,26.7283333 417.363333,27.4166667 418.81,27.65 L425.95,28.42 L426.65,22.82 L414.26,21.56 Z M413.07,30.73 L413.07,30.73 L413.07,30.8 C412.883333,32.34 413.221667,33.6816667 414.085,34.825 C414.948333,35.9683333 416.126667,36.6333333 417.62,36.82 L424.69,37.59 L425.46,31.99 L413.07,30.73 Z M406.49,40.04 L406.49,40.04 C407.003333,40.04 407.4,40.18 407.68,40.46 C407.82,40.8333333 407.843333,41.3233333 407.75,41.93 L406.42,48.23 L381.57,51.03 C380.823333,51.0766667 380.286667,50.7733333 379.96,50.12 C379.586667,49.4666667 379.586667,48.7433333 379.96,47.95 L393.33,26.67 L382.62,26.67 C381.826667,26.67 381.29,26.3433333 381.01,25.69 C380.636667,25.0833333 380.636667,24.43 381.01,23.73 L393.12,1.75 C393.586667,0.816666667 394.543333,0.35 395.99,0.35 L403.9,0.35 L393.26,20.02 C392.746667,21 392.91,21.49 393.75,21.49 L396.27,21.49 L401.8,11.48 C402.453333,10.5 403.13,10.01 403.83,10.01 L413.28,10.01 L395.78,39.9 L395.71,39.97 C395.476667,40.2966667 395.36,40.5766667 395.36,40.81 C395.36,41.0433333 395.593333,41.1366667 396.06,41.09 L406.49,40.04 Z M379.05,59.01 L379.05,59.01 C379.656667,58.45 380.333333,58.1233333 381.08,58.03 L405.58,55.86 L404.67,60.97 C404.576667,61.5766667 404.273333,62.1133333 403.76,62.58 C403.34,63.0466667 402.85,63.3266667 402.29,63.42 L377.3,65.59 L378,61.25 C378.14,60.3633333 378.49,59.6166667 379.05,59.01 Z" id="形状"></path>
                <path d="M488.81,28.42 L488.81,28.42 L497.91,28.42 C498.936667,28.42 499.835,28.07 500.605,27.37 C501.375,26.67 501.853333,25.76 502.04,24.64 L503.37,14.35 L516.11,14.35 C516.763333,14.35 517.323333,14.14 517.79,13.72 C518.256667,13.3 518.536667,12.74 518.63,12.04 L519.05,8.89 L516.67,8.89 L518.7,1.19 L511.91,1.19 C509.716667,1.19 508.13,2.45 507.15,4.97 L506.1,8.89 L504.14,8.89 L505.26,0.21 L494.76,0.21 C494.106667,0.21 493.546667,0.443333333 493.08,0.91 C492.613333,1.37666667 492.31,1.93666667 492.17,2.59 L491.4,8.89 L489.09,8.89 L489.09,5.6 C489.043333,4.34 488.623333,3.29 487.83,2.45 C487.036667,1.61 486.056667,1.19 484.89,1.19 L478.73,1.19 L478.73,8.89 L477.89,8.89 C477.47,8.89 477.096667,9.03 476.77,9.31 C476.443333,9.59 476.256667,9.96333333 476.21,10.43 L475.72,14.35 L490.63,14.35 L488.81,28.42 Z M488.25,15.89 L488.25,15.89 L479.99,15.89 C478.916667,15.89 478.1,16.4966667 477.54,17.71 L473.83,28.42 L477.96,28.42 C481.506667,28.42 484.166667,26.46 485.94,22.54 L488.25,15.89 Z M511.56,65.87 L511.56,65.87 L511.7,64.96 C511.886667,63.3266667 511.583333,61.845 510.79,60.515 C509.996667,59.185 508.853333,58.2633333 507.36,57.75 L503.23,56.35 L507.64,55.16 C508.526667,54.88 509.273333,54.3666667 509.88,53.62 C510.486667,52.8266667 510.86,51.94 511,50.96 L512.61,38.36 L513.66,38.36 C514.08,38.36 514.453333,38.2083333 514.78,37.905 C515.106667,37.6016667 515.316667,37.2166667 515.41,36.75 L515.9,32.83 L513.38,32.83 L513.66,30.66 L502.25,30.66 C501.69,30.66 501.2,30.8583333 500.78,31.255 C500.36,31.6516667 500.103333,32.1533333 500.01,32.76 L500.01,32.83 L489.09,32.83 L489.37,30.66 L477.75,30.66 C477.236667,30.66 476.793333,30.835 476.42,31.185 C476.046667,31.535 475.836667,31.9666667 475.79,32.48 L475.72,32.83 L474.6,32.83 C474.226667,32.83 473.888333,32.97 473.585,33.25 C473.281667,33.53 473.106667,33.88 473.06,34.3 L472.5,38.36 L475.02,38.36 L473.34,51.1 C473.2,52.08 473.34,52.92 473.76,53.62 C474.18,54.3666667 474.81,54.88 475.65,55.16 L479.64,56.35 L474.25,58.03 C471.356667,59.0566667 469.63,61.1566667 469.07,64.33 L468.86,65.87 L491.05,59.78 L511.56,65.87 Z M491.96,52.64 L491.96,52.64 L487.76,51.17 C487.06,50.89 486.78,50.33 486.92,49.49 L488.39,38.36 L499.24,38.36 L497.77,49.49 C497.676667,50.33 497.256667,50.89 496.51,51.17 L491.96,52.64 Z M515.48,17.57 L515.48,17.57 C515.433333,17.1033333 515.246667,16.7066667 514.92,16.38 C514.593333,16.0533333 514.196667,15.89 513.73,15.89 L505.33,15.89 L506.03,23.8 C506.17,25.1533333 506.695,26.2616667 507.605,27.125 C508.515,27.9883333 509.6,28.42 510.86,28.42 L516.46,28.42 L515.48,17.57 Z M532.98,20.86 L532.98,20.86 C532.793333,20.0666667 532.431667,19.4366667 531.895,18.97 C531.358333,18.5033333 530.716667,18.27 529.97,18.27 L519.68,18.27 L524.58,42.56 L513.03,66.01 L517.02,66.01 C522.806667,66.01 527.403333,63.07 530.81,57.19 L530.81,57.19 L530.88,57.4 C533.213333,63.14 536.9,66.01 541.94,66.01 L546.91,66.01 L540.54,44.03 L554.4,10.92 L544.39,10.92 C542.896667,10.92 541.753333,11.7133333 540.96,13.3 L534.45,28.21 L532.98,20.86 Z M520.03,14.21 L520.03,14.21 L527.73,14.21 C531.09,14.21 533.563333,12.3433333 535.15,8.61 L535.15,8.61 L551.11,8.61 C552.23,8.61 553.221667,8.225 554.085,7.455 C554.948333,6.685 555.473333,5.67 555.66,4.41 L555.8,3.15 L537.04,3.15 L538.09,0 L526.61,0 C525.49,0 524.673333,0.606666667 524.16,1.82 L520.03,14.21 Z" id="形状"></path>
                <path d="M635.74,60.41 L635.74,60.41 L639.1,60.41 L638.68,63.35 C638.586667,64.1433333 638.248333,64.785 637.665,65.275 C637.081667,65.765 636.416667,66.01 635.67,66.01 L579.32,66.01 L579.74,63.07 C579.88,62.2766667 580.23,61.635 580.79,61.145 C581.35,60.655 582.003333,60.41 582.75,60.41 L583.45,60.41 L589.4,18.27 C589.68,16.1233333 590.683333,14.3033333 592.41,12.81 C594.09,11.3633333 596.003333,10.64 598.15,10.64 L605.01,10.64 L603.33,22.68 L626.57,22.68 L627.13,18.76 C627.223333,18.0133333 627.036667,17.3833333 626.57,16.87 C626.15,16.4033333 625.59,16.17 624.89,16.17 L606.76,16.17 C606.76,16.17 606.76,16.17 606.76,16.17 C606.76,16.17 606.76,16.17 606.76,16.17 L607.53,10.64 L609.42,10.64 L609.91,7.07 L588.28,7.07 L588.7,4.48 C588.84,3.59333333 589.213333,2.88166667 589.82,2.345 C590.426667,1.80833333 591.15,1.54 591.99,1.54 L610.68,1.54 L610.68,1.54 C610.726667,1.07333333 610.913333,0.7 611.24,0.42 C611.566667,0.14 611.963333,0 612.43,0 L625.31,0 L625.1,1.54 L646.73,1.54 L646.31,4.2 C646.17,5.04 645.796667,5.72833333 645.19,6.265 C644.583333,6.80166667 643.86,7.07 643.02,7.07 L624.33,7.07 L623.84,10.64 L635.04,10.64 C637.233333,10.64 638.96,11.3633333 640.22,12.81 C641.526667,14.3033333 642.016667,16.1233333 641.69,18.27 L635.74,60.41 Z M621.25,60.41 L621.25,60.41 L622.37,52.57 L599.13,52.57 L598.01,60.41 L621.25,60.41 Z M623.14,47.04 L623.14,47.04 L624.12,40.11 L600.88,40.11 L599.9,47.04 L623.14,47.04 Z M624.89,34.58 L624.89,34.58 L625.8,28.21 L602.49,28.21 L601.65,34.58 L624.89,34.58 Z M570.36,1.75 L570.36,1.75 C571.06,0.583333333 572.016667,0 573.23,0 L586.32,0 L578.06,17.85 L581.77,17.85 L574.98,66.01 L560.49,66.01 L566.51,23.17 L559.65,23.17 L570.36,1.75 Z" id="形状"></path>
                <path d="M656.95,20.44 L656.95,20.44 L666.26,20.51 C670.926667,20.5566667 674.45,18.5266667 676.83,14.42 L684.95,0.21 L671.65,0.21 C670.203333,0.21 669.036667,0.933333333 668.15,2.38 L656.95,20.44 Z M728.07,58.31 L728.07,58.31 L732.55,25.83 C732.643333,25.2233333 732.503333,24.6983333 732.13,24.255 C731.756667,23.8116667 731.266667,23.59 730.66,23.59 L657.44,23.59 L656.95,26.53 C656.483333,29.19 657.51,30.4966667 660.03,30.45 L672,30.45 L651.14,66.01 L652.26,66.01 C660.8,66.01 667.8,61.5533333 673.26,52.64 L686.91,30.45 L717.71,30.45 L714.07,56.63 C713.976667,57.3766667 713.65,57.9833333 713.09,58.45 C712.53,58.9166667 711.923333,59.15 711.27,59.15 L702.24,59.15 C700.793333,59.15 699.51,59.6633333 698.39,60.69 C697.27,61.7166667 696.593333,62.9766667 696.36,64.47 L696.08,66.01 L719.46,66.01 C721.606667,66.01 723.496667,65.2633333 725.13,63.77 C726.81,62.23 727.79,60.41 728.07,58.31 Z M719.88,12.95 C721.326667,17.7566667 724.313333,20.2533333 728.84,20.44 L738.08,20.44 L732.06,2.87 C731.406667,0.956666667 730.123333,0 728.21,0 L715.26,0 L719.88,12.95 Z" id="形状"></path>
                <path d="M773.36,0 L773.36,0 L772.66,5.74 L783.37,5.74 L782.88,9.24 C782.786667,9.89333333 782.518333,10.4183333 782.075,10.815 C781.631667,11.2116667 781.13,11.41 780.57,11.41 L771.89,11.41 L765.03,63.21 C764.89,64.05 764.528333,64.7383333 763.945,65.275 C763.361667,65.8116667 762.673333,66.08 761.88,66.08 L751.8,66.08 L759.01,11.41 L748.86,11.41 L749.35,7.7 C749.443333,7.09333333 749.688333,6.615 750.085,6.265 C750.481667,5.915 750.936667,5.74 751.45,5.74 L759.78,5.74 L760.27,2.17 C760.363333,1.56333333 760.631667,1.05 761.075,0.63 C761.518333,0.21 762.02,0 762.58,0 L773.36,0 Z M741.44,66.08 L741.44,66.08 L749,17.01 C749.14,16.3566667 749.431667,15.8316667 749.875,15.435 C750.318333,15.0383333 750.82,14.84 751.38,14.84 L757.12,14.84 L750.12,60.55 C749.84,62.1833333 749.116667,63.5133333 747.95,64.54 C746.783333,65.5666667 745.453333,66.08 743.96,66.08 L741.44,66.08 Z M773.29,14.84 L773.29,14.84 L779.24,14.84 C779.753333,14.84 780.161667,15.0266667 780.465,15.4 C780.768333,15.7733333 780.896667,16.2166667 780.85,16.73 L775.25,66.08 L775.25,66.08 C773.196667,66.08 771.493333,65.275 770.14,63.665 C768.786667,62.055 768.203333,60.13 768.39,57.89 L773.29,14.84 Z M829.43,1.75 L829.43,1.75 C829.196667,3.24333333 828.555,4.46833333 827.505,5.425 C826.455,6.38166667 825.23,6.86 823.83,6.86 L803.04,6.86 L803.67,1.75 L829.43,1.75 Z M801.57,1.75 L801.57,1.75 L799.54,17.15 L827.4,17.15 L826.63,22.82 L822.36,22.82 L816.62,66.08 L803.25,66.08 L808.92,22.82 L798.77,22.82 L794.08,58.52 C793.8,60.62 792.89,62.4166667 791.35,63.91 C789.856667,65.3566667 788.083333,66.08 786.03,66.08 L779.66,66.08 L787.78,4.55 C787.92,3.71 788.27,3.03333333 788.83,2.52 C789.39,2.00666667 790.043333,1.75 790.79,1.75 L801.57,1.75 Z" id="形状"></path>
                <path d="M902.3,35.98 L902.3,35.98 C902.393333,36.7266667 902.685,37.3333333 903.175,37.8 C903.665,38.2666667 904.26,38.5 904.96,38.5 L915.25,38.5 L913.78,27.16 C913.5,25.1533333 912.683333,23.4966667 911.33,22.19 C909.976667,20.8833333 908.39,20.23 906.57,20.23 L900.41,20.23 L901.39,29.12 L878.71,30.24 L898.45,7.91 L887.81,7.91 C886.736667,7.91 885.733333,8.30666667 884.8,9.1 L876.89,16.59 L859.25,17.71 C858.83,17.85 858.573333,17.71 858.48,17.29 C858.34,17.01 858.41,16.6833333 858.69,16.31 L867.02,5.81 L915.25,5.81 C916.416667,5.81 917.455,5.37833333 918.365,4.515 C919.275,3.65166667 919.823333,2.56666667 920.01,1.26 L920.15,0.07 L845.39,0.07 C844.176667,0.07 843.126667,0.501666667 842.24,1.365 C841.353333,2.22833333 840.793333,3.33666667 840.56,4.69 L840.42,5.81 L852.39,5.81 L842.1,17.99 C841.586667,18.4566667 841.236667,19.0866667 841.05,19.88 C840.91,20.6733333 840.91,21.42 841.05,22.12 C841.236667,22.82 841.586667,23.4033333 842.1,23.87 C842.566667,24.3833333 843.243333,24.6166667 844.13,24.57 L870.8,22.61 L862.47,31.08 L840.49,32.13 C839.463333,32.1766667 838.6,32.5616667 837.9,33.285 C837.2,34.0083333 836.756667,34.93 836.57,36.05 L836.36,37.94 L869.19,36.4 L866.46,57.68 C866.366667,58.38 866.063333,59.01 865.55,59.57 C865.036667,60.0833333 864.43,60.34 863.73,60.34 L860.86,60.34 C859.553333,60.34 858.421667,60.795 857.465,61.705 C856.508333,62.615 855.913333,63.7933333 855.68,65.24 L855.61,66.01 L871.85,66.01 C873.81,66.01 875.583333,65.2633333 877.17,63.77 C878.803333,62.23 879.76,60.3866667 880.04,58.24 L882.91,35.7 L902.16,34.72 L902.3,35.98 Z M832.72,66.01 L832.72,66.01 L837.27,66.01 C842.17,66.01 845.856667,63.2566667 848.33,57.75 L854.7,40.18 L845.95,40.18 C843.756667,40.18 842.1,41.3933333 840.98,43.82 L832.72,66.01 Z M897.89,54.46 L897.89,54.46 C898.31,57.82 899.628333,60.585 901.845,62.755 C904.061667,64.925 906.686667,66.01 909.72,66.01 L911.68,66.01 L909.3,45.29 C909.113333,43.7966667 908.518333,42.5716667 907.515,41.615 C906.511667,40.6583333 905.356667,40.18 904.05,40.18 L896.42,40.18 L897.89,54.46 Z" id="形状"></path>
                <path d="M993.51,32.06 L993.51,32.06 L1006.95,32.06 L1007.02,21.35 C1006.97333,18.5033333 1006.02833,16.1 1004.185,14.14 C1002.34167,12.18 1000.09,11.2 997.43,11.2 L993.72,11.2 L993.23,23.87 L976.85,25.27 C976.243333,25.3166667 975.823333,25.0833333 975.59,24.57 C975.356667,24.1033333 975.356667,23.59 975.59,23.03 L982.59,8.19 L1008.21,8.19 C1008.95667,8.19 1009.61,7.945 1010.17,7.455 C1010.73,6.965 1011.08,6.32333333 1011.22,5.53 L1011.57,2.66 L993.79,2.66 L993.79,2.66 C993.883333,1.91333333 993.708333,1.28333333 993.265,0.77 C992.821667,0.256666667 992.25,0 991.55,0 L980.14,0 L979.79,2.66 L964.53,2.66 C963.783333,2.66 963.13,2.905 962.57,3.395 C962.01,3.885 961.683333,4.52666667 961.59,5.32 L961.17,8.19 L968.73,8.19 L960.82,25.06 C960.446667,25.9466667 960.306667,26.7866667 960.4,27.58 C960.446667,28.42 960.656667,29.1666667 961.03,29.82 C961.45,30.4733333 962.01,30.9866667 962.71,31.36 C963.41,31.7333333 964.203333,31.8966667 965.09,31.85 L993.51,29.47 L993.51,32.06 Z M954.52,66.01 L954.52,66.01 L954.52,66.01 C962.873333,66.01 969.056667,61.4366667 973.07,52.29 L978.81,34.86 L968.03,34.86 C966.163333,34.86 964.786667,35.8866667 963.9,37.94 L954.52,66.01 Z M989.17,34.86 L989.17,34.86 C988.47,34.86 987.863333,35.0933333 987.35,35.56 C986.836667,36.0266667 986.51,36.6333333 986.37,37.38 L983.57,58.52 C983.243333,60.6666667 983.71,62.4633333 984.97,63.91 C986.23,65.31 987.886667,66.01 989.94,66.01 L1005.27,66.01 L1005.27,66.01 C1005.41,64.47 1005.025,63.1516667 1004.115,62.055 C1003.205,60.9583333 1002.05,60.41 1000.65,60.41 L999.74,60.41 C999.04,60.41 998.503333,60.1533333 998.13,59.64 C997.71,59.1733333 997.546667,58.5666667 997.64,57.82 L1000.72,34.86 L989.17,34.86 Z M925.12,59.08 L925.12,59.08 C925.773333,58.4733333 926.473333,58.1233333 927.22,58.03 L951.79,55.93 L950.88,60.97 C950.786667,61.5766667 950.483333,62.1366667 949.97,62.65 C949.55,63.1166667 949.06,63.3966667 948.5,63.49 L923.37,65.66 L924.14,61.25 C924.28,60.41 924.606667,59.6866667 925.12,59.08 Z M952.7,40.04 L952.7,40.04 C953.213333,40.04 953.61,40.18 953.89,40.46 C954.03,40.8333333 954.053333,41.3 953.96,41.86 L952.63,48.23 L927.71,51.03 C926.916667,51.0766667 926.38,50.7733333 926.1,50.12 C925.726667,49.42 925.726667,48.6966667 926.1,47.95 L939.47,26.53 L928.76,26.53 C927.966667,26.53 927.406667,26.2266667 927.08,25.62 C926.706667,25.0133333 926.73,24.3366667 927.15,23.59 L939.26,1.54 C939.773333,0.606666667 940.73,0.14 942.13,0.14 L950.11,0.14 L939.4,19.88 C938.886667,20.9066667 939.073333,21.42 939.96,21.42 L942.41,21.42 L948.01,11.34 C948.616667,10.36 949.293333,9.87 950.04,9.87 L959.49,9.87 L941.92,39.9 L941.85,39.97 C941.663333,40.2966667 941.57,40.5766667 941.57,40.81 C941.57,41.0433333 941.78,41.1366667 942.2,41.09 L952.7,40.04 Z" id="形状"></path>
            </g>
        </g>
    </g>
</svg>