<?xml version="1.0" encoding="UTF-8"?>
<svg width="1200px" height="55.5875893px" viewBox="0 0 1200 55.5875893" version="1.1" xmlns="http://www.w3.org/2000/svg" xmlns:xlink="http://www.w3.org/1999/xlink">
    <title>飞行器气动弹性数值仿真和优化设计</title>
    <g id="页面-1" stroke="none" stroke-width="1" fill="none" fill-rule="evenodd">
        <g id="CADO" transform="translate(-360.000000, -287.000000)" fill="#FFFFFF" fill-rule="nonzero">
            <g id="飞行器气动弹性数值仿真和优化设计" transform="translate(360.000000, 287.000000)">
                <path d="M16.9687115,47.0178359 L32.9501434,2.95309068 C33.1817584,2.21964332 33.0756015,1.55375033 32.6316729,0.955411691 C32.1877442,0.357073056 31.5797549,0.0579037389 30.8077051,0.0579037389 L4.46150391,0.0579037389 C3.998274,0.0579037389 3.59294782,0.202663086 3.24552539,0.49218178 C2.89810296,0.781700475 2.68578925,1.13877353 2.60858426,1.56340095 L2.02954688,5.50085519 L16.6212891,5.50085519 L0.350338449,49.6235042 C-0.769133836,53.0205235 0.794267113,54.6418282 5.0405413,54.4874183 L64.0444512,54.4874183 L64.4497774,51.9396538 C64.5269823,51.2834114 64.3629218,50.7333259 63.9575956,50.2893972 C63.5522694,49.8454685 63.0021839,49.6235042 62.307339,49.6235042 L18.7058237,49.6235042 C16.6598916,49.7779142 16.0808542,48.9093581 16.9687115,47.0178359 Z M32.4290098,16.5604693 L62.0178203,8.51184961 C63.2917026,8.16442718 64.4883799,7.57573917 65.6078521,6.74578558 C66.7273244,5.91583199 67.402868,4.82531157 67.634483,3.47422433 L68.0398092,1.73711217 L35.6716191,10.0173468 C34.2433269,10.3647693 33.4133733,11.1175179 33.1817584,12.2755926 L32.4290098,16.5604693 Z M31.7920686,21.1927684 L47.1944632,40.0114835 C50.3212651,44.1419503 54.4324305,46.2071836 59.5279596,46.2071836 L64.9130073,46.2071836 L47.1365594,22.8140731 C46.4417146,21.7332033 45.4766523,21.1927684 44.2413725,21.1927684 L31.7920686,21.1927684 Z" id="形状"></path>
                <path d="M75.7410064,13.0283412 L83.6159149,13.0283412 C86.7041143,13.0283412 89.3676863,11.5421453 91.6066309,8.56975335 L97.2232935,0.173711217 L84.3686635,0.173711217 L75.7410064,13.0283412 Z M101.9714,16.6762768 C101.122145,16.6762768 100.379047,16.9657955 99.7421062,17.5448329 C99.1051651,18.1238703 98.7094895,18.8380164 98.5550795,19.6872712 L98.1497534,22.6403619 L118.937196,22.6403619 L115.578779,46.786221 C115.462971,47.5968733 115.096248,48.272417 114.478608,48.8128519 C113.860968,49.3532867 113.146822,49.6235042 112.336169,49.6235042 L105.908854,49.6235042 C105.0596,49.6235042 104.306851,49.9130229 103.650609,50.4920603 C102.994366,51.0710977 102.58904,51.7852438 102.43463,52.6344986 L102.260919,54.1978996 L120.211078,54.1978996 C121.94819,54.1978996 123.511591,53.5609584 124.901281,52.2870762 C126.329573,51.0517964 127.159527,49.5656005 127.391141,47.8284883 L130.92327,22.6403619 L140.882713,22.6403619 C141.577558,22.6403619 142.204848,22.3990963 142.764584,21.9165652 C143.32432,21.434034 143.662092,20.845346 143.7779,20.1505011 L144.241129,16.6762768 L101.9714,16.6762768 Z M104.28755,0.579037389 C103.631307,0.579037389 103.05227,0.801001721 102.550438,1.24493039 C102.048605,1.68885905 101.739785,2.23894457 101.623978,2.89518694 L101.160748,6.07989258 L142.446114,6.07989258 C143.140958,6.07989258 143.768249,5.838627 144.327985,5.35609584 C144.887721,4.87356469 145.225493,4.28487668 145.341301,3.59003181 L145.746627,0.579037389 L104.28755,0.579037389 Z M87.7270804,54.545322 L91.7803421,25.6513563 L88.4219252,25.6513563 L95.2545664,14.1285123 L82.3999364,14.1285123 L73.5406644,28.4307358 L79.388942,28.4307358 L75.7410064,54.545322 L87.7270804,54.545322 Z" id="形状"></path>
                <path d="M158.080123,15.1128758 C156.767638,15.1128758 155.725371,14.6110434 154.953321,13.6073786 C154.181271,12.6423163 153.891753,11.4649403 154.084765,10.0752506 L155.416551,0 L166.360358,0 L165.78132,4.22697294 L165.549705,5.73247015 L165.144379,9.090887 C165.067174,9.5927194 165.16368,10.0173468 165.433898,10.3647693 C165.704115,10.7121917 166.09014,10.8859029 166.591973,10.8859029 L172.613962,10.8859029 C173.115794,10.8859029 173.540421,10.7121917 173.887844,10.3647693 C174.235266,10.0173468 174.44758,9.5927194 174.524785,9.090887 L175.21963,4.22697294 L167.402625,4.22697294 L167.923759,0 L186.68457,0 L185.352784,10.0752506 C185.159772,11.4649403 184.542132,12.6423163 183.499864,13.6073786 C182.457597,14.6110434 181.280221,15.1128758 179.967736,15.1128758 L158.080123,15.1128758 Z M192.243329,15.1128758 C190.930844,15.1128758 189.888577,14.6110434 189.116527,13.6073786 C188.305875,12.6423163 187.997055,11.4649403 188.190067,10.0752506 L189.521853,0 L200.46566,0 L199.886623,4.22697294 L199.712911,5.73247015 L199.249681,9.090887 C199.172476,9.5927194 199.268983,10.0173468 199.5392,10.3647693 C199.809418,10.7121917 200.195442,10.8859029 200.697275,10.8859029 L206.719264,10.8859029 C207.221096,10.8859029 207.665025,10.7121917 208.05105,10.3647693 C208.398472,10.0173468 208.610786,9.5927194 208.687991,9.090887 L209.324932,4.22697294 L201.507927,4.22697294 L202.086965,0 L220.789872,0 L219.458086,10.0752506 C219.265074,11.4649403 218.647434,12.6423163 217.605167,13.6073786 C216.562899,14.6110434 215.385523,15.1128758 214.073039,15.1128758 L192.243329,15.1128758 Z M162.422903,41.2274621 L163.001941,37.0004891 L181.704849,37.0004891 L180.02564,49.6235042 C179.832628,51.0131939 179.214988,52.19057 178.17272,53.1556323 C177.169056,54.1206946 175.99168,54.6032257 174.640592,54.6032257 L152.810883,54.6032257 C151.498398,54.6032257 150.456131,54.1206946 149.684081,53.1556323 C148.873429,52.19057 148.564609,51.0131939 148.757621,49.6235042 L150.43683,37.0004891 L161.380636,37.0004891 L160.801599,41.2274621 L160.801599,41.3432695 L159.817235,48.5812369 C159.778633,49.0444668 159.89444,49.449793 160.164658,49.7972154 C160.434875,50.1832403 160.8209,50.3762528 161.322732,50.3762528 L167.286818,50.3762528 C167.78865,50.3762528 168.232579,50.1832403 168.618604,49.7972154 C168.966026,49.449793 169.17834,49.0444668 169.255545,48.5812369 L170.239908,41.2274621 L162.422903,41.2274621 Z M219.168568,20.0346936 L218.821145,22.3508432 C218.74394,23.0456881 218.464072,23.6054242 217.981541,24.0300516 C217.49901,24.454679 216.929623,24.6669928 216.273381,24.6669928 L206.256034,24.6669928 L217.141937,34.8580508 L208.51428,34.8580508 C204.538223,34.8580508 200.967492,33.4104573 197.802088,30.5152704 L191.606388,24.6669928 L178.809662,24.6669928 L172.150732,29.936233 C167.904457,33.2174449 163.252857,34.8580508 158.195931,34.8580508 L149.741985,34.8580508 L162.82823,24.6669928 L151.073771,24.6669928 L151.421193,22.4087469 C151.498398,21.7139021 151.778266,21.1445153 152.260797,20.7005866 C152.743328,20.256658 153.312715,20.0346936 153.968958,20.0346936 L169.197641,20.0346936 L173.308806,17.0236992 C174.042254,16.4832643 174.852906,16.2130469 175.740763,16.2130469 L189.753468,16.2130469 L184.600035,20.0346936 L200.407756,20.0346936 L199.481296,16.9078917 L208.572183,16.9078917 C210.077681,16.9078917 211.15855,17.7378453 211.814793,19.3977525 L211.988504,20.0346936 L219.168568,20.0346936 Z M196.528206,41.2274621 L197.107243,37.0004891 L215.868054,37.0004891 L214.188846,49.6235042 C213.995834,51.0131939 213.378194,52.19057 212.335926,53.1556323 C211.293659,54.1206946 210.116283,54.6032257 208.803798,54.6032257 L186.974089,54.6032257 C185.623002,54.6032257 184.561433,54.1206946 183.789383,53.1556323 C183.017333,52.19057 182.727815,51.0131939 182.920827,49.6235042 L184.600035,37.0004891 L195.485938,37.0004891 L194.964805,41.2274621 L194.906901,41.3432695 L193.980441,48.5812369 C193.903236,49.0444668 193.999742,49.449793 194.26996,49.7972154 C194.540177,50.1832403 194.926202,50.3762528 195.428035,50.3762528 L201.450023,50.3762528 C201.951856,50.3762528 202.376483,50.1832403 202.723906,49.7972154 C203.109931,49.449793 203.322244,49.0444668 203.360847,48.5812369 L204.34521,41.2274621 L196.528206,41.2274621 Z" id="形状"></path>
                <path d="M225.943305,9.8436356 L225.943305,9.8436356 L237.060823,9.8436356 C238.296103,9.8436356 239.376972,9.20669448 240.303432,7.93281222 L240.535047,7.58538979 L292.995835,7.58538979 C293.497667,7.58538979 293.941596,7.41167857 294.327621,7.06425614 C294.713646,6.71683371 294.94526,6.29220629 295.022465,5.79037389 L295.601503,1.96872712 L243.661849,1.96872712 L244.819924,0 L232.254813,0 C231.714378,0 231.28975,0.250916202 230.98093,0.752748605 L225.943305,9.8436356 Z M226.232824,23.6247255 L226.232824,23.6247255 C225.692389,23.6247255 225.24846,23.7984367 224.901038,24.1458591 C224.515013,24.454679 224.283398,24.8600052 224.206193,25.3618376 L223.569252,29.704618 L277.767151,29.704618 L275.103579,48.8128519 C274.949169,49.8551192 275.007073,50.8008802 275.277291,51.6501351 C275.547508,52.4607874 275.952834,53.1749335 276.493269,53.7925734 C277.072306,54.3716108 277.767151,54.8155394 278.577804,55.1243594 C279.349853,55.4331793 280.199108,55.5875893 281.125568,55.5875893 L296.701674,55.5875893 L296.64377,53.3872472 C296.527963,52.4607874 296.122637,51.6790869 295.427792,51.0421458 C294.732947,50.4052047 293.922294,50.0867341 292.995835,50.0867341 L290.158551,50.0867341 L290.158551,50.0867341 C288.768862,50.0867341 288.170523,49.4304917 288.363536,48.118007 L291.490337,25.940875 C291.567542,25.2846326 291.393831,24.7441977 290.969204,24.3195703 C290.544576,23.8563404 290.023443,23.6247255 289.405803,23.6247255 L226.232824,23.6247255 Z M227.738321,13.2599562 L227.738321,13.2599562 C227.390898,13.2599562 227.10138,13.3757637 226.869765,13.6073786 C226.63815,13.8003911 226.503041,14.0513073 226.464439,14.3601272 L225.885401,18.413389 L290.274359,18.413389 C290.969204,18.413389 291.548241,18.2010752 292.011471,17.7764478 C292.513303,17.3132179 292.822123,16.7534818 292.937931,16.0972394 L293.343257,13.2599562 L227.738321,13.2599562 Z" id="形状"></path>
                <path d="M321.542378,54.3716108 L332.080858,54.3716108 L332.717799,33.2367461 C332.756402,32.1558763 332.457233,31.2776696 331.820292,30.602126 C331.18335,29.9265824 330.363047,29.5888106 329.359383,29.5888106 L322.121415,29.5888106 L321.8898,44.354264 L312.74101,45.9176649 C312.007562,46.0334724 311.756646,45.6281462 311.988261,44.7016864 L319.226228,22.2350357 L333.470548,22.2350357 C334.43561,22.2350357 335.323468,21.8876133 336.13412,21.1927684 C336.944772,20.4979236 337.427304,19.6100662 337.581714,18.5291964 L337.98704,15.6340095 L306.487406,15.6340095 C305.599548,15.6340095 304.817848,15.9331788 304.142304,16.5315174 C303.466761,17.1298561 303.051784,17.8922553 302.897374,18.8187151 L302.492048,22.2350357 L307.761288,22.2350357 L299.365246,47.4231621 C298.515991,50.1639391 298.6511,52.03616 299.770572,53.0398248 C300.851442,54.0434896 302.511349,54.3523095 304.750294,53.9662846 L321.658185,51.3027126 L321.542378,54.3716108 Z M309.324689,0.636941127 C308.475434,0.636941127 307.684083,0.955411691 306.950636,1.59235282 C306.217188,2.22929395 305.77326,3.01099442 305.61885,3.93745424 L305.271427,6.83264118 L335.497179,6.83264118 C336.307831,6.83264118 337.050929,6.53347187 337.726473,5.93513323 C338.402016,5.3367946 338.797692,4.59369662 338.9135,3.70583929 L339.318826,0.636941127 L309.324689,0.636941127 Z M333.238933,54.6032257 L333.238933,54.6032257 C336.44294,54.6032257 339.251271,53.5995609 341.663927,51.5922313 C344.076583,49.5849017 345.649634,47.1915472 346.383082,44.4121677 L354.142183,11.522844 L360.627402,11.522844 L355.705584,47.886392 C355.628379,48.4268269 355.377463,48.9286593 354.952835,49.3918892 C354.489605,49.8165167 353.968472,50.0288304 353.389434,50.0288304 L352.636686,50.0288304 C351.903238,50.0288304 351.246996,50.2893972 350.667959,50.8105308 C350.088921,51.3316645 349.722197,51.9782562 349.567787,52.7503061 L349.336173,54.6032257 L359.295616,54.6032257 C361.032728,54.6032257 362.576827,53.9855859 363.927915,52.7503061 C365.317604,51.4764238 366.128257,49.9709266 366.359872,48.2338145 L371.976534,6.65892997 C372.053739,5.9640851 371.870378,5.35609584 371.426449,4.83496219 C370.98252,4.31382854 370.432435,4.05326172 369.776192,4.05326172 L355.589776,4.05326172 L356.632044,0 L346.556793,0 L345.514526,4.05326172 L340.824323,4.05326172 L340.013671,9.61202065 C339.975068,10.1524555 340.110177,10.6060348 340.418997,10.9727585 C340.727817,11.3394822 341.133143,11.522844 341.634975,11.522844 L344.009029,11.522844 L333.238933,54.6032257 Z" id="形状"></path>
                <path d="M400.349366,42.6750555 C400.503776,41.7485957 400.918753,40.9861965 401.594297,40.3878578 C402.26984,39.7895192 403.070842,39.4903499 403.997302,39.4903499 L416.446606,39.4903499 L417.257258,33.699976 L408.282179,33.699976 C406.506464,33.699976 405.097473,33.0630349 404.055206,31.7891526 C403.012938,30.5538729 402.607612,29.0676769 402.839227,27.3305647 L405.908125,5.32714397 L410.135098,5.32714397 L410.135098,0 L416.620317,0 C418.048609,0 419.264588,0.511483027 420.268253,1.53444908 C421.271917,2.55741513 421.793051,3.82164676 421.831654,5.32714397 L421.831654,5.32714397 L431.269963,5.32714397 L431.501578,4.51649163 C432.698255,1.50549721 434.686284,0 437.465663,0 L444.472015,0 L442.966518,5.32714397 L447.251395,5.32714397 L444.182497,27.3305647 C443.950882,29.0676769 443.120928,30.5538729 441.692636,31.7891526 C440.264344,33.0630349 438.681642,33.699976 436.944529,33.699976 L428.490584,33.699976 L427.679931,39.4903499 L442.850711,39.4903499 L442.619096,40.9379434 C442.503288,41.8644032 442.097962,42.6268024 441.403117,43.2251411 C440.708272,43.8234797 439.916921,44.122649 439.029064,44.122649 L427.04299,44.122649 L425.942819,52.2291724 C425.827012,52.9240173 425.518192,53.4934041 425.016359,53.9373327 C424.514527,54.3812614 423.916188,54.6032257 423.221343,54.6032257 L414.362071,54.6032257 L415.809665,44.122649 L400.117751,44.122649 L400.349366,42.6750555 Z M430.227696,21.5401909 L429.127525,29.0676769 L430.111888,29.0676769 C430.729528,29.0676769 431.269963,28.8553632 431.733193,28.4307358 C432.196423,28.0061084 432.46664,27.504276 432.543845,26.9252386 L433.296594,21.5401909 L430.227696,21.5401909 Z M416.388702,29.0676769 L417.894199,29.0676769 L418.99437,21.5401909 L415.346435,21.5401909 L414.593686,26.9252386 C414.516481,27.504276 414.65159,28.0061084 414.999012,28.4307358 C415.307832,28.8553632 415.771062,29.0676769 416.388702,29.0676769 Z M385.178587,28.372832 C385.487407,28.758857 385.892733,28.9518694 386.394565,28.9518694 L400.638885,28.9518694 L398.091121,48.4654294 C397.859506,50.1639391 397.048853,51.6308338 395.659164,52.8661136 C394.346679,54.0241883 392.82188,54.6032257 391.084768,54.6032257 L374.176876,54.6032257 L374.350588,53.1556323 C374.504998,52.1519675 374.929625,51.3413151 375.62447,50.7236752 C376.319315,50.1060354 377.149268,49.7972154 378.114331,49.7972154 L384.657453,49.7972154 C385.390901,49.7972154 386.085745,49.5656005 386.741988,49.1023705 C387.359628,48.6391406 387.70705,48.0215008 387.784255,47.2494509 L389.463464,35.0896657 L378.693368,35.0896657 C377.573896,35.0896657 376.666737,34.6553877 375.971892,33.7868316 C375.277048,32.9182755 374.987529,31.8856589 375.103336,30.6889816 L377.651101,14.1285123 L386.973603,14.1285123 L384.831164,26.9831423 C384.753959,27.5621797 384.869767,28.0254096 385.178587,28.372832 Z M404.576339,0.0579037389 L402.781323,13.3757637 C402.588311,14.9198634 401.874165,16.2516494 400.638885,17.3711217 C399.403605,18.413389 398.033217,18.9345226 396.52772,18.9345226 L387.55264,18.9345226 L388.363293,14.1285123 L390.447827,14.1285123 C390.48643,14.1285123 390.505731,14.1285123 390.505731,14.1285123 C390.737346,14.1285123 390.95931,14.109211 391.171624,14.0706085 C391.383938,14.032006 391.567299,13.9354998 391.721709,13.7810898 C391.914722,13.6266799 392.069132,13.4722699 392.184939,13.3178599 C392.300747,13.16345 392.377952,12.9511363 392.416554,12.6809188 L393.458822,4.86391406 L381.762266,4.86391406 C379.600527,4.82531157 378.693368,3.80234552 379.040791,1.7950159 L379.330309,0.0579037389 L404.576339,0.0579037389 Z M415.983376,16.9078917 L419.631311,16.9078917 L420.557771,9.95944308 L416.967739,9.95944308 L415.983376,16.9078917 Z M430.864637,16.9078917 L433.933535,16.9078917 L434.917899,9.95944308 L431.849,9.95944308 L430.864637,16.9078917 Z" id="形状"></path>
                <path d="M479.677489,48.7549481 L491.895178,48.7549481 L494.269231,31.2101152 L480.719756,31.2101152 L481.182986,28.0254096 C481.298793,27.3691672 481.588312,26.8287323 482.051542,26.4041049 C482.514772,25.9794775 483.055207,25.7671638 483.672847,25.7671638 L495.021979,25.7671638 L496.990707,10.422673 L491.77937,10.422673 L491.547755,11.1754216 C490.85291,13.0283412 489.559727,14.3890791 487.668205,15.2576352 C485.776682,16.1261913 484.155378,16.5604693 482.804291,16.5604693 L479.214259,16.5604693 L484.078173,1.44759347 L494.442942,1.44759347 L493.111156,5.79037389 L497.569744,5.79037389 L498.032974,2.0845346 C498.148781,1.46689472 498.418999,0.965062314 498.843626,0.579037389 C499.268254,0.193012463 499.750785,0 500.29122,0 L509.671625,0 L508.918877,5.79037389 L522.29464,5.79037389 L521.947218,8.22233092 C521.870013,8.87857329 521.599796,9.39970694 521.136566,9.78573187 C520.711938,10.2103593 520.210106,10.422673 519.631068,10.422673 L508.281936,10.422673 L506.371112,25.7671638 L518.357186,25.7671638 L517.893956,28.604447 C517.816751,29.3764968 517.507931,29.9941367 516.967496,30.4573666 C516.427062,30.959199 515.809422,31.2101152 515.114577,31.2101152 L505.618364,31.2101152 L503.24431,48.7549481 L517.257015,48.7549481 L516.677978,53.213536 C516.600773,53.6381634 516.427062,53.9855859 516.156844,54.2558033 C515.886627,54.4874183 515.577807,54.6032257 515.230384,54.6032257 L475.218901,54.6032257 L475.508419,52.6344986 C475.662829,51.5150263 476.126059,50.5885665 476.898109,49.8551192 C477.670159,49.1216718 478.596619,48.7549481 479.677489,48.7549481 Z M460.80087,11.0596141 L454.431459,11.0596141 L449.567544,48.3496219 C453.852421,48.040802 456.380884,45.1649163 457.152934,39.7219649 L460.80087,11.0596141 Z M463.348634,54.6032257 L456.689704,54.6032257 L462.943308,3.47422433 C463.097718,2.54776451 463.503044,1.77571466 464.159287,1.15807478 C464.738324,0.540434896 465.471771,0.231614955 466.359629,0.231614955 L473.19227,0.231614955 L466.880762,51.1290014 C466.764955,52.1326662 466.359629,52.9626198 465.664784,53.6188622 C465.008541,54.2751046 464.236492,54.6032257 463.348634,54.6032257 Z M477.882473,11.6965552 L472.786944,11.6965552 L470.41289,32.0786713 C470.297083,33.3525536 470.625204,34.4913271 471.397254,35.4949919 C472.130701,36.4600542 473.095764,36.9425854 474.292441,36.9425854 L476.261168,36.9425854 L479.098451,13.2020525 C479.137054,12.777425 479.040548,12.4107014 478.808933,12.1018814 C478.577318,11.831664 478.268498,11.6965552 477.882473,11.6965552 Z" id="形状"></path>
                <path d="M541.750297,23.508918 L549.277783,23.508918 C550.127038,23.508918 550.870136,23.2193993 551.507077,22.6403619 C552.144018,22.0613245 552.539693,21.3085759 552.694103,20.3821161 L553.794274,11.8702665 L564.332755,11.8702665 C564.87319,11.8702665 565.33642,11.6965552 565.722445,11.3491328 C566.10847,11.0017104 566.340084,10.5384805 566.417289,9.95944308 L566.764712,7.35377483 L564.795985,7.35377483 L566.475193,0.98436356 L560.858531,0.98436356 C559.044213,0.98436356 557.731729,2.02663086 556.921076,4.11116546 L556.05252,7.35377483 L554.431216,7.35377483 L555.357675,0.173711217 L546.672115,0.173711217 C546.13168,0.173711217 545.66845,0.366723679 545.282425,0.752748605 C544.8964,1.13877353 544.645484,1.60200344 544.529676,2.14243834 L543.892735,7.35377483 L541.981912,7.35377483 L541.981912,4.63229911 C541.943309,3.59003181 541.595887,2.72147573 540.939644,2.02663086 C540.283402,1.33178599 539.47275,0.98436356 538.507687,0.98436356 L533.412158,0.98436356 L533.412158,7.35377483 L532.717313,7.35377483 C532.369891,7.35377483 532.061071,7.46958231 531.790854,7.70119727 C531.520636,7.93281222 531.366226,8.24163216 531.327624,8.62765709 L530.922298,11.8702665 L543.255794,11.8702665 L541.750297,23.508918 Z M541.287067,13.1441487 L534.454426,13.1441487 C533.566568,13.1441487 532.891025,13.6459811 532.427795,14.6496459 L529.358897,23.508918 L532.775217,23.508918 C535.709007,23.508918 537.909349,21.8876133 539.376243,18.6450039 L541.287067,13.1441487 Z M560.569012,54.4874183 L560.684819,53.7346697 C560.839229,52.3835824 560.588313,51.1579533 559.932071,50.0577822 C559.275828,48.9576112 558.330067,48.195212 557.094788,47.7705846 L553.678467,46.6125098 L557.326402,45.6281462 C558.05985,45.3965313 558.67749,44.9719038 559.179322,44.354264 C559.681155,43.6980216 559.989974,42.9645742 560.105782,42.1539219 L561.437568,31.7312489 L562.306124,31.7312489 C562.653546,31.7312489 562.962366,31.6057908 563.232584,31.3548746 C563.502801,31.1039584 563.676513,30.7854878 563.753717,30.3994629 L564.159044,27.1568535 L562.074509,27.1568535 L562.306124,25.3618376 L552.867815,25.3618376 C552.404585,25.3618376 551.999258,25.5258982 551.651836,25.8540194 C551.304414,26.1821406 551.0921,26.5971174 551.014895,27.0989498 L551.014895,27.1568535 L541.981912,27.1568535 L542.213527,25.3618376 L532.601506,25.3618376 C532.176879,25.3618376 531.810155,25.506597 531.501335,25.7961157 C531.192515,26.0856344 531.018804,26.4427074 530.980201,26.8673348 L530.922298,27.1568535 L529.995838,27.1568535 C529.687018,27.1568535 529.40715,27.272661 529.156234,27.504276 C528.905317,27.7358909 528.760558,28.0254096 528.721955,28.372832 L528.258726,31.7312489 L530.34326,31.7312489 L528.95357,42.2697294 C528.837763,43.0803817 528.95357,43.7752266 529.300993,44.354264 C529.648415,44.9719038 530.169549,45.3965313 530.864394,45.6281462 L534.164907,46.6125098 L529.706319,48.0021995 C527.312965,48.8514543 525.884672,50.5885665 525.421442,53.213536 L525.247731,54.4874183 L543.603216,49.449793 L560.569012,54.4874183 Z M544.355965,43.5436116 L540.881741,42.3276331 C540.302703,42.0960181 540.071088,41.6327882 540.186896,40.9379434 L541.402874,31.7312489 L550.377954,31.7312489 L549.161975,40.9379434 C549.08477,41.6327882 548.737348,42.0960181 548.119708,42.3276331 L544.355965,43.5436116 Z M563.811621,14.5338385 C563.773019,14.1478135 563.618609,13.8196923 563.348391,13.5494749 C563.078174,13.2792574 562.750053,13.1441487 562.364028,13.1441487 L555.415579,13.1441487 L555.994616,19.6872712 C556.110424,20.8067435 556.544702,21.7235527 557.297451,22.4376988 C558.050199,23.1518449 558.947707,23.508918 559.989974,23.508918 L564.622274,23.508918 L563.811621,14.5338385 Z M578.287556,17.2553142 C578.133146,16.5990718 577.833977,16.0779382 577.390048,15.6919132 C576.946119,15.3058883 576.415335,15.1128758 575.797695,15.1128758 L567.285846,15.1128758 L571.339107,35.2054732 L561.78499,54.6032257 L565.085503,54.6032257 C569.872213,54.6032257 573.674558,52.1712687 576.49254,47.3073546 L576.49254,47.3073546 L576.550444,47.4810659 C578.480568,52.2291724 581.530165,54.6032257 585.699235,54.6032257 L589.8104,54.6032257 L584.54116,36.4214517 L596.0061,9.03298326 L587.725865,9.03298326 C586.490586,9.03298326 585.544825,9.68922563 584.888582,11.0017104 L579.503534,23.3352068 L578.287556,17.2553142 Z M567.575364,11.754459 L573.944776,11.754459 C576.724155,11.754459 578.770087,10.2103593 580.082572,7.12215988 L580.082572,7.12215988 L593.284624,7.12215988 C594.211084,7.12215988 595.031387,6.80368932 595.745533,6.16674819 C596.459679,5.52980706 596.893957,4.69020285 597.048367,3.64793555 L597.164175,2.60566825 L581.645973,2.60566825 L582.514529,0 L573.018316,0 C572.091856,0 571.416312,0.501832403 570.991685,1.50549721 L567.575364,11.754459 Z" id="形状"></path>
                <path d="M663.290245,49.9709266 L666.069624,49.9709266 L665.722202,52.4028837 C665.644997,53.059126 665.365129,53.5899103 664.882597,53.9952365 C664.400066,54.4005627 663.849981,54.6032257 663.232341,54.6032257 L616.619831,54.6032257 L616.967253,52.1712687 C617.083061,51.5150263 617.37258,50.9842421 617.83581,50.5789159 C618.299039,50.1735897 618.839474,49.9709266 619.457114,49.9709266 L620.036152,49.9709266 L624.957969,15.1128758 C625.189584,13.3371612 626.019538,11.831664 627.44783,10.5963842 C628.83752,9.39970694 630.420222,8.80136831 632.195937,8.80136831 L637.870503,8.80136831 L636.480813,18.7608114 L655.704855,18.7608114 L656.168085,15.518202 C656.24529,14.9005621 656.09088,14.3794285 655.704855,13.9548011 C655.357432,13.5687761 654.894202,13.3757637 654.315165,13.3757637 L639.318097,13.3757637 C639.318097,13.3757637 639.318097,13.3757637 639.318097,13.3757637 C639.318097,13.3757637 639.318097,13.3757637 639.318097,13.3757637 L639.955038,8.80136831 L641.518439,8.80136831 L641.923765,5.84827762 L624.03151,5.84827762 L624.378932,3.70583929 C624.49474,2.97239193 624.803559,2.38370392 625.305392,1.93977525 C625.807224,1.49584659 626.405563,1.27388225 627.100408,1.27388225 L642.560706,1.27388225 L642.560706,1.27388225 C642.599309,0.887857329 642.753719,0.579037389 643.023936,0.347422433 C643.294153,0.115807478 643.622275,0 644.0083,0 L654.662587,0 L654.488876,1.27388225 L672.381132,1.27388225 L672.033709,3.47422433 C671.917902,4.1690692 671.609082,4.73845596 671.107249,5.18238463 C670.605417,5.62631329 670.007078,5.84827762 669.312233,5.84827762 L653.851935,5.84827762 L653.446609,8.80136831 L662.711207,8.80136831 C664.525524,8.80136831 665.953817,9.39970694 666.996084,10.5963842 C668.076954,11.831664 668.48228,13.3371612 668.212062,15.1128758 L663.290245,49.9709266 Z M609.208152,1.44759347 C609.78719,0.482531157 610.578541,0 611.582206,0 L622.410205,0 L615.577564,14.7654534 L618.646462,14.7654534 L613.029799,54.6032257 L601.043725,54.6032257 L606.023447,19.1661376 L600.34888,19.1661376 L609.208152,1.44759347 Z M655.067914,23.3352068 L635.785969,23.3352068 L635.091124,28.604447 L654.315165,28.604447 L655.067914,23.3352068 Z M653.678224,33.1788424 L634.454183,33.1788424 L633.64353,38.9113125 L652.867572,38.9113125 L653.678224,33.1788424 Z M652.23063,43.4857079 L633.006589,43.4857079 L632.080129,49.9709266 L651.304171,49.9709266 L652.23063,43.4857079 Z" id="形状"></path>
                <path d="M732.195694,19.0503301 L718.81993,19.0503301 L720.325427,13.9548011 L745.050324,13.9548011 L740.18641,48.0601032 C739.954795,49.7972154 739.124841,51.2834114 737.696549,52.5186911 C736.268257,53.7539709 734.646952,54.3716108 732.832635,54.3716108 L715.808936,54.3716108 L715.924743,53.5030547 C716.156358,52.2677749 716.735396,51.2448089 717.661855,50.4341565 C718.588315,49.6235042 719.669185,49.218178 720.904465,49.218178 L725.768379,49.218178 C726.347416,49.218178 726.86855,49.0251656 727.33178,48.6391406 C727.833612,48.2145132 728.123131,47.7126808 728.200336,47.1336434 L732.195694,19.0503301 Z M748.119222,5.50085519 C747.964812,6.27290504 747.588438,6.91949679 746.990099,7.44063044 C746.39176,7.96176409 745.687265,8.22233092 744.876613,8.22233092 L720.730754,8.22233092 L719.398968,12.5651113 L719.398968,12.5651113 L717.43024,18.5291964 L717.43024,18.5291964 L717.082818,19.51356 L717.082818,19.51356 L717.082818,19.51356 L707.586605,49.0444668 C705.9653,52.7503061 703.398234,54.6032257 699.885408,54.6032257 L693.458093,54.6032257 L708.397257,8.22233092 L700.23283,8.22233092 L700.464445,6.36941127 C700.580252,5.55875893 700.937325,4.90251656 701.535664,4.40068415 C702.134003,3.89885175 702.838498,3.64793555 703.649151,3.64793555 L718.81993,3.64793555 L719.341064,0 L728.25824,0 C729.068892,0 729.744436,0.299169317 730.28487,0.897507952 C730.825305,1.49584659 731.05692,2.21964332 730.979715,3.06889816 L730.863908,3.64793555 L748.350837,3.64793555 L748.119222,5.50085519 Z M683.672361,2.8372832 C684.75323,1.02296605 686.220125,0.115807478 688.073045,0.115807478 L697.569258,0.115807478 L690.273387,15.4602983 L693.689707,15.4602983 L688.130949,54.313707 L676.029067,54.313707 L680.950885,19.8609824 L675.218415,19.8609824 L683.672361,2.8372832 Z" id="形状"></path>
                <path d="M756.109938,44.5858789 L750.493275,54.6032257 L759.005125,54.6032257 C761.051057,54.6032257 762.691663,53.6188622 763.926943,51.6501351 L767.748589,44.5858789 L756.109938,44.5858789 Z M799.711453,2.25824582 L823.625697,2.25824582 L823.336179,4.28487668 C823.220371,4.82531157 822.979106,5.25958961 822.612382,5.5877108 C822.245658,5.91583199 821.792079,6.07989258 821.251644,6.07989258 L798.958705,6.07989258 L798.553379,8.33813839 L819.514532,8.33813839 C820.286582,8.33813839 820.904222,8.53115086 821.367452,8.91717578 C821.869284,9.30320071 822.081598,9.86293685 822.004393,10.5963842 L818.009035,39.2008312 L820.498896,39.2008312 L820.151473,41.690692 C820.035666,42.2311269 819.784749,42.6750555 819.398725,43.022478 C819.0127,43.3699004 818.54947,43.5436116 818.009035,43.5436116 L750.956505,43.5436116 L751.303928,41.0537508 C751.419735,40.513316 751.670651,40.0693873 752.056676,39.7219649 C752.442701,39.3745424 752.905931,39.2008312 753.446366,39.2008312 L755.299286,39.2008312 L759.294644,10.8279992 C759.410451,10.0945518 759.728922,9.49621317 760.250055,9.03298326 C760.771189,8.56975335 761.398479,8.33813839 762.131927,8.33813839 L772.265081,8.33813839 L771.049103,16.849988 L808.80234,16.849988 L809.381378,12.6809188 L773.712675,12.6809188 L774.291712,8.33813839 L784.251155,8.33813839 L784.540674,6.07989258 L759.815777,6.07989258 L760.105296,4.05326172 C760.182501,3.51282682 760.414116,3.07854878 760.800141,2.7504276 C761.186166,2.42230641 761.630094,2.25824582 762.131927,2.25824582 L785.119711,2.25824582 L785.177615,1.73711217 C785.25482,1.23527976 785.486435,0.810652344 785.87246,0.463229911 C786.258485,0.15440997 786.702413,0 787.204246,0 L800.058876,0 L799.711453,2.25824582 Z M803.648908,44.5858789 L805.501827,54.6032257 L817.487901,54.6032257 L816.329826,47.886392 C816.098211,46.9213297 815.61568,46.1299786 814.882233,45.5123387 C814.148786,44.8946989 813.299531,44.5858789 812.334468,44.5858789 L803.648908,44.5858789 Z M808.33911,20.2084049 L770.585873,20.2084049 L770.064739,23.9142441 L807.817977,23.9142441 L808.33911,20.2084049 Z M769.543605,27.6779872 L769.022472,31.4996339 L806.775709,31.4996339 L807.296843,27.6779872 L769.543605,27.6779872 Z M767.922301,39.2008312 L805.675538,39.2008312 L806.254576,35.2054732 L768.501338,35.2054732 L767.922301,39.2008312 Z" id="形状"></path>
                <path d="M881.066206,5.38504771 L881.703148,0 L898.147809,0 L891.836302,48.1759107 C891.566084,49.9902279 890.774733,51.4957251 889.462249,52.6924024 C888.111161,53.9662846 886.605664,54.6032257 884.945757,54.6032257 L866.242849,54.6032257 C864.582942,54.6032257 863.251156,53.9855859 862.247491,52.7503061 C861.205224,51.5150263 860.780597,50.0095291 860.973609,48.2338145 L867.400924,0 L878.923768,0 L872.612261,47.8284883 C872.496453,48.4075257 872.612261,48.8707556 872.959683,49.218178 C873.345708,49.5656005 873.808938,49.7393117 874.349373,49.7393117 L878.055212,49.7393117 C878.595647,49.7393117 879.097479,49.5656005 879.560709,49.218178 C879.792324,48.9865631 879.985337,48.7163456 880.139747,48.4075257 C880.216952,48.1759107 880.294157,47.9249945 880.371362,47.6547771 L886.045928,5.38504771 L881.066206,5.38504771 Z M835.843386,54.4874183 L841.749568,15.2286833 L831.790125,15.2286833 L832.02174,13.6073786 C832.17615,12.7195213 832.600777,11.9957246 833.295622,11.4359884 C833.990467,10.8762523 834.801119,10.5963842 835.727579,10.5963842 L842.444413,10.5963842 L843.312969,4.69020285 L833.816755,4.69020285 L834.04837,3.1268019 C834.20278,2.20034208 834.637058,1.44759347 835.351205,0.868556083 C836.065351,0.289518694 836.904955,0 837.870017,0 L864.216218,0 L863.984603,1.44759347 C863.830193,2.37405329 863.386265,3.14610314 862.652817,3.76374303 C861.91937,4.38138291 861.050814,4.69020285 860.047149,4.69020285 L854.083064,4.69020285 L853.214508,10.5963842 L863.116047,10.5963842 L862.884432,12.1597852 C862.730022,13.0476425 862.305395,13.7810898 861.61055,14.3601272 C860.915705,14.9391646 860.105053,15.2286833 859.178593,15.2286833 L852.519663,15.2286833 L846.903,52.6924024 C846.825795,53.2328373 846.58453,53.6671153 846.179204,53.9952365 C845.773878,54.3233577 845.300997,54.4874183 844.760562,54.4874183 L835.843386,54.4874183 Z M859.062786,18.0080628 C859.526016,18.0080628 859.921691,18.1721234 860.249812,18.5002446 C860.577933,18.8283658 860.722693,19.2240413 860.68409,19.6872712 L856.225502,54.4874183 L856.225502,54.4874183 C854.33398,54.4874183 852.78023,53.8311759 851.564251,52.5186911 C850.348273,51.2062064 849.817489,49.6428054 849.971899,47.8284883 L853.793545,18.0080628 L859.062786,18.0080628 Z M839.607129,18.0080628 L834.395793,47.9442958 C834.04837,49.8744204 833.11226,51.447472 831.587462,52.6634505 C830.062663,53.879429 828.296599,54.4874183 826.289269,54.4874183 L826.289269,54.4874183 L832.311258,19.7451749 C832.388463,19.2433425 832.629729,18.8283658 833.035055,18.5002446 C833.440381,18.1721234 833.932563,18.0080628 834.5116,18.0080628 L839.607129,18.0080628 Z" id="形状"></path>
                <path d="M901.969456,54.6032257 L910.597113,54.6032257 C911.677983,54.6032257 912.604443,54.2654539 913.376493,53.5899103 C914.148543,52.9143667 914.631074,52.03616 914.824086,50.9552902 L919.803808,16.3867581 L916.329583,16.3867581 L923.914973,0 L912.334225,0 C911.600778,0 911.041042,0.366723679 910.655017,1.10017104 L901.042996,20.7874422 L906.83337,20.7874422 L901.969456,54.6032257 Z M917.777177,54.6032257 L921.772535,54.6032257 C926.868064,54.6032257 930.766916,52.0554612 933.46909,46.9599322 L947.829217,14.0706085 L970.295868,14.0706085 C971.222328,14.0706085 972.03298,13.7810898 972.727825,13.2020525 C973.42267,12.6230151 973.847297,11.8702665 974.001707,10.9438066 L974.175418,9.43830943 L969.948446,9.43830943 L970.18006,5.55875893 C970.218663,4.05326172 969.736132,2.78903009 968.732467,1.76606404 C967.728802,0.743097982 966.474221,0.231614955 964.968724,0.231614955 L959.004639,0.231614955 L958.483505,9.43830943 L949.682137,9.43830943 L952.461516,0 L942.791592,0 C941.247492,0 940.12802,0.810652344 939.433175,2.43195703 L937.348641,9.43830943 L928.894695,9.43830943 C927.968235,9.43830943 927.167233,9.73747875 926.49169,10.3358174 C925.816146,10.934156 925.401169,11.6965552 925.246759,12.6230151 L925.015144,14.0706085 L935.437817,14.0706085 L917.777177,54.6032257 Z M952.403613,54.6032257 L967.921815,54.6032257 L967.921815,54.6032257 C968.037622,53.367946 967.6902,52.2967268 966.879547,51.3895682 C966.068895,50.4824097 965.045929,50.0288304 963.810649,50.0288304 L960.336425,50.0288304 C959.757387,50.0288304 959.274856,49.8165167 958.888831,49.3918892 C958.502806,49.0058643 958.367698,48.5040319 958.483505,47.886392 L962.884189,16.9657955 L952.171998,16.9657955 C951.708768,16.9657955 951.303442,17.1105548 950.956019,17.4000735 C950.608597,17.6895922 950.396283,18.0659665 950.319078,18.5291964 L946.207913,47.4810659 C945.937695,49.4883955 946.400925,51.1869051 947.597602,52.5765949 C948.79428,53.9276821 950.396283,54.6032257 952.403613,54.6032257 Z" id="形状"></path>
                <path d="M1001.62179,19.3398488 C1000.73393,19.5714637 1000.1935,20.1311999 1000.00049,21.0190572 L999.189834,26.4620087 L1011.17591,24.0300516 L1007.70168,47.7705846 C1007.43147,49.5076967 1007.87539,50.9552902 1009.03347,52.113365 C1010.15294,53.3100422 1011.61984,53.9083809 1013.43415,53.9083809 L1042.61764,53.9083809 L1042.61764,53.8504771 C1042.77205,52.6151974 1042.44393,51.5536288 1041.63327,50.6657715 C1040.82262,49.7779142 1039.78035,49.3339855 1038.50647,49.3339855 L1022.23552,49.3339855 C1021.61788,49.3339855 1021.11605,49.1216718 1020.73002,48.6970444 C1020.3826,48.272417 1020.24749,47.7705846 1020.3247,47.1915472 L1024.08844,21.5401909 L1040.35939,18.2396777 C1044.87588,17.1202055 1047.55876,14.3794285 1048.40801,10.0173468 L1048.40801,10.0173468 L1025.0728,14.7075497 L1027.27315,0 L1016.96628,0 C1016.34864,0 1015.79856,0.202663086 1015.31602,0.607989258 C1014.83349,1.01331543 1014.53432,1.52479846 1014.41852,2.14243834 L1012.21817,17.2553142 L1001.62179,19.3398488 Z M989.462006,0.231614955 L1000.86904,0.231614955 L992.994134,15.6919132 L996.526262,15.6919132 L990.446369,52.4028837 C990.330562,53.0205235 990.031392,53.5416572 989.548861,53.9662846 C989.06633,54.390912 988.496943,54.6032257 987.840701,54.6032257 L977.533835,54.6032257 L983.266305,20.3821161 L977.360124,20.3821161 L987.145856,1.67920843 C987.686291,0.714146113 988.458341,0.231614955 989.462006,0.231614955 Z" id="形状"></path>
                <path d="M1070.81676,10.422673 L1052.46127,10.422673 L1051.94014,13.7810898 C1051.90154,14.3215247 1052.03665,14.7654534 1052.34547,15.1128758 C1052.65429,15.4602983 1053.07891,15.6340095 1053.61935,15.6340095 L1056.68825,15.6340095 L1051.65062,50.0867341 C1051.45761,51.4378213 1051.80503,52.5572936 1052.69289,53.445151 C1053.58075,54.2944058 1054.73882,54.6804307 1056.16711,54.6032257 L1069.02174,53.9083809 L1069.36917,51.5343276 C1069.44637,50.9166877 1069.29196,50.4148553 1068.90594,50.0288304 C1068.51991,49.6814079 1068.01808,49.526998 1067.40044,49.5656005 L1066.24236,49.6235042 C1065.97215,49.7007092 1065.72123,49.6428054 1065.48961,49.449793 C1065.2966,49.295383 1065.2194,49.0830693 1065.258,48.8128519 L1070.81676,10.422673 Z M1070.06401,0.52113365 C1069.63938,0.173711217 1069.13755,0 1068.55851,0 L1058.36745,0 L1058.59907,8.0486197 L1070.87466,8.0486197 L1070.64305,2.02663086 C1070.64305,1.40899098 1070.45003,0.907158575 1070.06401,0.52113365 Z M1121.0772,28.7202545 C1121.92646,28.0640121 1122.42829,27.2147573 1122.5827,26.17249 L1123.21964,21.5401909 L1074.23308,21.5401909 L1074.05937,22.4087469 C1073.94356,23.4510142 1074.21378,24.3485222 1074.87002,25.1012708 C1075.52626,25.8540194 1076.37552,26.2303937 1077.41778,26.2303937 L1106.89079,26.2303937 L1096.41021,34.1053022 L1091.19887,29.5888106 L1075.33325,29.5888106 L1086.914,40.7063284 L1071.10628,54.6032257 L1083.20816,54.6032257 C1085.98754,54.6032257 1088.5546,53.7539709 1090.90936,52.0554612 L1095.88908,48.0021995 L1099.82653,51.5343276 C1102.18128,53.5802597 1104.86416,54.6032257 1107.87515,54.6032257 L1121.54043,54.6032257 L1105.38529,40.7642322 L1121.0772,28.7202545 Z M1091.77791,0 L1078.05473,0 L1075.10164,19.3977525 L1082.05008,19.3977525 C1083.903,19.3977525 1085.56291,18.8766189 1087.02981,17.8343516 C1088.4967,16.8306868 1089.36526,15.440997 1089.63547,13.6652824 L1091.77791,0 Z M1123.74078,14.7075497 C1123.35475,14.7075497 1123.02663,14.5724409 1122.75641,14.3022235 C1122.5248,13.9934036 1122.42829,13.6459811 1122.46689,13.2599562 L1124.55143,0 L1093.22551,0 L1092.29905,6.19570006 L1110.94405,6.19570006 L1109.78597,13.6652824 C1109.51576,15.440997 1109.97899,16.8306868 1111.17566,17.8343516 C1112.37234,18.8766189 1113.87784,19.3977525 1115.69216,19.3977525 L1124.0882,19.3977525 L1124.72514,14.7075497 L1123.74078,14.7075497 Z" id="形状"></path>
                <path d="M1140.64867,48.4654294 C1140.45566,48.3110194 1140.37845,48.0987057 1140.41705,47.8284883 L1145.7442,12.6809188 L1127.50452,12.6809188 L1126.92548,16.6762768 C1126.80967,17.4097241 1126.98339,18.027364 1127.44662,18.5291964 C1127.90985,19.0310288 1128.52749,19.281945 1129.29953,19.281945 L1132.48424,19.281945 L1127.79404,50.0867341 C1127.56242,51.4378213 1127.90985,52.5572936 1128.8363,53.445151 C1129.72416,54.2944058 1130.94014,54.6804307 1132.48424,54.6032257 L1144.99145,53.9662846 L1145.57049,50.3762528 C1145.60909,49.8358179 1145.45468,49.3918892 1145.10726,49.0444668 C1144.79844,48.6970444 1144.33521,48.5233332 1143.71757,48.5233332 L1141.45932,48.6391406 C1141.1505,48.7163456 1140.88028,48.6584419 1140.64867,48.4654294 Z M1142.03836,0 L1135.03201,0 L1135.03201,9.90153934 L1146.32323,9.90153934 L1146.32323,3.8795505 C1146.32323,2.76007822 1145.91791,1.8336184 1145.10726,1.10017104 C1144.2966,0.366723679 1143.27364,0 1142.03836,0 Z M1166.76325,24.4353778 L1162.18886,54.545322 L1176.7227,54.545322 L1181.29709,24.4353778 L1196.29416,24.4353778 C1197.06621,24.4353778 1197.76106,24.2037628 1198.3787,23.7405329 C1198.95773,23.277303 1199.30516,22.6789644 1199.42096,21.945517 L1200,18.181774 L1182.28146,18.181774 L1185.00293,0 L1173.5959,0 C1172.70804,0 1171.93599,0.270217448 1171.27975,0.810652344 C1170.6235,1.35108724 1170.21818,2.04593211 1170.06377,2.89518694 L1167.68971,18.181774 L1152.0557,18.181774 C1151.32226,18.181774 1150.68532,18.413389 1150.14488,18.8766189 C1149.60445,19.3012463 1149.27632,19.8609824 1149.16052,20.5558273 L1148.58148,24.4353778 L1166.76325,24.4353778 Z" id="形状"></path>
            </g>
        </g>
    </g>
</svg>