<?xml version="1.0" encoding="UTF-8"?>
<svg width="581.475px" height="70.8px" viewBox="0 0 581.475 70.8" version="1.1" xmlns="http://www.w3.org/2000/svg" xmlns:xlink="http://www.w3.org/1999/xlink">
    <title>数值分析系统</title>
    <g id="页面-1" stroke="none" stroke-width="1" fill="none" fill-rule="evenodd">
        <g id="CDEM" transform="translate(-670.175000, -279.775000)" fill="#FFFFFF" fill-rule="nonzero">
            <g id="数值分析系统" transform="translate(670.175000, 279.775000)">
                <path d="M21.375,30.45 L31.125,30.45 C32.225,30.45 33.1875,30.075 34.0125,29.325 C34.8375,28.575 35.35,27.6 35.55,26.4 L36.975,15.375 L50.625,15.375 C51.325,15.375 51.925,15.15 52.425,14.7 C52.925,14.25 53.225,13.65 53.325,12.9 L53.775,9.525 L51.225,9.525 L53.4,1.275 L46.125,1.275 C43.775,1.275 42.075,2.625 41.025,5.325 L39.9,9.525 L37.8,9.525 L39,0.225 L27.75,0.225 C27.05,0.225 26.45,0.475 25.95,0.975 C25.45,1.475 25.125,2.075 24.975,2.775 L24.15,9.525 L21.675,9.525 L21.675,6 C21.625,4.65 21.175,3.525 20.325,2.625 C19.475,1.725 18.425,1.275 17.175,1.275 L10.575,1.275 L10.575,9.525 L9.675,9.525 C9.225,9.525 8.825,9.675 8.475,9.975 C8.125,10.275 7.925,10.675 7.875,11.175 L7.35,15.375 L23.325,15.375 L21.375,30.45 Z M20.775,17.025 L11.925,17.025 C10.775,17.025 9.9,17.675 9.3,18.975 L5.325,30.45 L9.75,30.45 C13.55,30.45 16.4,28.35 18.3,24.15 L20.775,17.025 Z M45.75,70.575 L45.9,69.6 C46.1,67.85 45.775,66.2625 44.925,64.8375 C44.075,63.4125 42.85,62.425 41.25,61.875 L36.825,60.375 L41.55,59.1 C42.5,58.8 43.3,58.25 43.95,57.45 C44.6,56.6 45,55.65 45.15,54.6 L46.875,41.1 L48,41.1 C48.45,41.1 48.85,40.9375 49.2,40.6125 C49.55,40.2875 49.775,39.875 49.875,39.375 L50.4,35.175 L47.7,35.175 L48,32.85 L35.775,32.85 C35.175,32.85 34.65,33.0625 34.2,33.4875 C33.75,33.9125 33.475,34.45 33.375,35.1 L33.375,35.175 L21.675,35.175 L21.975,32.85 L9.525,32.85 C8.975,32.85 8.5,33.0375 8.1,33.4125 C7.7,33.7875 7.475,34.25 7.425,34.8 L7.35,35.175 L6.15,35.175 C5.75,35.175 5.3875,35.325 5.0625,35.625 C4.7375,35.925 4.55,36.3 4.5,36.75 L3.9,41.1 L6.6,41.1 L4.8,54.75 C4.65,55.8 4.8,56.7 5.25,57.45 C5.7,58.25 6.375,58.8 7.275,59.1 L11.55,60.375 L5.775,62.175 C2.675,63.275 0.825,65.525 0.225,68.925 L0,70.575 L23.775,64.05 L45.75,70.575 Z M24.75,56.4 L20.25,54.825 C19.5,54.525 19.2,53.925 19.35,53.025 L20.925,41.1 L32.55,41.1 L30.975,53.025 C30.875,53.925 30.425,54.525 29.625,54.825 L24.75,56.4 Z M49.95,18.825 C49.9,18.325 49.7,17.9 49.35,17.55 C49,17.2 48.575,17.025 48.075,17.025 L39.075,17.025 L39.825,25.5 C39.975,26.95 40.5375,28.1375 41.5125,29.0625 C42.4875,29.9875 43.65,30.45 45,30.45 L51,30.45 L49.95,18.825 Z M68.7,22.35 C68.5,21.5 68.1125,20.825 67.5375,20.325 C66.9625,19.825 66.275,19.575 65.475,19.575 L54.45,19.575 L59.7,45.6 L47.325,70.725 L51.6,70.725 C57.8,70.725 62.725,67.575 66.375,61.275 L66.375,61.275 L66.45,61.5 C68.95,67.65 72.9,70.725 78.3,70.725 L83.625,70.725 L76.8,47.175 L91.65,11.7 L80.925,11.7 C79.325,11.7 78.1,12.55 77.25,14.25 L70.275,30.225 L68.7,22.35 Z M54.825,15.225 L63.075,15.225 C66.675,15.225 69.325,13.225 71.025,9.225 L71.025,9.225 L88.125,9.225 C89.325,9.225 90.3875,8.8125 91.3125,7.9875 C92.2375,7.1625 92.8,6.075 93,4.725 L93.15,3.375 L73.05,3.375 L74.175,0 L61.875,0 C60.675,0 59.8,0.65 59.25,1.95 L54.825,15.225 Z" id="形状"></path>
                <path d="M178.8,64.725 L182.4,64.725 L181.95,67.875 C181.85,68.725 181.4875,69.4125 180.8625,69.9375 C180.2375,70.4625 179.525,70.725 178.725,70.725 L118.35,70.725 L118.8,67.575 C118.95,66.725 119.325,66.0375 119.925,65.5125 C120.525,64.9875 121.225,64.725 122.025,64.725 L122.775,64.725 L129.15,19.575 C129.45,17.275 130.525,15.325 132.375,13.725 C134.175,12.175 136.225,11.4 138.525,11.4 L145.875,11.4 L144.075,24.3 L168.975,24.3 L169.575,20.1 C169.675,19.3 169.475,18.625 168.975,18.075 C168.525,17.575 167.925,17.325 167.175,17.325 L147.75,17.325 C147.75,17.325 147.75,17.325 147.75,17.325 C147.75,17.325 147.75,17.325 147.75,17.325 L148.575,11.4 L150.6,11.4 L151.125,7.575 L127.95,7.575 L128.4,4.8 C128.55,3.85 128.95,3.0875 129.6,2.5125 C130.25,1.9375 131.025,1.65 131.925,1.65 L151.95,1.65 L151.95,1.65 C152,1.15 152.2,0.75 152.55,0.45 C152.9,0.15 153.325,0 153.825,0 L167.625,0 L167.4,1.65 L190.575,1.65 L190.125,4.5 C189.975,5.4 189.575,6.1375 188.925,6.7125 C188.275,7.2875 187.5,7.575 186.6,7.575 L166.575,7.575 L166.05,11.4 L178.05,11.4 C180.4,11.4 182.25,12.175 183.6,13.725 C185,15.325 185.525,17.275 185.175,19.575 L178.8,64.725 Z M108.75,1.875 C109.5,0.625 110.525,0 111.825,0 L125.85,0 L117,19.125 L120.975,19.125 L113.7,70.725 L98.175,70.725 L104.625,24.825 L97.275,24.825 L108.75,1.875 Z M168.15,30.225 L143.175,30.225 L142.275,37.05 L167.175,37.05 L168.15,30.225 Z M166.35,42.975 L141.45,42.975 L140.4,50.4 L165.3,50.4 L166.35,42.975 Z M164.475,56.325 L139.575,56.325 L138.375,64.725 L163.275,64.725 L164.475,56.325 Z" id="形状"></path>
                <path d="M201.525,21.9 L211.5,21.975 C216.5,22.025 220.275,19.85 222.825,15.45 L231.525,0.225 L217.275,0.225 C215.725,0.225 214.475,1 213.525,2.55 L201.525,21.9 Z M277.725,62.475 L282.525,27.675 C282.625,27.025 282.475,26.4625 282.075,25.9875 C281.675,25.5125 281.15,25.275 280.5,25.275 L202.05,25.275 L201.525,28.425 C201.025,31.275 202.125,32.675 204.825,32.625 L217.65,32.625 L195.3,70.725 L196.5,70.725 C205.65,70.725 213.15,65.95 219,56.4 L233.625,32.625 L266.625,32.625 L262.725,60.675 C262.625,61.475 262.275,62.125 261.675,62.625 C261.075,63.125 260.425,63.375 259.725,63.375 L250.05,63.375 C248.5,63.375 247.125,63.925 245.925,65.025 C244.725,66.125 244,67.475 243.75,69.075 L243.45,70.725 L268.5,70.725 C270.8,70.725 272.825,69.925 274.575,68.325 C276.375,66.675 277.425,64.725 277.725,62.475 Z M268.95,13.875 C270.5,19.025 273.7,21.7 278.55,21.9 L288.45,21.9 L282,3.075 C281.3,1.025 279.925,0 277.875,0 L264,0 L268.95,13.875 Z" id="形状"></path>
                <path d="M326.25,0 L325.5,6.15 L336.975,6.15 L336.45,9.9 C336.35,10.6 336.0625,11.1625 335.5875,11.5875 C335.1125,12.0125 334.575,12.225 333.975,12.225 L324.675,12.225 L317.325,67.725 C317.175,68.625 316.7875,69.3625 316.1625,69.9375 C315.5375,70.5125 314.8,70.8 313.95,70.8 L303.15,70.8 L310.875,12.225 L300,12.225 L300.525,8.25 C300.625,7.6 300.8875,7.0875 301.3125,6.7125 C301.7375,6.3375 302.225,6.15 302.775,6.15 L311.7,6.15 L312.225,2.325 C312.325,1.675 312.6125,1.125 313.0875,0.675 C313.5625,0.225 314.1,0 314.7,0 L326.25,0 Z M292.05,70.8 L300.15,18.225 C300.3,17.525 300.6125,16.9625 301.0875,16.5375 C301.5625,16.1125 302.1,15.9 302.7,15.9 L308.85,15.9 L301.35,64.875 C301.05,66.625 300.275,68.05 299.025,69.15 C297.775,70.25 296.35,70.8 294.75,70.8 L292.05,70.8 Z M326.175,15.9 L332.55,15.9 C333.1,15.9 333.5375,16.1 333.8625,16.5 C334.1875,16.9 334.325,17.375 334.275,17.925 L328.275,70.8 L328.275,70.8 C326.075,70.8 324.25,69.9375 322.8,68.2125 C321.35,66.4875 320.725,64.425 320.925,62.025 L326.175,15.9 Z M386.325,1.875 C386.075,3.475 385.3875,4.7875 384.2625,5.8125 C383.1375,6.8375 381.825,7.35 380.325,7.35 L358.05,7.35 L358.725,1.875 L386.325,1.875 L386.325,1.875 Z M356.475,1.875 L354.3,18.375 L384.15,18.375 L383.325,24.45 L378.75,24.45 L372.6,70.8 L358.275,70.8 L364.35,24.45 L353.475,24.45 L348.45,62.7 C348.15,64.95 347.175,66.875 345.525,68.475 C343.925,70.025 342.025,70.8 339.825,70.8 L333,70.8 L341.7,4.875 C341.85,3.975 342.225,3.25 342.825,2.7 C343.425,2.15 344.125,1.875 344.925,1.875 L356.475,1.875 Z" id="形状"></path>
                <path d="M464.4,38.55 C464.5,39.35 464.8125,40 465.3375,40.5 C465.8625,41 466.5,41.25 467.25,41.25 L478.275,41.25 L476.7,29.1 C476.4,26.95 475.525,25.175 474.075,23.775 C472.625,22.375 470.925,21.675 468.975,21.675 L462.375,21.675 L463.425,31.2 L439.125,32.4 L460.275,8.475 L448.875,8.475 C447.725,8.475 446.65,8.9 445.65,9.75 L437.175,17.775 L418.275,18.975 C417.825,19.125 417.55,18.975 417.45,18.525 C417.3,18.225 417.375,17.875 417.675,17.475 L426.6,6.225 L478.275,6.225 C479.525,6.225 480.6375,5.7625 481.6125,4.8375 C482.5875,3.9125 483.175,2.75 483.375,1.35 L483.525,0.075 L403.425,0.075 C402.125,0.075 401,0.5375 400.05,1.4625 C399.1,2.3875 398.5,3.575 398.25,5.025 L398.1,6.225 L410.925,6.225 L399.9,19.275 C399.35,19.775 398.975,20.45 398.775,21.3 C398.625,22.15 398.625,22.95 398.775,23.7 C398.975,24.45 399.35,25.075 399.9,25.575 C400.4,26.125 401.125,26.375 402.075,26.325 L430.65,24.225 L421.725,33.3 L398.175,34.425 C397.075,34.475 396.15,34.8875 395.4,35.6625 C394.65,36.4375 394.175,37.425 393.975,38.625 L393.75,40.65 L428.925,39 L426,61.8 C425.9,62.55 425.575,63.225 425.025,63.825 C424.475,64.375 423.825,64.65 423.075,64.65 L420,64.65 C418.6,64.65 417.3875,65.1375 416.3625,66.1125 C415.3375,67.0875 414.7,68.35 414.45,69.9 L414.375,70.725 L431.775,70.725 C433.875,70.725 435.775,69.925 437.475,68.325 C439.225,66.675 440.25,64.7 440.55,62.4 L443.625,38.25 L464.25,37.2 L464.4,38.55 Z M389.85,70.725 L394.725,70.725 C399.975,70.725 403.925,67.775 406.575,61.875 L413.4,43.05 L404.025,43.05 C401.675,43.05 399.9,44.35 398.7,46.95 L389.85,70.725 Z M459.675,58.35 C460.125,61.95 461.5375,64.9125 463.9125,67.2375 C466.2875,69.5625 469.1,70.725 472.35,70.725 L474.45,70.725 L471.9,48.525 C471.7,46.925 471.0625,45.6125 469.9875,44.5875 C468.9125,43.5625 467.675,43.05 466.275,43.05 L458.1,43.05 L459.675,58.35 Z" id="形状"></path>
                <path d="M562.125,34.35 L576.525,34.35 L576.6,22.875 C576.55,19.825 575.5375,17.25 573.5625,15.15 C571.5875,13.05 569.175,12 566.325,12 L562.35,12 L561.825,25.575 L544.275,27.075 C543.625,27.125 543.175,26.875 542.925,26.325 C542.675,25.825 542.675,25.275 542.925,24.675 L550.425,8.775 L577.875,8.775 C578.675,8.775 579.375,8.5125 579.975,7.9875 C580.575,7.4625 580.95,6.775 581.1,5.925 L581.475,2.85 L562.425,2.85 L562.425,2.85 C562.525,2.05 562.3375,1.375 561.8625,0.825 C561.3875,0.275 560.775,0 560.025,0 L547.8,0 L547.425,2.85 L531.075,2.85 C530.275,2.85 529.575,3.1125 528.975,3.6375 C528.375,4.1625 528.025,4.85 527.925,5.7 L527.475,8.775 L535.575,8.775 L527.1,26.85 C526.7,27.8 526.55,28.7 526.65,29.55 C526.7,30.45 526.925,31.25 527.325,31.95 C527.775,32.65 528.375,33.2 529.125,33.6 C529.875,34 530.725,34.175 531.675,34.125 L562.125,31.575 L562.125,34.35 Z M520.35,70.725 L520.35,70.725 C529.3,70.725 535.925,65.825 540.225,56.025 L546.375,37.35 L534.825,37.35 C532.825,37.35 531.35,38.45 530.4,40.65 L520.35,70.725 Z M557.475,37.35 C556.725,37.35 556.075,37.6 555.525,38.1 C554.975,38.6 554.625,39.25 554.475,40.05 L551.475,62.7 C551.125,65 551.625,66.925 552.975,68.475 C554.325,69.975 556.1,70.725 558.3,70.725 L574.725,70.725 L574.725,70.725 C574.875,69.075 574.4625,67.6625 573.4875,66.4875 C572.5125,65.3125 571.275,64.725 569.775,64.725 L568.8,64.725 C568.05,64.725 567.475,64.45 567.075,63.9 C566.625,63.4 566.45,62.75 566.55,61.95 L569.85,37.35 L557.475,37.35 Z M488.85,63.3 C489.55,62.65 490.3,62.275 491.1,62.175 L517.425,59.925 L516.45,65.325 C516.35,65.975 516.025,66.575 515.475,67.125 C515.025,67.625 514.5,67.925 513.9,68.025 L486.975,70.35 L487.8,65.625 C487.95,64.725 488.3,63.95 488.85,63.3 Z M518.4,42.9 C518.95,42.9 519.375,43.05 519.675,43.35 C519.825,43.75 519.85,44.25 519.75,44.85 L518.325,51.675 L491.625,54.675 C490.775,54.725 490.2,54.4 489.9,53.7 C489.5,52.95 489.5,52.175 489.9,51.375 L504.225,28.425 L492.75,28.425 C491.9,28.425 491.3,28.1 490.95,27.45 C490.55,26.8 490.575,26.075 491.025,25.275 L504,1.65 C504.55,0.65 505.575,0.15 507.075,0.15 L515.625,0.15 L504.15,21.3 C503.6,22.4 503.8,22.95 504.75,22.95 L507.375,22.95 L513.375,12.15 C514.025,11.1 514.75,10.575 515.55,10.575 L525.675,10.575 L506.85,42.75 L506.775,42.825 C506.575,43.175 506.475,43.475 506.475,43.725 C506.475,43.975 506.7,44.075 507.15,44.025 L518.4,42.9 Z" id="形状"></path>
            </g>
        </g>
    </g>
</svg>