<?xml version="1.0" encoding="UTF-8"?>
<svg width="1200px" height="62.3651178px" viewBox="0 0 1200 62.3651178" version="1.1" xmlns="http://www.w3.org/2000/svg" xmlns:xlink="http://www.w3.org/1999/xlink">
    <title>工程材料和结构多尺度力学分析</title>
    <g id="页面-1" stroke="none" stroke-width="1" fill="none" fill-rule="evenodd">
        <g id="SiMech" transform="translate(-360.000000, -280.000000)" fill="#FFFFFF" fill-rule="nonzero">
            <g id="工程材料和结构多尺度力学分析" transform="translate(360.000000, 280.000000)">
                <path d="M14.4021141,0 L83.439771,0 L82.8451883,4.42633781 C82.7130588,5.30720106 82.3386919,6.01189165 81.7220876,6.5404096 C81.1054834,7.06892755 80.3787712,7.33318652 79.5419511,7.33318652 L54.1730896,7.33318652 L47.1702268,54.8998018 L79.8722748,54.8998018 L79.3437569,59.4582691 C79.2116274,60.3391323 78.8372605,61.0328122 78.2206562,61.5393085 C77.604052,62.0458049 76.8773398,62.2990531 76.0405197,62.2990531 L0,62.2990531 L0.594582691,57.8066505 C0.726712178,56.9257873 1.10107906,56.2210967 1.71768333,55.6925787 C2.3342876,55.1640608 3.06099978,54.8998018 3.89781986,54.8998018 L31.0504294,54.8998018 L38.0532922,7.33318652 L10.5042942,7.33318652 L11.0988769,2.77471922 C11.2310064,1.93789914 11.6053733,1.26624092 12.2219775,0.75974455 C12.8385818,0.253248183 13.565294,0 14.4021141,0 Z" id="路径"></path>
                <path d="M132.327681,20.4140057 C130.433825,20.4140057 128.892314,19.6872935 127.703149,18.2338692 C126.513984,16.7804448 126.05153,15.0187183 126.315789,12.9486897 L127.967408,0.528517948 L140.916098,0.528517948 L140.25545,5.68156794 L140.25545,5.74763268 L139.991191,7.66351024 L139.925127,7.86170447 L139.330544,12.5523013 C139.242458,13.301035 139.41863,13.9176393 139.859062,14.4021141 C140.299494,14.930632 140.850033,15.194891 141.51068,15.194891 L152.081039,15.194891 C152.741687,15.194891 153.33627,14.930632 153.864787,14.4021141 C154.349262,13.9176393 154.635543,13.301035 154.723629,12.5523013 L155.648536,5.74763268 L142.237393,5.74763268 L142.89804,0.528517948 L169.257873,0.528517948 L167.606254,12.9486897 C167.386038,15.0187183 166.527197,16.7804448 165.029729,18.2338692 C163.576305,19.6872935 161.858621,20.4140057 159.876679,20.4140057 L132.327681,20.4140057 Z M85.6859723,62.1008588 L92.4245761,18.8284519 L99.9559568,18.8284519 L94.4725831,54.1730896 C94.0761947,56.4633341 93.0411804,58.35719 91.3675402,59.8546576 C89.6939,61.3521251 87.800044,62.1008588 85.6859723,62.1008588 Z M115.415107,5.21911473 L114.688395,10.5042942 L125.192689,10.5042942 L124.92843,12.2219775 C124.7963,13.1909271 124.355869,14.0167364 123.607135,14.6994054 C122.858401,15.3820744 122.043603,15.7234089 121.162739,15.7234089 L114.027747,15.7234089 L108.21405,59.0618806 C108.08192,59.9427439 107.66351,60.6914776 106.95882,61.3080819 C106.254129,61.9246862 105.505395,62.2329883 104.712618,62.2329883 L95.8599427,62.2329883 L102.070029,15.7234089 L91.6317992,15.7234089 L92.0281876,12.618366 C92.1162739,12.0017617 92.3915437,11.4952654 92.8539969,11.0988769 C93.3164501,10.7024884 93.8559789,10.5042942 94.4725831,10.5042942 L102.796741,10.5042942 L103.457388,5.21911473 L93.4155472,5.21911473 C93.635763,3.63356089 94.2964105,2.36731997 95.3974895,1.42039198 C96.4985686,0.473463995 97.7317771,0 99.0971152,0 L125.985466,0 C125.76525,1.49746752 125.104603,2.74168685 124.003523,3.732658 C122.902444,4.72362916 121.669236,5.21911473 120.303898,5.21911473 L115.415107,5.21911473 Z M115.150848,18.8284519 L122.748293,18.8284519 L117.859502,62.1669236 C115.745431,62.1669236 114.049769,61.3961682 112.772517,59.8546576 C111.495265,58.3131469 110.966747,56.4192909 111.186963,54.1730896 L115.150848,18.8284519 Z M166.284959,26.6240916 C166.196873,27.2406959 165.932614,27.758203 165.492182,28.1766131 C165.051751,28.5950231 164.545254,28.8042281 163.972693,28.8042281 L151.552521,28.8042281 L150.297291,38.1854217 L164.236952,38.1854217 L163.840564,41.2243999 C163.752477,41.8410042 163.477208,42.3585113 163.014754,42.7769214 C162.552301,43.1953314 162.034794,43.4045364 161.462233,43.4045364 L149.636644,43.4045364 L147.852896,56.4853556 L162.321075,56.4853556 L161.924686,59.1940101 C161.8366,59.8987007 161.528298,60.4932834 160.99978,60.9777582 C160.471262,61.462233 159.876679,61.7044704 159.216032,61.7044704 L119.312927,61.7044704 L119.77538,58.3351685 C119.863466,57.8066505 120.094693,57.3662189 120.46906,57.0138736 C120.843427,56.6615283 121.272847,56.4853556 121.757322,56.4853556 L134.904206,56.4853556 L136.687954,43.4045364 L122.748293,43.4045364 L123.210747,40.0352345 C123.298833,39.5067166 123.530059,39.066285 123.904426,38.7139397 C124.278793,38.3615944 124.708214,38.1854217 125.192689,38.1854217 L137.348602,38.1854217 L138.669896,28.8042281 L124.201718,28.8042281 L124.664171,25.5670557 C124.752257,24.9944946 125.005505,24.5100198 125.423915,24.1136314 C125.842325,23.7172429 126.315789,23.5190487 126.844307,23.5190487 L166.681348,23.5190487 L166.284959,26.6240916 Z" id="形状"></path>
                <path d="M171.834398,62.0347941 L171.834398,62.0347941 C173.992513,62.0347941 175.875358,61.3190927 177.482933,59.8876899 C179.090509,58.4562872 180.136534,56.6174851 180.621009,54.3712839 L187.029289,15.1288262 L181.281656,15.1288262 C180.797181,15.1288262 180.36776,15.2829773 179.993394,15.5912795 C179.619027,15.8995816 179.3878,16.3179916 179.299714,16.8465096 L171.834398,62.0347941 Z M182.338692,62.0347941 L191.257432,62.0347941 C192.182339,62.0347941 192.997137,61.7154812 193.701828,61.0768553 C194.406518,60.4382295 194.824928,59.6124202 194.957058,58.5994274 L201.431403,10.6364237 L209.227043,10.6364237 C209.931733,10.6364237 210.548337,10.3941863 211.076855,9.90971152 C211.605373,9.42523673 211.935697,8.80863246 212.067826,8.0598987 L212.39815,5.41730896 L202.158115,5.41730896 L202.884827,0 L193.767893,0 C192.887029,0 192.105263,0.308302136 191.422594,0.924906408 C190.739925,1.54151068 190.310504,2.35630918 190.134332,3.36930192 L189.870073,5.41730896 L182.140498,5.41730896 C181.435807,5.41730896 180.808192,5.65954636 180.257652,6.14402114 C179.707113,6.62849593 179.365778,7.2451002 179.233649,7.99383396 L178.903325,10.6364237 L189.209425,10.6364237 L182.338692,62.0347941 Z M198.392425,54.3052191 C198.216252,56.4633341 198.777802,58.2911253 200.077076,59.7885928 C201.376349,61.2860603 203.016957,62.0347941 204.998899,62.0347941 L204.998899,62.0347941 L209.623431,17.3750275 C209.667474,16.7584233 209.502312,16.2299053 209.127945,15.7894737 C208.753579,15.3490421 208.280115,15.1288262 207.707553,15.1288262 L202.488439,15.1288262 L198.392425,54.3052191 Z M231.226602,15.5252147 L218.410042,15.5252147 L207.179035,62.2990531 L207.179035,62.2990531 C210.878661,62.2990531 214.192909,61.1098877 217.121779,58.7315569 C220.05065,56.3532262 222.021581,53.2261616 223.034574,49.3503634 L231.226602,15.5252147 Z M217.68333,5.94582691 C217.066725,5.94582691 216.527197,6.15503193 216.064743,6.57344197 C215.60229,6.99185201 215.32702,7.53138075 215.238934,8.19202819 L214.842546,11.1649416 L237.238494,11.1649416 L231.424796,54.8998018 C231.33671,55.5604492 231.028408,56.1330104 230.49989,56.6174851 C229.927329,57.1019599 229.332746,57.3441973 228.716142,57.3441973 L228.253689,57.3441973 C227.328782,57.3441973 226.536005,57.6524994 225.875358,58.2691037 C225.21471,58.885708 224.7963,59.6784849 224.620128,60.6474345 L224.421933,62.2990531 L235.52081,62.2990531 C237.678925,62.2990531 239.594803,61.5282977 241.268443,59.9867871 C242.89804,58.4012332 243.86699,56.4853556 244.175292,54.2391544 L249.988989,11.1649416 L252.433385,11.1649416 C253.049989,11.1649416 253.589518,10.9557366 254.051971,10.5373266 C254.514424,10.1189165 254.789694,9.5793878 254.87778,8.91874037 L255.274169,5.94582691 L250.715701,5.94582691 L251.508478,0.0660647434 L242.06122,0.0660647434 C241.136314,0.0660647434 240.310504,0.396388461 239.583792,1.0570359 C238.85708,1.71768333 238.427659,2.55450341 238.29553,3.56749615 L237.965206,5.94582691 L217.68333,5.94582691 Z" id="形状"></path>
                <path d="M275.423915,18.6302577 C275.379872,19.4230346 275.07157,20.0946928 274.499009,20.6452323 C273.926448,21.1957719 273.243779,21.4710416 272.451002,21.4710416 L266.901564,21.4710416 L267.958599,5.94582691 C268.090729,4.6685752 268.608236,3.58951773 269.511121,2.70865448 C270.414006,1.82779124 271.504074,1.38735961 272.781326,1.38735961 L276.679146,1.38735961 L275.423915,18.6302577 Z M299.273288,26.4919621 C299.185201,27.0645232 298.942964,27.5379872 298.546576,27.9123541 C298.150187,28.286721 297.665712,28.4739044 297.093151,28.4739044 L294.318432,62.0347941 C292.160317,62.0347941 290.376569,61.253028 288.967188,59.6894957 C287.557807,58.1259634 286.897159,56.2431183 286.985246,54.0409601 L289.165382,28.4078397 L287.381634,28.4078397 L283.021361,59.7885928 C282.889231,60.4932834 282.558908,61.0878661 282.03039,61.5723409 C281.501872,62.0568157 280.907289,62.2990531 280.246642,62.2990531 L271.261837,62.2990531 L276.018498,28.4078397 L274.300815,28.4078397 L269.21383,54.0409601 C268.685312,56.3752477 267.540189,58.2801145 265.778463,59.7555604 C264.016736,61.2310064 261.968729,61.9687294 259.634442,61.9687294 L266.240916,28.4078397 L264.325039,28.4078397 L264.787492,25.1706673 C264.875578,24.554063 265.128826,24.0475666 265.547236,23.6511782 C265.965646,23.2547897 266.483153,23.0565955 267.099758,23.0565955 L276.74521,23.0565955 L279.453865,3.96388461 C279.585994,2.99493504 280.004404,2.23519049 280.709095,1.68465096 C281.413786,1.13411143 282.228584,0.858841665 283.15349,0.858841665 L291.279454,0.858841665 L288.108346,23.0565955 L299.735741,23.0565955 L299.273288,26.4919621 Z M296.036115,21.4710416 L290.024224,21.4710416 L293.393526,5.61550319 C293.701828,4.38229465 294.329443,3.36930192 295.276371,2.57652499 C296.223299,1.78374807 297.313367,1.38735961 298.546576,1.38735961 L302.64259,1.38735961 L298.942964,19.0266461 C298.810835,19.7313367 298.4695,20.3149086 297.918961,20.7773618 C297.368421,21.239815 296.740806,21.4710416 296.036115,21.4710416 Z M297.621669,51.8608236 L320.678265,51.8608236 L319.22484,62.2990531 L330.455847,62.2990531 L331.909271,51.8608236 L335.608897,51.8608236 C336.093372,51.8608236 336.533803,51.684651 336.930192,51.3323057 C337.282537,50.9799604 337.502753,50.5615503 337.590839,50.0770755 L338.251486,45.4525435 L332.834177,45.4525435 L339.308522,0 L331.578947,0 C330.654041,0 329.817221,0.352345298 329.068487,1.0570359 C328.27571,1.71768333 327.835279,2.51046025 327.747192,3.43536666 L321.603171,45.4525435 L300.924906,45.4525435 C300.264259,45.4525435 299.669676,45.6727593 299.141158,46.1131909 C298.656684,46.5536226 298.348381,47.1041621 298.216252,47.7648095 L297.621669,51.8608236 Z M320.546135,37.855098 L322.065624,30.7861704 L301.38736,22.395948 C300.814799,26.9323937 302.51046,30.1695662 306.474345,32.1074653 L320.546135,37.855098 Z M322.924466,19.6872935 L324.37789,11.9577186 L304.624532,3.0389782 L304.426338,4.02994935 C304.029949,8.30213609 305.615503,11.3851575 309.182999,13.2790134 L322.924466,19.6872935 Z" id="形状"></path>
                <path d="M406.694561,6.14402114 L407.421273,0 L426.18366,0 L418.982603,54.9658665 C418.674301,57.0358952 417.771416,58.7535785 416.273948,60.1189165 C414.732438,61.5723409 413.014754,62.2990531 411.120898,62.2990531 L389.781986,62.2990531 C387.88813,62.2990531 386.368641,61.5943625 385.223519,60.1849813 C384.034354,58.7756001 383.549879,57.0579168 383.770095,55.0319313 L391.103281,0 L404.250165,0 L397.049108,54.5694781 C396.916979,55.2301255 397.049108,55.7586435 397.445497,56.1550319 C397.885928,56.5514204 398.414446,56.7496146 399.03105,56.7496146 L403.259194,56.7496146 C403.875798,56.7496146 404.448359,56.5514204 404.976877,56.1550319 C405.241136,55.890773 405.461352,55.5824708 405.637525,55.2301255 C405.725611,54.9658665 405.813697,54.679586 405.901784,54.3712839 L412.376129,6.14402114 L406.694561,6.14402114 Z M355.097996,62.1669236 L361.8366,17.3750275 L350.473464,17.3750275 L350.737723,15.5252147 C350.913896,14.512222 351.39837,13.6864127 352.191147,13.0477868 C352.983924,12.409161 353.908831,12.0898481 354.965867,12.0898481 L362.629377,12.0898481 L363.620348,5.35124422 L352.78573,5.35124422 L353.049989,3.56749615 C353.226162,2.51046025 353.721647,1.65161859 354.536446,0.990971152 C355.351244,0.330323717 356.309183,0 357.410262,0 L387.46972,0 L387.205461,1.65161859 C387.029289,2.70865448 386.522792,3.58951773 385.685972,4.29420832 C384.849152,4.99889892 383.858181,5.35124422 382.713059,5.35124422 L375.90839,5.35124422 L374.917419,12.0898481 L386.21449,12.0898481 L385.950231,13.8735961 C385.774059,14.8865889 385.289584,15.7234089 384.496807,16.3840564 C383.70403,17.0447038 382.779124,17.3750275 381.722088,17.3750275 L374.124642,17.3750275 L367.716362,60.1189165 C367.628276,60.7355208 367.353006,61.2310064 366.890553,61.6053733 C366.4281,61.9797401 365.888571,62.1669236 365.271967,62.1669236 L355.097996,62.1669236 Z M381.589958,20.5461352 C382.118476,20.5461352 382.569919,20.7333187 382.944285,21.1076855 C383.318652,21.4820524 383.483814,21.9334948 383.439771,22.4620128 L378.352786,62.1669236 L378.352786,62.1669236 C376.194671,62.1669236 374.421933,61.4181898 373.034574,59.9207223 C371.647214,58.4232548 371.041621,56.6395067 371.217793,54.5694781 L375.578067,20.5461352 L381.589958,20.5461352 Z M359.392204,20.5461352 L353.446377,54.7016076 C353.049989,56.9037657 351.981942,58.6985246 350.242237,60.0858842 C348.502532,61.4732438 346.487558,62.1669236 344.197313,62.1669236 L344.197313,62.1669236 L351.068047,22.5280775 C351.156133,21.9555164 351.431403,21.4820524 351.893856,21.1076855 C352.356309,20.7333187 352.91786,20.5461352 353.578507,20.5461352 L359.392204,20.5461352 Z" id="形状"></path>
                <path d="M511.869632,7.39925127 C511.781546,7.92776921 511.539309,8.37921163 511.14292,8.75357851 C510.746532,9.12794539 510.3061,9.31512883 509.821625,9.31512883 L495.221317,9.31512883 L493.833957,19.9515525 L509.293107,19.9515525 L508.434266,25.6991852 C508.390222,26.0515305 508.247082,26.3488218 508.004845,26.5910592 C507.762607,26.8332966 507.465316,26.9544153 507.112971,26.9544153 L464.831535,26.9544153 L465.492182,22.3298833 C465.580269,21.6692359 465.866549,21.1076855 466.351024,20.6452323 C466.835499,20.1827791 467.386038,19.9515525 468.002643,19.9515525 L481.215591,19.9515525 L482.602951,9.31512883 L466.681348,9.31512883 L467.341995,4.49240255 C467.386038,3.96388461 467.584233,3.53446377 467.936578,3.20414006 C468.288923,2.87381634 468.685312,2.70865448 469.125743,2.70865448 L483.461793,2.70865448 L483.593922,1.91587756 C483.682008,1.38735961 483.902224,0.95793878 484.254569,0.627615063 C484.606915,0.297291346 485.003303,0.132129487 485.443735,0.132129487 L496.410482,0.132129487 L496.014094,2.70865448 L512.464215,2.70865448 L511.869632,7.39925127 Z M478.837261,35.6088967 L479.630037,29.861264 L507.641489,29.861264 L504.206122,55.1640608 C503.941863,57.1019599 503.061,58.7756001 501.563532,60.1849813 C500.110108,61.5503193 498.458489,62.2329883 496.608677,62.2329883 L467.540189,62.2329883 C465.690377,62.2329883 464.192909,61.5503193 463.047787,60.1849813 C461.902665,58.7756001 461.440211,57.1019599 461.660427,55.1640608 L465.095794,29.861264 L478.176613,29.861264 L474.873376,54.2391544 C474.741246,54.8557586 474.851354,55.3842766 475.2037,55.8247082 C475.512002,56.2651398 475.974455,56.4853556 476.591059,56.4853556 L489.14336,56.4853556 C489.715922,56.4853556 490.288483,56.2651398 490.861044,55.8247082 C491.345519,55.3842766 491.653821,54.8557586 491.78595,54.2391544 L494.29641,35.6088967 L478.837261,35.6088967 Z M447.522572,36.2695442 C447.522572,36.3135873 447.522572,36.3356089 447.522572,36.3356089 C447.522572,36.3356089 447.522572,36.3356089 447.522572,36.3356089 C447.478529,36.3356089 447.456507,36.3356089 447.456507,36.3356089 C447.456507,36.3356089 447.456507,36.3576305 447.456507,36.4016736 C447.280335,36.6659326 447.192248,36.90817 447.192248,37.1283858 C447.192248,37.3486016 447.412464,37.436688 447.852896,37.3926448 L457.828672,36.4016736 C458.313147,36.4016736 458.687514,36.5338031 458.951773,36.7980621 C459.216032,37.1504074 459.304118,37.590839 459.216032,38.119357 L457.762607,43.8669896 L433.781105,46.3774499 C433.076415,46.4214931 432.547897,46.1352125 432.195552,45.5186082 C431.88725,44.902004 431.88725,44.2413565 432.195552,43.5366659 L445.144241,24.1136314 L434.772077,24.1136314 C434.023343,24.1136314 433.494825,23.8273508 433.186523,23.2547897 C432.878221,22.7262717 432.922264,22.1096675 433.318652,21.4049769 L444.946047,1.45342436 C445.386479,0.57256111 446.333407,0.132129487 447.786831,0.132129487 L455.450341,0.132129487 L445.078177,18.1017397 C444.593702,18.982603 444.769874,19.4230346 445.606695,19.4230346 L447.985025,19.4230346 L453.402334,10.2400352 C453.974895,9.40321515 454.635543,8.98480511 455.384277,8.98480511 L464.369082,8.98480511 L447.522572,36.2695442 Z M431.402775,53.7106364 C431.931293,53.2261616 432.569919,52.9398811 433.318652,52.8517948 L456.96983,50.8037877 L456.177054,55.4283198 C456.088967,56.044924 455.802687,56.573442 455.318212,57.0138736 C454.87778,57.4102621 454.371284,57.6524994 453.798723,57.7405858 L429.685091,59.7225281 L430.345739,55.7586435 C430.477868,54.9658665 430.830214,54.2831975 431.402775,53.7106364 Z" id="形状"></path>
                <path d="M569.676283,54.6355428 L579.057476,54.6355428 L580.114512,32.6359833 C580.158555,30.7421273 579.597005,29.1345519 578.429861,27.813257 C577.262717,26.4919621 575.798282,25.8313147 574.036556,25.8313147 L570.799383,25.8313147 L570.006606,46.3113852 L564.391103,47.1041621 C563.51024,47.2803347 563.245981,46.8839463 563.598326,45.9149967 L572.649196,15.6573442 L561.28606,15.6573442 L551.970932,45.9149967 C551.5305,47.4565074 551.354327,48.7337591 551.442414,49.7467518 C551.5305,50.8037877 551.860824,51.6185862 552.433385,52.1911473 C553.005946,52.8077516 553.776701,53.2041401 554.745651,53.3803127 C555.7146,53.5564854 556.837701,53.5344638 558.114953,53.314248 L569.808412,51.3983704 L569.676283,54.6355428 Z M573.243779,0.0660647434 L562.078837,0.0660647434 C561.242017,0.0660647434 560.603391,0.528517948 560.16296,1.45342436 L556.26514,12.2219775 L564.853556,12.2219775 C567.231887,12.2219775 569.037657,10.9006827 570.270865,8.25809293 L570.270865,8.25809293 L586.456728,8.25809293 L580.312706,54.6355428 C580.22462,55.2521471 579.916318,55.8026866 579.3878,56.2871614 C578.903325,56.7716362 578.352786,57.0138736 577.736181,57.0138736 L571.129707,57.0138736 C570.160758,57.0138736 569.334948,57.3441973 568.652279,58.0048447 C567.96961,58.6654922 567.540189,59.5023123 567.364017,60.515305 L567.165823,62.1008588 L584.474785,62.1008588 C586.368641,62.1008588 588.108346,61.5062762 589.6939,60.3171108 C591.279454,59.0839022 592.226382,57.3001542 592.534684,54.9658665 L598.74477,7.5974455 C598.876899,6.36423695 598.579608,5.29619027 597.852896,4.39330544 C597.126184,3.49042061 596.190266,3.0389782 595.045144,3.0389782 L572.120678,3.0389782 L573.243779,0.0660647434 Z M545.364457,0 L544.637745,5.35124422 L554.745651,5.35124422 L554.283198,8.72054614 C554.195111,9.29310725 553.941863,9.77758203 553.523453,10.1739705 C553.105043,10.570359 552.631579,10.7685532 552.103061,10.7685532 L543.911033,10.7685532 L537.502753,59.5903986 C537.370623,60.3831755 537.029289,61.0328122 536.478749,61.5393085 C535.92821,62.0458049 535.278573,62.2990531 534.529839,62.2990531 L525.016516,62.2990531 L531.821185,10.7685532 L522.241797,10.7685532 L522.70425,7.20105704 C522.792336,6.67253909 523.023563,6.23210747 523.39793,5.87976217 C523.772297,5.52741687 524.201718,5.35124422 524.686192,5.35124422 L532.547897,5.35124422 L533.01035,2.04800705 C533.098436,1.43140277 533.340674,0.935917199 533.737062,0.561550319 C534.133451,0.18718344 534.617926,0 535.190487,0 L545.364457,0 Z M515.304999,62.2990531 L522.439991,15.9876679 C522.528078,15.4151068 522.781326,14.9416428 523.199736,14.5672759 C523.618146,14.1929091 524.09161,14.0057256 524.620128,14.0057256 L530.037437,14.0057256 L523.430962,57.0799383 C523.166703,58.621449 522.495045,59.8766791 521.415988,60.8456287 C520.33693,61.8145783 519.070689,62.2990531 517.617265,62.2990531 L515.304999,62.2990531 Z M545.232328,14.0057256 L550.913896,14.0057256 C551.354327,14.0057256 551.717683,14.1818983 552.003964,14.5342436 C552.290244,14.8865889 552.411363,15.3049989 552.36732,15.7894737 L547.148205,62.2990531 L547.148205,62.2990531 C545.166263,62.2990531 543.547677,61.5393085 542.292447,60.0198194 C541.037216,58.5003303 540.497688,56.6835499 540.67386,54.5694781 L545.232328,14.0057256 Z" id="形状"></path>
                <path d="M602.048007,62.1669236 L602.048007,62.1669236 L662.629377,62.1669236 C664.611319,62.1669236 666.351024,61.5062762 667.848492,60.1849813 C669.345959,58.8196433 670.46906,57.1680247 671.217793,55.2301255 L679.211627,32.8341775 L621.338912,32.8341775 L622.792336,30.2576525 L610.702488,30.2576525 L603.76569,42.47963 L612.420172,42.47963 C614.578287,42.47963 616.406078,41.3345078 617.903545,39.0442634 L618.233869,38.6478749 L663.950672,38.6478749 L659.19401,52.3893416 C658.929751,53.1380753 658.48932,53.7987227 657.872715,54.3712839 C657.256111,54.8998018 656.573442,55.1640608 655.824708,55.1640608 L608.324158,55.1640608 C606.95882,55.1640608 605.626514,55.9348161 604.327241,57.4763268 C603.027967,59.0178375 602.268223,60.5813697 602.048007,62.1669236 Z M613.345078,22.9905307 C612.11187,22.9905307 611.076855,23.188725 610.240035,23.5851134 C609.403215,23.9815019 608.720546,24.4659767 608.192028,25.0385378 C607.66351,25.6110989 607.267122,26.18366 607.002863,26.7562211 C606.738604,27.3287822 606.55142,27.813257 606.441312,28.2096455 C606.331205,28.6060339 606.276151,28.8042281 606.276151,28.8042281 L667.187844,28.8042281 C669.125743,28.8042281 670.799383,28.1656023 672.208765,26.8883506 C673.618146,25.5670557 674.78529,24.0035235 675.710196,22.1977538 L684.166483,2.31226602 L626.095574,2.31226602 L627.350804,0.396388461 L615.260956,0.396388461 L608.91874,10.1079057 L618.167804,10.1079057 C620.017617,10.1079057 621.493063,9.38119357 622.594142,7.92776921 L622.594142,7.92776921 L668.575204,7.92776921 L663.422154,20.347941 C663.069808,21.0526316 662.629377,21.6692359 662.100859,22.1977538 C661.396168,22.7262717 660.339132,22.9905307 658.929751,22.9905307 L613.345078,22.9905307 Z M613.939661,12.4201718 L613.939661,12.4201718 C613.807531,13.9176393 614.137855,15.1728694 614.930632,16.1858621 C615.723409,17.1988549 616.824488,17.7493944 618.233869,17.8374807 L657.410262,19.3569698 L658.136974,14.1378551 L613.939661,12.4201718 Z M611.297071,43.7348602 L611.297071,43.7348602 C611.164942,45.2763708 611.495265,46.5646333 612.288042,47.5996477 C613.080819,48.634662 614.181898,49.2182339 615.591279,49.3503634 L654.569478,52.5875358 L655.164061,47.3684211 L611.297071,43.7348602 Z" id="形状"></path>
                <path d="M765.360053,24.6421493 C766.901564,23.2327681 767.804448,21.4930632 768.068707,19.4230346 L770.711297,0 L715.613301,0 L714.886589,5.35124422 L754.525435,5.35124422 L752.609557,19.7533583 C752.565514,20.1937899 752.36732,20.5901784 752.014975,20.9425237 C751.662629,21.2508258 751.244219,21.4049769 750.759745,21.4049769 L709.271086,21.4049769 L712.177934,0 L695.661749,0 L687.271526,62.2990531 L690.772957,62.2990531 C694.516626,62.2990531 697.77582,61.0878661 700.55054,58.6654922 C703.325259,56.2431183 704.998899,53.1160537 705.57146,49.2842986 L708.610438,26.8222858 L759.942744,26.8222858 C761.968729,26.8222858 763.774499,26.0955737 765.360053,24.6421493 Z M755.648536,29.4648756 L739.660868,29.4648756 L745.4085,51.0019819 C746.333407,54.3933054 748.161198,57.1239815 750.891874,59.1940101 C753.578507,61.2640388 756.639507,62.2990531 760.074873,62.2990531 L764.170887,62.2990531 L755.648536,29.4648756 Z" id="形状"></path>
                <path d="M795.089187,2.64258974 L787.822066,54.5034133 C787.513763,56.4853556 786.566835,58.1810174 784.981282,59.5903986 C783.351685,61.0438229 781.523893,61.7705351 779.497908,61.7705351 L772.957498,61.7705351 L773.882405,54.8998018 L774.675182,49.4164281 L781.215591,2.64258974 L795.089187,2.64258974 Z M829.707113,2.64258974 L856.859723,2.64258974 L856.661528,4.22814358 C856.485356,5.32922264 855.98987,6.23210747 855.175072,6.93679806 C854.360273,7.64148866 853.402334,7.99383396 852.301255,7.99383396 L797.005065,7.99383396 L797.731777,2.64258974 L816.4281,2.64258974 L816.758423,0 L827.791235,0 C828.363797,0 828.848271,0.231226602 829.24466,0.693679806 C829.641048,1.15613301 829.817221,1.69566175 829.773178,2.31226602 L829.707113,2.64258974 Z M850.583572,9.5793878 L849.988989,13.7414666 L855.340233,13.7414666 L855.00991,15.9876679 C854.87778,16.7364017 854.536446,17.3530059 853.985906,17.8374807 C853.435367,18.3219555 852.78573,18.5641929 852.036996,18.5641929 L849.328342,18.5641929 L848.60163,23.5190487 C848.425457,25.0605593 847.720766,26.3598326 846.487558,27.4168685 C845.298392,28.4739044 843.933054,29.0024224 842.391544,29.0024224 L803.611539,29.0024224 C802.070029,29.0024224 800.880863,28.4739044 800.044043,27.4168685 C799.119137,26.3598326 798.788813,25.0605593 799.053072,23.5190487 L799.779784,18.5641929 L794.494605,18.5641929 L794.890993,15.7234089 C794.979079,15.1508478 795.232328,14.6773838 795.650738,14.303017 C796.069148,13.9286501 796.542612,13.7414666 797.07113,13.7414666 L800.440432,13.7414666 L800.770755,11.4292006 C800.858842,10.9006827 801.101079,10.460251 801.497468,10.1079057 C801.893856,9.75556045 802.356309,9.5793878 802.884827,9.5793878 L814.380092,9.5793878 L813.78551,13.7414666 L836.709976,13.7414666 L836.974235,11.4292006 C837.062321,10.9006827 837.304558,10.460251 837.700947,10.1079057 C838.097335,9.75556045 838.559789,9.5793878 839.088307,9.5793878 L850.583572,9.5793878 Z M835.454746,22.3298833 L836.049328,18.5641929 L813.124862,18.5641929 L812.53028,22.3298833 C812.53028,22.5500991 812.54129,22.7372825 812.563312,22.8914336 C812.585334,23.0455847 812.662409,23.188725 812.794539,23.3208544 C812.926668,23.4970271 813.058798,23.607135 813.190927,23.6511782 C813.323057,23.6952213 813.499229,23.7172429 813.719445,23.7172429 L833.803127,23.7172429 C833.9793,23.7172429 834.155472,23.6952213 834.331645,23.6511782 C834.507818,23.607135 834.68399,23.4970271 834.860163,23.3208544 C835.080379,23.188725 835.223519,23.0455847 835.289584,22.8914336 C835.355649,22.7372825 835.410702,22.5500991 835.454746,22.3298833 Z M829.442854,50.0770755 L850.253248,62.2990531 L838.824048,62.2990531 C835.212508,62.2990531 831.777142,61.3741467 828.517948,59.5243338 L820.854437,55.097996 L811.14292,60.251046 C808.50033,61.6163841 805.70359,62.2990531 802.752698,62.2990531 L787.293548,62.2990531 L811.935697,49.6146223 L792.710857,38.2514865 L809.88769,38.2514865 L820.590178,44.4615723 L836.247523,36.0052852 L796.146223,36.0052852 C794.032152,36.0052852 793.107245,34.9922924 793.371504,32.966307 L793.635763,31.0504294 L852.565514,31.0504294 L852.036996,35.1464435 C851.81678,36.6879542 850.583572,38.119357 848.337371,39.4406518 L829.442854,50.0770755 Z" id="形状"></path>
                <path d="M876.216692,16.8465096 L859.039859,62.2990531 L863.994715,62.2990531 C871.041621,62.2990531 876.304779,58.6654922 879.784189,51.3983704 L892.931072,16.8465096 L924.972473,16.8465096 L919.885488,52.5875358 C919.797401,53.2922264 919.467078,53.8647875 918.894517,54.3052191 C918.365999,54.7456507 917.771416,54.9658665 917.110769,54.9658665 L908.390222,54.9658665 C907.112971,54.9658665 906.011892,55.3842766 905.086985,56.2210967 C904.162079,57.0138736 903.589518,58.0488879 903.369302,59.3261396 L902.972913,62.2990531 L927.548998,62.2990531 C929.619027,62.2990531 931.468839,61.5943625 933.098436,60.1849813 C934.68399,58.7756001 935.630918,57.0579168 935.93922,55.0319313 L942.47963,8.85267562 L896.036115,8.85267562 L899.537547,0 L882.426778,0 L878.991412,8.85267562 L865.382074,8.85267562 L865.117815,10.570359 C864.941643,12.2880423 865.404096,13.7634882 866.505175,14.9966968 C867.562211,16.2299053 868.927549,16.8465096 870.601189,16.8465096 L876.216692,16.8465096 Z" id="路径"></path>
                <path d="M953.049989,20.6782647 C953.578507,21.8674301 954.283198,22.8363797 955.164061,23.5851134 C956.088967,24.3338472 957.410262,24.708214 959.127945,24.708214 L996.058137,24.708214 L979.211627,33.6930192 L978.617045,36.4677384 L949.416428,36.4677384 C948.447479,36.4677384 947.610658,36.7099758 946.905968,37.1944506 C946.157234,37.6789253 945.694781,38.273508 945.518608,38.9781986 L944.924026,42.6117595 L977.493944,42.6117595 L974.983484,54.8337371 C974.895397,55.362255 974.587095,55.8247082 974.058577,56.2210967 C973.530059,56.7055715 972.957498,56.9478089 972.340894,56.9478089 L963.554283,56.9478089 C962.54129,56.9478089 961.660427,57.1460031 960.911693,57.5423915 C960.118917,57.93878 959.656463,58.5333627 959.524334,59.3261396 L958.995816,62.2990531 L982.845188,62.2990531 C984.783087,62.2990531 986.544814,61.7485135 988.130368,60.6474345 C989.671878,59.6344418 990.574763,58.4452764 990.839022,57.0799383 L993.745871,42.6117595 L1019.11473,42.6117595 C1020.12773,42.6117595 1021.00859,42.2814358 1021.75732,41.6207884 C1022.50606,41.0041841 1022.99053,40.2994935 1023.21075,39.5067166 L1023.80533,36.4677384 L994.868972,36.4677384 L1017.26492,25.6331205 C1018.14578,25.1486457 1018.76239,24.4439551 1019.11473,23.5190487 L1020.76635,18.6302577 L952.059018,18.6302577 L953.049989,20.6782647 Z M1024.53204,0.0660647434 L1013.23497,0.0660647434 C1011.1209,0.0220215811 1009.73354,0.132129487 1009.07289,0.396388461 C1007.61947,0.748733759 1006.56243,1.67364017 1005.90178,3.17110769 L1004.71262,5.81369742 L996.388461,5.81369742 L997.313367,0 L982.779124,0 C981.89826,0 981.105483,0.264258974 980.400793,0.792776921 C979.740145,1.32129487 979.321735,2.00396388 979.145563,2.84078397 L978.683109,5.81369742 L969.962563,5.81369742 L969.235851,0 L956.881744,0 C955.824708,0 954.943845,0.330323717 954.239154,0.990971152 C953.534464,1.69566175 953.226162,2.51046025 953.314248,3.43536666 L953.710636,5.81369742 L950.803788,5.81369742 C949.966968,5.81369742 949.240255,6.0779564 948.623651,6.60647434 C948.007047,7.09094913 947.63268,7.72957498 947.500551,8.5223519 L946.509579,16.3179916 L962.893636,16.3179916 L963.488218,11.4292006 L1008.47831,11.4292006 L1006.49637,16.3179916 L1021.49306,16.3179916 C1022.99053,16.3179916 1024.26778,15.9216032 1025.32482,15.1288262 C1026.4259,14.2920062 1027.10857,13.2129487 1027.37283,11.8916538 L1028.3638,5.81369742 L1021.95552,5.81369742 L1024.53204,0.0660647434 Z" id="形状"></path>
                <path d="M1037.21647,19.2909051 L1046.00308,19.3569698 C1050.4074,19.401013 1053.73266,17.4851354 1055.97886,13.6093372 L1063.64237,0.19819423 L1051.09007,0.19819423 C1049.72473,0.19819423 1048.62365,0.880863246 1047.78683,2.24620128 L1037.21647,19.2909051 Z M1104.33825,55.0319313 L1108.5664,24.3778903 C1108.65448,23.8053292 1108.52235,23.3098436 1108.17001,22.8914336 C1107.81766,22.4730236 1107.35521,22.2638185 1106.78265,22.2638185 L1037.67893,22.2638185 L1037.21647,25.0385378 C1036.77604,27.548998 1037.74499,28.7822066 1040.12332,28.7381634 L1051.42039,28.7381634 L1031.7331,62.2990531 L1032.79013,62.2990531 C1040.85003,62.2990531 1047.45651,58.0929311 1052.60956,49.6806871 L1065.49218,28.7381634 L1094.56067,28.7381634 L1091.1253,53.4463774 C1091.03722,54.151068 1090.72891,54.7236292 1090.2004,55.1640608 C1089.67188,55.6044924 1089.09932,55.8247082 1088.48271,55.8247082 L1079.96036,55.8247082 C1078.59502,55.8247082 1077.38384,56.309183 1076.3268,57.2781326 C1075.26976,58.2470821 1074.63114,59.4362475 1074.41092,60.8456287 L1074.14666,62.2990531 L1096.21229,62.2990531 C1098.23827,62.2990531 1100.02202,61.5943625 1101.56353,60.1849813 C1103.14909,58.7315569 1104.07399,57.0138736 1104.33825,55.0319313 Z M1096.60868,12.2219775 C1097.97401,16.7584233 1100.79278,19.1147324 1105.06496,19.2909051 L1113.78551,19.2909051 L1108.10394,2.70865448 C1107.48734,0.902884827 1106.27615,0 1104.47038,0 L1092.2484,0 L1096.60868,12.2219775 Z" id="形状"></path>
                <path d="M1147.08214,0 L1146.42149,5.41730896 L1156.5294,5.41730896 L1156.06695,8.72054614 C1155.97886,9.33715041 1155.72561,9.83263598 1155.3072,10.2070029 C1154.88879,10.5813697 1154.41533,10.7685532 1153.88681,10.7685532 L1145.69478,10.7685532 L1139.22044,59.6564633 C1139.08831,60.4492403 1138.74697,61.0988769 1138.19643,61.6053733 C1137.64589,62.1118696 1136.99626,62.3651178 1136.24752,62.3651178 L1126.7342,62.3651178 L1133.53887,10.7685532 L1123.95948,10.7685532 L1124.42193,7.26712178 C1124.51002,6.69456067 1124.74125,6.24311826 1125.11561,5.91279454 C1125.48998,5.58247082 1125.9194,5.41730896 1126.40388,5.41730896 L1134.26558,5.41730896 L1134.72803,2.04800705 C1134.81612,1.47544594 1135.06937,0.990971152 1135.48778,0.594582691 C1135.90619,0.19819423 1136.37965,0 1136.90817,0 L1147.08214,0 Z M1116.95662,62.3651178 L1124.09161,16.0537327 C1124.22374,15.4371284 1124.49901,14.9416428 1124.91742,14.5672759 C1125.33583,14.1929091 1125.80929,14.0057256 1126.33781,14.0057256 L1131.75512,14.0057256 L1125.14865,57.1460031 C1124.88439,58.6875138 1124.20172,59.9427439 1123.10064,60.9116935 C1121.99956,61.880643 1120.74433,62.3651178 1119.33495,62.3651178 L1116.95662,62.3651178 Z M1147.01608,14.0057256 L1152.63158,14.0057256 C1153.11605,14.0057256 1153.50143,14.1818983 1153.78771,14.5342436 C1154.07399,14.8865889 1154.19511,15.3049989 1154.15107,15.7894737 L1148.86589,62.3651178 L1148.86589,62.3651178 C1146.92799,62.3651178 1145.32041,61.6053733 1144.04316,60.0858842 C1142.76591,58.5663951 1142.21537,56.7496146 1142.39154,54.6355428 L1147.01608,14.0057256 Z M1200,1.65161859 C1199.77978,3.06099978 1199.17419,4.21713279 1198.18322,5.12001762 C1197.19225,6.02290244 1196.03612,6.47434486 1194.71482,6.47434486 L1175.09359,6.47434486 L1175.68817,1.65161859 L1200,1.65161859 L1200,1.65161859 Z M1173.70623,1.65161859 L1171.79035,16.1858621 L1198.08412,16.1858621 L1197.35741,21.5371064 L1193.32746,21.5371064 L1187.91015,62.3651178 L1175.29179,62.3651178 L1180.64303,21.5371064 L1171.06364,21.5371064 L1166.6373,55.2301255 C1166.37305,57.2120678 1165.5142,58.9077296 1164.06078,60.3171108 C1162.6514,61.6824488 1160.97776,62.3651178 1159.03986,62.3651178 L1153.02797,62.3651178 L1160.69148,4.29420832 C1160.82361,3.5014314 1161.15393,2.86280555 1161.68245,2.37833076 C1162.21097,1.89385598 1162.82757,1.65161859 1163.53226,1.65161859 L1173.70623,1.65161859 Z" id="形状"></path>
            </g>
        </g>
    </g>
</svg>