<?xml version="1.0" encoding="UTF-8"?>
<svg width="153.253333px" height="28.32px" viewBox="0 0 153.253333 28.32" version="1.1" xmlns="http://www.w3.org/2000/svg" xmlns:xlink="http://www.w3.org/1999/xlink">
    <title>CFD求解</title>
    <g id="页面-1" stroke="none" stroke-width="1" fill="none" fill-rule="evenodd" opacity="0.8">
        <g id="CADO" transform="translate(-565.290000, -2336.680000)" fill="#EFEFEF" fill-rule="nonzero">
            <g id="编组-37" transform="translate(360.000000, 1995.000000)">
                <g id="编组-4" transform="translate(0.000000, 180.000000)">
                    <g id="CFD求解" transform="translate(205.290000, 161.680000)">
                        <path d="M23.46,3.18 C21,2.56 18.7,2.25 16.56,2.25 C11.68,2.25 7.7,3.6 4.62,6.3 C1.54,9 0,12.46 0,16.68 C0,20.14 1.14,22.94 3.42,25.08 C5.7,27.24 8.68,28.32 12.36,28.32 C15.3,28.32 18.28,27.65 21.3,26.31 L21.3,26.28 C21.42,25.08 21.055,24.135 20.205,23.445 C19.355,22.755 18.35,22.57 17.19,22.89 C15.65,23.37 14.2,23.61 12.84,23.61 C10.62,23.61 8.86,23 7.56,21.78 C6.24,20.54 5.58,18.88 5.58,16.8 C5.58,14.16 6.53,11.85 8.43,9.87 C10.33,7.91 13,6.93 16.44,6.93 C17.44,6.93 18.44,7 19.44,7.14 C20.34,7.26 21.145,7.07 21.855,6.57 C22.565,6.07 23.02,5.37 23.22,4.47 L23.46,3.18 Z" id="路径"></path>
                        <path d="M32.04,2.34 L47.46,2.34 L47.22,4.8 C47.12,5.3 46.885,5.715 46.515,6.045 C46.145,6.375 45.7,6.54 45.18,6.54 L33.54,6.54 L32.61,12.69 L44.52,12.69 L43.92,16.98 L32.01,16.98 L30.33,28.32 L24.72,28.32 L27.93,5.91 C28.09,4.87 28.555,4.015 29.325,3.345 C30.095,2.675 31,2.34 32.04,2.34 Z" id="路径"></path>
                        <path d="M51.27,5.22 L48.06,28.32 L61.44,28.32 C64.92,28.32 67.83,27.06 70.17,24.54 C72.53,22 73.71,18.82 73.71,15 C73.71,11.28 72.56,8.24 70.26,5.88 C67.96,3.54 64.64,2.37 60.3,2.37 L54.54,2.37 C53.72,2.37 53.005,2.635 52.395,3.165 C51.785,3.695 51.41,4.38 51.27,5.22 Z M56.58,6.72 L59.25,6.72 C61.93,6.72 64.06,7.48 65.64,9 C67.22,10.52 68.01,12.5 68.01,14.94 C68.01,17.58 67.24,19.75 65.7,21.45 C64.18,23.15 62.07,24 59.37,24 L54.18,24 L56.58,6.72 Z" id="形状"></path>
                        <path d="M80.58,2.55 C80.26,2.55 79.98,2.66 79.74,2.88 C79.5,3.1 79.35,3.38 79.29,3.72 L79.14,4.95 L94.14,4.95 L91.53,24.54 C91.47,24.96 91.29,25.28 90.99,25.5 C90.69,25.74 90.31,25.86 89.85,25.86 L89.07,25.86 C88.47,25.86 87.945,26.07 87.495,26.49 C87.045,26.91 86.77,27.44 86.67,28.08 L86.64,28.32 L93.51,28.32 C94.41,28.32 95.24,28.02 96,27.42 C96.74,26.8 97.19,25.93 97.35,24.81 L99.99,4.95 L112.44,4.95 C112.76,4.95 113.045,4.835 113.295,4.605 C113.545,4.375 113.69,4.09 113.73,3.75 L113.91,2.55 L111.6,2.55 L111.54,1.98 C111.5,1.48 111.31,1.065 110.97,0.735 C110.63,0.405 110.23,0.24 109.77,0.24 L105.84,0.24 L106.02,2.55 L100.29,2.55 L100.65,0.03 L96.21,0.03 C95.79,0.03 95.43,0.17 95.13,0.45 C94.83,0.73 94.65,1.09 94.59,1.53 L94.44,2.55 L80.58,2.55 Z M76.44,28.32 L78.72,28.32 C80.86,28.32 82.46,27.15 83.52,24.81 L86.94,15.24 L82.29,15.24 C81.61,15.24 81.1,15.61 80.76,16.35 L76.44,28.32 Z M86.97,10.71 C86.85,9.39 86.355,8.295 85.485,7.425 C84.615,6.555 83.56,6.12 82.32,6.12 L80.88,6.12 L81.27,12.51 C81.31,12.87 81.45,13.165 81.69,13.395 C81.93,13.625 82.21,13.74 82.53,13.74 L87.15,13.74 L86.97,10.71 Z M111.51,6.12 L108.75,6.12 C106.91,6.12 105.55,7.14 104.67,9.18 L103.17,13.74 L107.79,13.74 C108.51,13.74 109.04,13.35 109.38,12.57 L111.51,6.12 Z M103.62,22.23 C103.82,24.01 104.52,25.47 105.72,26.61 C106.92,27.75 108.34,28.32 109.98,28.32 L109.98,28.32 L108.9,16.23 C108.86,15.95 108.74,15.715 108.54,15.525 C108.34,15.335 108.11,15.24 107.85,15.24 L102.99,15.24 L103.62,22.23 Z" id="形状"></path>
                        <path d="M153.09,0.51 C153.23,0.67 153.28,0.86 153.24,1.08 L152.52,6.54 C152.38,7.48 152.02,8.24 151.44,8.82 C150.86,9.44 149.97,9.75 148.77,9.75 L144.45,9.75 L144.69,8.04 C144.71,7.84 144.8,7.66 144.96,7.5 C145.12,7.38 145.3,7.32 145.5,7.32 L146.55,7.32 C147.03,7.32 147.31,7.09 147.39,6.63 L147.93,2.61 L144.18,2.61 L143.07,6.48 C142.71,7.54 142.1,8.35 141.24,8.91 C140.38,9.47 139.48,9.75 138.54,9.75 L136.56,9.75 L138.99,2.61 L137.04,2.61 L137.28,0.84 C137.3,0.68 137.37,0.55 137.49,0.45 C137.63,0.37 137.78,0.33 137.94,0.33 L152.55,0.33 C152.77,0.33 152.95,0.39 153.09,0.51 Z M134.28,5.49 L135.96,5.49 L133.05,26.1 C132.97,26.72 132.72,27.25 132.3,27.69 C131.88,28.11 131.4,28.32 130.86,28.32 L127.92,28.32 L129,20.55 L126.9,20.55 L125.85,27.87 L122.4,27.87 L123.42,20.55 L121.29,20.55 L120.51,26.04 C120.43,26.68 120.17,27.23 119.73,27.69 C119.27,28.11 118.77,28.32 118.23,28.32 L115.23,28.32 L118.47,5.49 L123.45,5.49 L122.55,11.58 L124.68,11.58 L125.22,7.77 L123.72,7.77 L124.08,5.49 L128.76,5.49 L129.9,2.76 L125.07,2.76 C124.31,4.08 123.33,4.74 122.13,4.74 L117.99,4.74 L120.06,0.42 C120.26,0.14 120.49,0 120.75,0 L126.6,0 L126.24,0.48 L135.69,0.48 C135.89,0.48 136.04,0.56 136.14,0.72 C136.24,0.88 136.25,1.06 136.17,1.26 L134.28,5.49 Z M147.93,10.83 L147.78,12.18 L151.86,12.18 L151.68,13.77 C151.62,14.13 151.47,14.44 151.23,14.7 C151.01,14.96 150.75,15.09 150.45,15.09 L147.36,15.09 L146.67,19.95 L151.05,19.95 L150.84,21.6 C150.78,22 150.6,22.35 150.3,22.65 C150,22.91 149.66,23.04 149.28,23.04 L146.25,23.04 L145.65,27.78 C145.63,27.94 145.57,28.07 145.47,28.17 C145.37,28.27 145.25,28.32 145.11,28.32 L140.49,28.32 L141.15,23.04 L134.55,23.04 L134.82,21.09 C134.86,20.79 135,20.53 135.24,20.31 C135.48,20.07 135.74,19.95 136.02,19.95 L141.57,19.95 L142.26,15.09 L140.28,15.09 L140.22,15.18 C140.04,15.76 139.73,16.21 139.29,16.53 C138.77,16.89 138.22,17.07 137.64,17.07 L135.15,17.07 L136.83,11.46 C136.87,11.36 136.93,11.28 137.01,11.22 C137.09,11.16 137.18,11.13 137.28,11.13 L141.39,11.13 L141.03,12.18 L142.59,12.18 L142.68,11.22 C142.68,11.14 142.695,11.085 142.725,11.055 C142.755,11.025 142.8,10.99 142.86,10.95 C142.86,10.95 142.86,10.95 142.86,10.95 C142.96,10.87 143.07,10.83 143.19,10.83 L147.93,10.83 Z M130.8,7.77 L128.7,7.77 L128.13,11.58 L130.29,11.58 L130.8,7.77 Z M124.35,14.01 L122.22,14.01 L121.62,18.27 L123.75,18.27 L124.35,14.01 Z M129.93,14.01 L127.83,14.01 L127.2,18.27 L129.36,18.27 L129.93,14.01 Z" id="形状"></path>
                    </g>
                </g>
            </g>
        </g>
    </g>
</svg>