<?xml version="1.0" encoding="UTF-8"?>
<svg width="154.89px" height="28.29px" viewBox="0 0 154.89 28.29" version="1.1" xmlns="http://www.w3.org/2000/svg" xmlns:xlink="http://www.w3.org/1999/xlink">
    <title>抖振仿真</title>
    <defs>
        <polygon id="path-1" points="-1.11539171e-14 4.61951184e-12 380 0 380 220 -1.11539171e-14 220"></polygon>
        <filter x="-7.9%" y="-13.6%" width="115.8%" height="127.3%" filterUnits="objectBoundingBox" id="filter-3">
            <feOffset dx="0" dy="0" in="SourceAlpha" result="shadowOffsetOuter1"></feOffset>
            <feGaussianBlur stdDeviation="10" in="shadowOffsetOuter1" result="shadowBlurOuter1"></feGaussianBlur>
            <feColorMatrix values="0 0 0 0 0.137254902   0 0 0 0 0.137254902   0 0 0 0 0.137254902  0 0 0 0.06 0" type="matrix" in="shadowBlurOuter1"></feColorMatrix>
        </filter>
    </defs>
    <g id="页面-1" stroke="none" stroke-width="1" fill="none" fill-rule="evenodd">
        <g id="CADO" transform="translate(-564.570000, -2586.710000)">
            <rect fill="#FFFFFF" x="0" y="0" width="1920" height="3936"></rect>
            <g id="蒙版" transform="translate(0.000000, 2000.000000)" fill="#FFFFFF">
                <rect x="0" y="0" width="1920" height="1000"></rect>
            </g>
            <g id="编组-37" transform="translate(360.000000, 1995.000000)">
                <g id="编组-4" transform="translate(0.000000, 180.000000)">
                    <g id="编组-5" transform="translate(0.000000, 250.000000)">
                        <g id="矩形备份-6-+-Image-1蒙版">
                            <mask id="mask-2" fill="white">
                                <use xlink:href="#path-1"></use>
                            </mask>
                            <g id="蒙版">
                                <use fill="black" fill-opacity="1" filter="url(#filter-3)" xlink:href="#path-1"></use>
                                <use fill="#FFFFFF" fill-rule="evenodd" xlink:href="#path-1"></use>
                            </g>
                            <g id="抖振仿真" mask="url(#mask-2)" fill="#EFEFEF" fill-rule="nonzero" opacity="0.8">
                                <g transform="translate(204.570000, 161.710000)" id="形状">
                                    <path d="M27.03,28.26 L33.66,28.26 L34.53,22.56 L36.15,22.56 C36.53,22.56 36.86,22.445 37.14,22.215 C37.42,21.985 37.59,21.69 37.65,21.33 L37.86,19.8 L34.95,19.8 L37.89,0.18 L33.51,0.18 C32.85,0.18 32.28,0.38 31.8,0.78 C31.32,1.18 31.02,1.69 30.9,2.31 L28.29,19.8 L16.17,19.8 C15.79,19.8 15.46,19.915 15.18,20.145 C14.9,20.375 14.73,20.67 14.67,21.03 L14.46,22.56 L27.87,22.56 L27.03,28.26 Z M17.94,1.77 L17.94,1.77 C17.82,2.63 18.01,3.395 18.51,4.065 C19.01,4.735 19.7,5.16 20.58,5.34 L28.83,7.02 L29.28,4.05 L17.94,1.77 Z M16.5,11.31 L16.5,11.31 C16.38,12.17 16.57,12.93 17.07,13.59 C17.57,14.25 18.27,14.68 19.17,14.88 L27.39,16.56 L27.84,13.59 L16.5,11.31 Z M13.35,16.86 C13.57,16.66 13.7,16.42 13.74,16.14 L14.13,13.95 L12.21,14.19 L13.62,5.34 L14.61,5.34 C14.89,5.34 15.15,5.24 15.39,5.04 C15.59,4.84 15.71,4.62 15.75,4.38 L16.11,2.22 L14.1,2.22 L14.49,0 L9.09,0 C8.33,0 7.86,0.39 7.68,1.17 L7.44,2.22 L5.01,2.22 C4.75,2.22 4.54,2.31 4.38,2.49 C4.2,2.65 4.08,2.83 4.02,3.03 L3.45,5.34 L6.99,5.34 L5.4,14.97 L2.79,15.3 C2.57,15.32 2.36,15.41 2.16,15.57 C1.98,15.71 1.86,15.89 1.8,16.11 L1.17,18.51 L4.92,18.09 L3.99,23.73 C3.95,24.01 3.87,24.25 3.75,24.45 C3.65,24.65 3.49,24.84 3.27,25.02 C3.11,25.22 2.91,25.35 2.67,25.41 C2.47,25.45 2.23,25.47 1.95,25.47 L0.33,25.47 L9.09494702e-13,28.29 L6.03,28.29 C7.21,28.29 8.25,27.83 9.15,26.91 C10.03,25.99 10.54,24.89 10.68,23.61 L11.7,17.28 L12.54,17.19 C12.86,17.15 13.13,17.04 13.35,16.86 Z"></path>
                                    <path d="M50.94,0 L50.61,2.22 L52.29,2.22 L51.99,4.38 C51.95,4.62 51.84,4.84 51.66,5.04 C51.48,5.24 51.27,5.34 51.03,5.34 L50.22,5.34 L49.05,14.19 L50.64,13.95 L50.34,16.14 C50.3,16.42 50.19,16.66 50.01,16.86 C49.81,17.04 49.58,17.15 49.32,17.19 L48.63,17.28 L47.79,23.61 C47.69,24.89 47.27,25.99 46.53,26.91 C45.79,27.83 44.94,28.29 43.98,28.29 L39,28.29 L39.27,25.47 L40.59,25.47 C40.83,25.47 41.03,25.45 41.19,25.41 C41.39,25.35 41.56,25.22 41.7,25.02 C41.88,24.84 42.01,24.65 42.09,24.45 C42.19,24.25 42.25,24.01 42.27,23.73 L43.05,18.09 L39.96,18.51 L40.5,16.11 C40.52,15.89 40.61,15.71 40.77,15.57 C40.93,15.41 41.11,15.32 41.31,15.3 L43.44,14.97 L44.76,5.34 L41.82,5.34 L42.3,3.03 C42.36,2.83 42.46,2.65 42.6,2.49 C42.74,2.31 42.92,2.22 43.14,2.22 L45.12,2.22 L45.33,1.17 C45.47,0.39 45.85,0 46.47,0 L50.94,0 Z M75.51,6.3 C75.43,6.84 75.215,7.285 74.865,7.635 C74.515,7.985 74.1,8.16 73.62,8.16 L59.4,8.16 L59.82,5.1 L75.66,5.1 L75.51,6.3 Z M57.36,11.7 L75.81,11.7 L75.63,13.08 C75.55,13.58 75.35,13.985 75.03,14.295 C74.71,14.605 74.34,14.76 73.92,14.76 L69.21,14.76 L70.38,14.76 L63.84,14.76 L62.58,24.81 C62.54,25.11 62.6,25.37 62.76,25.59 C62.92,25.81 63.14,25.92 63.42,25.92 L64.44,25.92 C65,25.92 65.455,26.15 65.805,26.61 C66.155,27.07 66.3,27.63 66.24,28.29 L66.24,28.29 L59.58,28.29 C58.78,28.29 58.13,27.98 57.63,27.36 C57.15,26.76 56.96,26.01 57.06,25.11 L58.35,14.76 L56.97,14.76 L55.71,24.99 C55.61,25.89 55.24,26.67 54.6,27.33 C53.96,27.97 53.23,28.29 52.41,28.29 L50.04,28.29 L50.4,25.17 L50.58,23.76 L53.49,0.3 L58.77,0.3 L58.44,3 L58.38,3.51 L57.36,11.7 Z M76.8,1.05 C76.72,1.63 76.49,2.1 76.11,2.46 C75.73,2.82 75.29,3 74.79,3 L59.67,3 L60.03,0.3 L76.89,0.3 L76.8,1.05 Z M75.24,16.17 L74.82,17.7 C74.76,17.9 74.7,18.06 74.64,18.18 C74.58,18.3 74.49,18.41 74.37,18.51 C74.17,18.69 73.87,18.78 73.47,18.78 L71.19,18.78 L75.18,28.29 L70.26,28.29 L66.33,19.29 C65.91,18.39 65.9,17.65 66.3,17.07 C66.56,16.47 67.11,16.17 67.95,16.17 L75.24,16.17 Z"></path>
                                    <path d="M107.52,9.87 L100.59,9.87 L101.37,7.23 L114.18,7.23 L111.66,24.9 C111.54,25.8 111.11,26.57 110.37,27.21 C109.63,27.85 108.79,28.17 107.85,28.17 L99.03,28.17 L99.09,27.72 C99.21,27.08 99.51,26.55 99.99,26.13 C100.47,25.71 101.03,25.5 101.67,25.5 L104.19,25.5 C104.49,25.5 104.76,25.4 105,25.2 C105.26,24.98 105.41,24.72 105.45,24.42 L107.52,9.87 Z M115.77,2.85 C115.69,3.25 115.495,3.585 115.185,3.855 C114.875,4.125 114.51,4.26 114.09,4.26 L101.58,4.26 L100.89,6.51 L100.89,6.51 L99.87,9.6 L99.87,9.6 L99.69,10.11 L99.69,10.11 L99.69,10.11 L94.77,25.41 C93.93,27.33 92.6,28.29 90.78,28.29 L87.45,28.29 L95.19,4.26 L90.96,4.26 L91.08,3.3 C91.14,2.88 91.325,2.54 91.635,2.28 C91.945,2.02 92.31,1.89 92.73,1.89 L100.59,1.89 L100.86,0 L105.48,0 C105.9,0 106.25,0.155 106.53,0.465 C106.81,0.775 106.93,1.15 106.89,1.59 L106.83,1.89 L115.89,1.89 L115.77,2.85 Z M82.38,1.47 C82.94,0.53 83.7,0.06 84.66,0.06 L89.58,0.06 L85.8,8.01 L87.57,8.01 L84.69,28.14 L78.42,28.14 L80.97,10.29 L78,10.29 L82.38,1.47 Z"></path>
                                    <path d="M119.91,23.1 L117,28.29 L121.41,28.29 C122.47,28.29 123.32,27.78 123.96,26.76 L125.94,23.1 L119.91,23.1 Z M142.5,1.17 L154.89,1.17 L154.74,2.22 C154.68,2.5 154.555,2.725 154.365,2.895 C154.175,3.065 153.94,3.15 153.66,3.15 L142.11,3.15 L141.9,4.32 L152.76,4.32 C153.16,4.32 153.48,4.42 153.72,4.62 C153.98,4.82 154.09,5.11 154.05,5.49 L151.98,20.31 L153.27,20.31 L153.09,21.6 C153.03,21.88 152.9,22.11 152.7,22.29 C152.5,22.47 152.26,22.56 151.98,22.56 L117.24,22.56 L117.42,21.27 C117.48,20.99 117.61,20.76 117.81,20.58 C118.01,20.4 118.25,20.31 118.53,20.31 L119.49,20.31 L121.56,5.61 C121.62,5.23 121.785,4.92 122.055,4.68 C122.325,4.44 122.65,4.32 123.03,4.32 L128.28,4.32 L127.65,8.73 L147.21,8.73 L147.51,6.57 L129.03,6.57 L129.33,4.32 L134.49,4.32 L134.64,3.15 L121.83,3.15 L121.98,2.1 C122.02,1.82 122.14,1.595 122.34,1.425 C122.54,1.255 122.77,1.17 123.03,1.17 L134.94,1.17 L134.97,0.9 C135.01,0.64 135.13,0.42 135.33,0.24 C135.53,0.08 135.76,0 136.02,0 L142.68,0 L142.5,1.17 Z M144.54,23.1 L145.5,28.29 L151.71,28.29 L151.11,24.81 C150.99,24.31 150.74,23.9 150.36,23.58 C149.98,23.26 149.54,23.1 149.04,23.1 L144.54,23.1 Z M146.97,10.47 L127.41,10.47 L127.14,12.39 L146.7,12.39 L146.97,10.47 Z M126.87,14.34 L126.6,16.32 L146.16,16.32 L146.43,14.34 L126.87,14.34 Z M126.03,20.31 L145.59,20.31 L145.89,18.24 L126.33,18.24 L126.03,20.31 Z"></path>
                                </g>
                            </g>
                        </g>
                        <text id="跨声速飞行激波抖振边界的预测和分析。" font-family="PingFangSC-Regular, PingFang SC" font-size="14" font-weight="normal" line-spacing="28" fill="#999999">
                            <tspan x="30" y="83">跨声速飞行激波抖振边界的预测和分析。</tspan>
                        </text>
                    </g>
                </g>
            </g>
        </g>
    </g>
</svg>