<?xml version="1.0" encoding="UTF-8"?>
<svg width="154.83px" height="28.32px" viewBox="0 0 154.83 28.32" version="1.1" xmlns="http://www.w3.org/2000/svg" xmlns:xlink="http://www.w3.org/1999/xlink">
    <title>颤振分析</title>
    <g id="页面-1" stroke="none" stroke-width="1" fill="none" fill-rule="evenodd" opacity="0.8">
        <g id="CADO" transform="translate(-1384.570000, -2336.710000)" fill="#EFEFEF" fill-rule="nonzero">
            <g id="编组-37" transform="translate(360.000000, 1995.000000)">
                <g id="编组-4" transform="translate(0.000000, 180.000000)">
                    <g id="编组-5" transform="translate(820.000000, 0.000000)">
                        <g id="颤振分析" transform="translate(204.570000, 161.710000)">
                            <path d="M37.77,1.17 C37.71,1.59 37.535,1.935 37.245,2.205 C36.955,2.475 36.62,2.61 36.24,2.61 L32.49,2.61 L32.28,4.29 L34.92,4.29 C35.6,4.29 36.14,4.5 36.54,4.92 C36.94,5.36 37.09,5.98 36.99,6.78 L34.95,22.11 L31.05,22.11 L33,7.41 C33.02,7.21 32.98,7.04 32.88,6.9 C32.8,6.76 32.68,6.69 32.52,6.69 L26.22,6.69 L26.52,4.29 L27.09,4.29 L27.3,2.61 L22.23,2.61 L22.35,1.65 C22.41,1.23 22.585,0.89 22.875,0.63 C23.165,0.37 23.5,0.24 23.88,0.24 L37.89,0.24 L37.77,1.17 Z M6.99,16.74 L6.93,17.28 L6.81,18.06 L13.83,18.06 L14.01,16.74 L7.59,16.74 L7.86,14.58 L19.29,14.58 L18.3,21.9 C18.2,22.7 17.87,23.39 17.31,23.97 C16.73,24.55 16.1,24.84 15.42,24.84 L3.54,24.84 C2.86,24.84 2.31,24.55 1.89,23.97 C1.47,23.39 1.32,22.7 1.44,21.9 L2.4,14.58 L7.29,14.58 L6.99,16.74 Z M13.53,20.46 L6.51,20.46 L6.36,21.45 C6.32,21.75 6.38,22.01 6.54,22.23 C6.7,22.45 6.91,22.56 7.17,22.56 L12.3,22.56 C12.56,22.56 12.8,22.45 13.02,22.23 C13.22,22.01 13.34,21.75 13.38,21.45 L13.53,20.46 Z M25.53,7.41 L25.47,7.8 L23.58,22.11 L19.68,22.11 L21.69,6.78 C21.81,5.98 22.13,5.36 22.65,4.92 C23.15,4.5 23.74,4.29 24.42,4.29 L25.95,4.29 L25.53,7.41 Z M8.01,5.88 L7.98,6.18 L7.41,10.47 C7.37,10.79 7.42,11.05 7.56,11.25 C7.7,11.47 7.9,11.58 8.16,11.58 L14.55,11.58 C14.81,11.58 15.05,11.47 15.27,11.25 C15.47,11.05 15.59,10.79 15.63,10.47 L16.26,5.88 L8.61,5.88 L8.88,3.69 L21.15,3.69 L20.19,10.89 C20.09,11.69 19.76,12.38 19.2,12.96 C18.64,13.52 18.01,13.8 17.31,13.8 L4.77,13.8 C4.11,13.8 3.58,13.52 3.18,12.96 C2.76,12.38 2.6,11.69 2.7,10.89 L3.66,3.69 L8.31,3.69 L8.01,5.88 Z M0,28.26 L0.15,27.09 C0.21,26.73 0.365,26.435 0.615,26.205 C0.865,25.975 1.16,25.86 1.5,25.86 L18.66,25.65 L18.51,26.79 C18.45,27.15 18.295,27.445 18.045,27.675 C17.795,27.905 17.5,28.03 17.16,28.05 L0,28.26 Z M31.89,22.5 L34.05,28.29 L30.78,28.29 C29.58,28.29 28.7,27.62 28.14,26.28 L27.42,24 L25.05,27.15 C24.45,27.91 23.72,28.29 22.86,28.29 L18.84,28.29 L25.05,20.49 L26.55,9.09 C26.61,8.71 26.77,8.405 27.03,8.175 C27.29,7.945 27.59,7.83 27.93,7.83 L31.71,7.83 L29.76,22.5 L31.89,22.5 Z M12.39,8.04 L11.58,8.04 L11.79,6.48 L15.54,6.48 L15.18,9.21 C15.1,9.83 14.87,10.27 14.49,10.53 C14.11,10.81 13.76,10.95 13.44,10.95 L9.45,10.95 C9.01,10.95 8.67,10.81 8.43,10.53 C8.17,10.27 8.08,9.83 8.16,9.21 L8.52,6.48 L11.46,6.48 L11.25,8.04 L11.22,8.22 L11.1,9.18 C11.08,9.3 11.13,9.36 11.25,9.36 L12.09,9.36 C12.17,9.36 12.22,9.3 12.24,9.18 L12.39,8.04 Z M15.21,0 C15.37,0 15.5,0.065 15.6,0.195 C15.7,0.325 15.74,0.48 15.72,0.66 L15.72,0.66 L21.96,0.66 L21.81,1.71 C21.75,2.09 21.585,2.405 21.315,2.655 C21.045,2.905 20.73,3.03 20.37,3.03 L3.33,3.03 L3.48,1.95 C3.54,1.57 3.705,1.255 3.975,1.005 C4.245,0.755 4.56,0.63 4.92,0.63 L9.87,0.63 L9.96,0 L15.21,0 Z" id="形状"></path>
                            <path d="M50.94,0 L50.61,2.22 L52.29,2.22 L51.99,4.38 C51.95,4.62 51.84,4.84 51.66,5.04 C51.48,5.24 51.27,5.34 51.03,5.34 L50.22,5.34 L49.05,14.19 L50.64,13.95 L50.34,16.14 C50.3,16.42 50.19,16.66 50.01,16.86 C49.81,17.04 49.58,17.15 49.32,17.19 L48.63,17.28 L47.79,23.61 C47.69,24.89 47.27,25.99 46.53,26.91 C45.79,27.83 44.94,28.29 43.98,28.29 L39,28.29 L39.27,25.47 L40.59,25.47 C40.83,25.47 41.03,25.45 41.19,25.41 C41.39,25.35 41.56,25.22 41.7,25.02 C41.88,24.84 42.01,24.65 42.09,24.45 C42.19,24.25 42.25,24.01 42.27,23.73 L43.05,18.09 L39.96,18.51 L40.5,16.11 C40.52,15.89 40.61,15.71 40.77,15.57 C40.93,15.41 41.11,15.32 41.31,15.3 L43.44,14.97 L44.76,5.34 L41.82,5.34 L42.3,3.03 C42.36,2.83 42.46,2.65 42.6,2.49 C42.74,2.31 42.92,2.22 43.14,2.22 L45.12,2.22 L45.33,1.17 C45.47,0.39 45.85,0 46.47,0 L50.94,0 Z M75.51,6.3 C75.43,6.84 75.215,7.285 74.865,7.635 C74.515,7.985 74.1,8.16 73.62,8.16 L59.4,8.16 L59.82,5.1 L75.66,5.1 L75.51,6.3 Z M57.36,11.7 L75.81,11.7 L75.63,13.08 C75.55,13.58 75.35,13.985 75.03,14.295 C74.71,14.605 74.34,14.76 73.92,14.76 L69.21,14.76 L70.38,14.76 L63.84,14.76 L62.58,24.81 C62.54,25.11 62.6,25.37 62.76,25.59 C62.92,25.81 63.14,25.92 63.42,25.92 L64.44,25.92 C65,25.92 65.455,26.15 65.805,26.61 C66.155,27.07 66.3,27.63 66.24,28.29 L66.24,28.29 L59.58,28.29 C58.78,28.29 58.13,27.98 57.63,27.36 C57.15,26.76 56.96,26.01 57.06,25.11 L58.35,14.76 L56.97,14.76 L55.71,24.99 C55.61,25.89 55.24,26.67 54.6,27.33 C53.96,27.97 53.23,28.29 52.41,28.29 L50.04,28.29 L50.4,25.17 L50.58,23.76 L53.49,0.3 L58.77,0.3 L58.44,3 L58.38,3.51 L57.36,11.7 Z M76.8,1.05 C76.72,1.63 76.49,2.1 76.11,2.46 C75.73,2.82 75.29,3 74.79,3 L59.67,3 L60.03,0.3 L76.89,0.3 L76.8,1.05 Z M75.24,16.17 L74.82,17.7 C74.76,17.9 74.7,18.06 74.64,18.18 C74.58,18.3 74.49,18.41 74.37,18.51 C74.17,18.69 73.87,18.78 73.47,18.78 L71.19,18.78 L75.18,28.29 L70.26,28.29 L66.33,19.29 C65.91,18.39 65.9,17.65 66.3,17.07 C66.56,16.47 67.11,16.17 67.95,16.17 L75.24,16.17 Z" id="形状"></path>
                            <path d="M80.91,8.76 L84.9,8.79 C86.9,8.81 88.41,7.94 89.43,6.18 L92.91,0.09 L87.21,0.09 C86.59,0.09 86.09,0.4 85.71,1.02 L80.91,8.76 Z M111.39,24.99 L113.31,11.07 C113.35,10.81 113.29,10.585 113.13,10.395 C112.97,10.205 112.76,10.11 112.5,10.11 L81.12,10.11 L80.91,11.37 C80.71,12.51 81.15,13.07 82.23,13.05 L87.36,13.05 L78.42,28.29 L78.9,28.29 C82.56,28.29 85.56,26.38 87.9,22.56 L93.75,13.05 L106.95,13.05 L105.39,24.27 C105.35,24.59 105.21,24.85 104.97,25.05 C104.73,25.25 104.47,25.35 104.19,25.35 L100.32,25.35 C99.7,25.35 99.15,25.57 98.67,26.01 C98.19,26.45 97.9,26.99 97.8,27.63 L97.68,28.29 L107.7,28.29 C108.62,28.29 109.43,27.97 110.13,27.33 C110.85,26.67 111.27,25.89 111.39,24.99 Z M107.88,5.55 C108.5,7.61 109.78,8.68 111.72,8.76 L115.68,8.76 L113.1,1.23 C112.82,0.41 112.27,0 111.45,0 L105.9,0 L107.88,5.55 Z" id="形状"></path>
                            <path d="M130.8,0 L130.5,2.46 L135.09,2.46 L134.88,3.96 C134.84,4.24 134.725,4.465 134.535,4.635 C134.345,4.805 134.13,4.89 133.89,4.89 L130.17,4.89 L127.23,27.09 C127.17,27.45 127.015,27.745 126.765,27.975 C126.515,28.205 126.22,28.32 125.88,28.32 L121.56,28.32 L124.65,4.89 L120.3,4.89 L120.51,3.3 C120.55,3.04 120.655,2.835 120.825,2.685 C120.995,2.535 121.19,2.46 121.41,2.46 L124.98,2.46 L125.19,0.93 C125.23,0.67 125.345,0.45 125.535,0.27 C125.725,0.09 125.94,0 126.18,0 L130.8,0 Z M117.12,28.32 L120.36,7.29 C120.42,7.01 120.545,6.785 120.735,6.615 C120.925,6.445 121.14,6.36 121.38,6.36 L123.84,6.36 L120.84,25.95 C120.72,26.65 120.41,27.22 119.91,27.66 C119.41,28.1 118.84,28.32 118.2,28.32 L117.12,28.32 Z M130.77,6.36 L133.32,6.36 C133.54,6.36 133.715,6.44 133.845,6.6 C133.975,6.76 134.03,6.95 134.01,7.17 L131.61,28.32 L131.61,28.32 C130.73,28.32 130,27.975 129.42,27.285 C128.84,26.595 128.59,25.77 128.67,24.81 L130.77,6.36 Z M154.83,0.75 C154.73,1.39 154.455,1.915 154.005,2.325 C153.555,2.735 153.03,2.94 152.43,2.94 L143.52,2.94 L143.79,0.75 L154.83,0.75 L154.83,0.75 Z M142.89,0.75 L142.02,7.35 L153.96,7.35 L153.63,9.78 L151.8,9.78 L149.34,28.32 L143.61,28.32 L146.04,9.78 L141.69,9.78 L139.68,25.08 C139.56,25.98 139.17,26.75 138.51,27.39 C137.87,28.01 137.11,28.32 136.23,28.32 L133.5,28.32 L136.98,1.95 C137.04,1.59 137.19,1.3 137.43,1.08 C137.67,0.86 137.95,0.75 138.27,0.75 L142.89,0.75 Z" id="形状"></path>
                        </g>
                    </g>
                </g>
            </g>
        </g>
    </g>
</svg>