<?xml version="1.0" encoding="UTF-8"?>
<svg width="271.89px" height="28.8px" viewBox="0 0 271.89 28.8" version="1.1" xmlns="http://www.w3.org/2000/svg" xmlns:xlink="http://www.w3.org/1999/xlink">
    <title>静气动弹性仿真</title>
    <g id="页面-1" stroke="none" stroke-width="1" fill="none" fill-rule="evenodd" opacity="0.8">
        <g id="CADO" transform="translate(-857.570000, -2336.710000)" fill="#EFEFEF" fill-rule="nonzero">
            <g id="编组-37" transform="translate(360.000000, 1995.000000)">
                <g id="编组-4" transform="translate(0.000000, 180.000000)">
                    <g id="编组-8" transform="translate(410.000000, 0.000000)">
                        <g id="静气动弹性仿真" transform="translate(87.570000, 161.710000)">
                            <path d="M36.99,11.01 L37.74,11.01 L37.5,12.72 C37.46,12.94 37.365,13.12 37.215,13.26 C37.065,13.4 36.88,13.47 36.66,13.47 L36.66,13.47 L36.18,17.16 C36.04,18.12 35.61,18.93 34.89,19.59 C34.15,20.23 33.34,20.55 32.46,20.55 L27.93,20.55 L27.33,24.87 C27.21,25.79 26.79,26.58 26.07,27.24 C25.33,27.92 24.5,28.26 23.58,28.26 L16.8,28.26 L16.89,27.51 C16.97,27.01 17.19,26.6 17.55,26.28 C17.91,25.96 18.32,25.8 18.78,25.8 L19.56,25.8 C19.98,25.8 20.35,25.66 20.67,25.38 C20.99,25.08 21.18,24.72 21.24,24.3 L21.72,20.55 L17.52,20.55 L17.73,19.05 C17.77,18.77 17.89,18.54 18.09,18.36 C18.29,18.18 18.52,18.09 18.78,18.09 L22.08,18.09 L22.71,13.47 L18.27,13.47 L18.45,11.97 C18.49,11.69 18.61,11.46 18.81,11.28 C19.01,11.1 19.25,11.01 19.53,11.01 L23.04,11.01 L23.58,7.02 L19.35,7.02 L19.56,5.52 C19.6,5.24 19.72,5.01 19.92,4.83 C20.12,4.65 20.35,4.56 20.61,4.56 L29.46,4.56 L30.57,2.46 L26.34,2.46 L25.68,3.78 L19.29,3.78 L20.76,0.87 C21.1,0.29 21.56,0 22.14,0 L37.32,0 C37.52,0 37.675,0.095 37.785,0.285 C37.895,0.475 37.89,0.67 37.77,0.87 L35.67,4.56 L37.89,4.56 L36.99,11.01 Z M30.63,16.59 L31.05,13.47 L28.89,13.47 L28.26,18.09 L29.01,18.09 C29.41,18.09 29.77,17.95 30.09,17.67 C30.39,17.39 30.57,17.03 30.63,16.59 Z M8.1,15.12 L8.4,12.9 L17.34,12.9 L15.75,24.63 C15.67,25.15 15.52,25.63 15.3,26.07 C15.06,26.49 14.76,26.87 14.4,27.21 C14.04,27.53 13.64,27.79 13.2,27.99 C12.76,28.19 12.3,28.29 11.82,28.29 L7.62,28.29 L7.92,26.07 L9.21,26.07 C9.45,26.07 9.67,25.98 9.87,25.8 C10.07,25.62 10.19,25.4 10.23,25.14 L10.47,23.34 L6.42,23.34 L5.76,28.29 L0,28.29 L1.95,14.01 C1.99,13.69 2.125,13.425 2.355,13.215 C2.585,13.005 2.86,12.9 3.18,12.9 L7.83,12.9 L7.53,15.12 L7.44,15.84 L7.32,16.83 L11.34,16.83 L11.58,15.12 L8.1,15.12 Z M13.41,7.5 L13.11,9.6 L18.03,9.6 L17.82,11.04 C17.78,11.32 17.665,11.545 17.475,11.715 C17.285,11.885 17.06,11.97 16.8,11.97 L1.89,11.97 L2.1,10.53 C2.14,10.25 2.255,10.025 2.445,9.855 C2.635,9.685 2.86,9.6 3.12,9.6 L7.11,9.6 L7.41,7.5 L3,7.5 L3.18,6.21 C3.22,5.89 3.35,5.63 3.57,5.43 C3.79,5.23 4.05,5.13 4.35,5.13 L7.74,5.13 L7.98,3.36 L3.21,3.36 L3.36,2.28 C3.42,1.9 3.58,1.59 3.84,1.35 C4.1,1.11 4.41,0.99 4.77,0.99 L8.28,0.99 L8.28,0.99 C8.34,0.71 8.47,0.475 8.67,0.285 C8.87,0.095 9.11,0 9.39,0 L14.43,0 L14.28,0.99 L19.02,0.99 L18.87,2.1 C18.81,2.46 18.65,2.76 18.39,3 C18.13,3.24 17.82,3.36 17.46,3.36 L13.98,3.36 L13.74,5.13 L18.15,5.13 L17.97,6.45 C17.91,6.75 17.77,7 17.55,7.2 C17.33,7.4 17.07,7.5 16.77,7.5 L13.41,7.5 Z M31.95,7.02 L29.76,7.02 L29.22,11.01 L31.41,11.01 L31.95,7.02 Z M11.04,19.23 L6.99,19.23 L6.75,20.97 L10.8,20.97 L11.04,19.23 Z" id="形状"></path>
                            <path d="M40.23,5.1 L40.23,5.1 L45.99,5.1 C46.63,5.1 47.19,4.77 47.67,4.11 L47.79,3.93 L74.97,3.93 C75.23,3.93 75.46,3.84 75.66,3.66 C75.86,3.48 75.98,3.26 76.02,3 L76.32,1.02 L49.41,1.02 L50.01,0 L43.5,0 C43.22,0 43,0.13 42.84,0.39 L40.23,5.1 Z M40.38,12.24 L40.38,12.24 C40.1,12.24 39.87,12.33 39.69,12.51 C39.49,12.67 39.37,12.88 39.33,13.14 L39,15.39 L67.08,15.39 L65.7,25.29 C65.62,25.83 65.65,26.32 65.79,26.76 C65.93,27.18 66.14,27.55 66.42,27.87 C66.72,28.17 67.08,28.4 67.5,28.56 C67.9,28.72 68.34,28.8 68.82,28.8 L76.89,28.8 L76.86,27.66 C76.8,27.18 76.59,26.775 76.23,26.445 C75.87,26.115 75.45,25.95 74.97,25.95 L73.5,25.95 L73.5,25.95 C72.78,25.95 72.47,25.61 72.57,24.93 L74.19,13.44 C74.23,13.1 74.14,12.82 73.92,12.6 C73.7,12.36 73.43,12.24 73.11,12.24 L40.38,12.24 Z M41.16,6.87 L41.16,6.87 C40.98,6.87 40.83,6.93 40.71,7.05 C40.59,7.15 40.52,7.28 40.5,7.44 L40.2,9.54 L73.56,9.54 C73.92,9.54 74.22,9.43 74.46,9.21 C74.72,8.97 74.88,8.68 74.94,8.34 L75.15,6.87 L41.16,6.87 Z" id="形状"></path>
                            <path d="M89.76,28.17 L95.22,28.17 L95.55,17.22 C95.57,16.66 95.415,16.205 95.085,15.855 C94.755,15.505 94.33,15.33 93.81,15.33 L90.06,15.33 L89.94,22.98 L85.2,23.79 C84.82,23.85 84.69,23.64 84.81,23.16 L88.56,11.52 L95.94,11.52 C96.44,11.52 96.9,11.34 97.32,10.98 C97.74,10.62 97.99,10.16 98.07,9.6 L98.28,8.1 L81.96,8.1 C81.5,8.1 81.095,8.255 80.745,8.565 C80.395,8.875 80.18,9.27 80.1,9.75 L79.89,11.52 L82.62,11.52 L78.27,24.57 C77.83,25.99 77.9,26.96 78.48,27.48 C79.04,28 79.9,28.16 81.06,27.96 L89.82,26.58 L89.76,28.17 Z M83.43,0.33 C82.99,0.33 82.58,0.495 82.2,0.825 C81.82,1.155 81.59,1.56 81.51,2.04 L81.33,3.54 L96.99,3.54 C97.41,3.54 97.795,3.385 98.145,3.075 C98.495,2.765 98.7,2.38 98.76,1.92 L98.97,0.33 L83.43,0.33 Z M95.82,28.29 L95.82,28.29 C97.48,28.29 98.935,27.77 100.185,26.73 C101.435,25.69 102.25,24.45 102.63,23.01 L106.65,5.97 L110.01,5.97 L107.46,24.81 C107.42,25.09 107.29,25.35 107.07,25.59 C106.83,25.81 106.56,25.92 106.26,25.92 L105.87,25.92 C105.49,25.92 105.15,26.055 104.85,26.325 C104.55,26.595 104.36,26.93 104.28,27.33 L104.16,28.29 L109.32,28.29 C110.22,28.29 111.02,27.97 111.72,27.33 C112.44,26.67 112.86,25.89 112.98,24.99 L115.89,3.45 C115.93,3.09 115.835,2.775 115.605,2.505 C115.375,2.235 115.09,2.1 114.75,2.1 L107.4,2.1 L107.94,0 L102.72,0 L102.18,2.1 L99.75,2.1 L99.33,4.98 C99.31,5.26 99.38,5.495 99.54,5.685 C99.7,5.875 99.91,5.97 100.17,5.97 L101.4,5.97 L95.82,28.29 Z" id="形状"></path>
                            <path d="M130.59,22.11 C130.67,21.63 130.885,21.235 131.235,20.925 C131.585,20.615 132,20.46 132.48,20.46 L138.93,20.46 L139.35,17.46 L134.7,17.46 C133.78,17.46 133.05,17.13 132.51,16.47 C131.97,15.83 131.76,15.06 131.88,14.16 L133.47,2.76 L135.66,2.76 L135.66,0 L139.02,0 C139.76,0 140.39,0.265 140.91,0.795 C141.43,1.325 141.7,1.98 141.72,2.76 L141.72,2.76 L146.61,2.76 L146.73,2.34 C147.35,0.78 148.38,0 149.82,0 L153.45,0 L152.67,2.76 L154.89,2.76 L153.3,14.16 C153.18,15.06 152.75,15.83 152.01,16.47 C151.27,17.13 150.45,17.46 149.55,17.46 L145.17,17.46 L144.75,20.46 L152.61,20.46 L152.49,21.21 C152.43,21.69 152.22,22.085 151.86,22.395 C151.5,22.705 151.09,22.86 150.63,22.86 L144.42,22.86 L143.85,27.06 C143.79,27.42 143.63,27.715 143.37,27.945 C143.11,28.175 142.8,28.29 142.44,28.29 L137.85,28.29 L138.6,22.86 L130.47,22.86 L130.59,22.11 Z M146.07,11.16 L145.5,15.06 L146.01,15.06 C146.33,15.06 146.61,14.95 146.85,14.73 C147.09,14.51 147.23,14.25 147.27,13.95 L147.66,11.16 L146.07,11.16 Z M138.9,15.06 L139.68,15.06 L140.25,11.16 L138.36,11.16 L137.97,13.95 C137.93,14.25 138,14.51 138.18,14.73 C138.34,14.95 138.58,15.06 138.9,15.06 Z M122.73,14.7 C122.89,14.9 123.1,15 123.36,15 L130.74,15 L129.42,25.11 C129.3,25.99 128.88,26.75 128.16,27.39 C127.48,27.99 126.69,28.29 125.79,28.29 L117.03,28.29 L117.12,27.54 C117.2,27.02 117.42,26.6 117.78,26.28 C118.14,25.96 118.57,25.8 119.07,25.8 L122.46,25.8 C122.84,25.8 123.2,25.68 123.54,25.44 C123.86,25.2 124.04,24.88 124.08,24.48 L124.95,18.18 L119.37,18.18 C118.79,18.18 118.32,17.955 117.96,17.505 C117.6,17.055 117.45,16.52 117.51,15.9 L118.83,7.32 L123.66,7.32 L122.55,13.98 C122.51,14.28 122.57,14.52 122.73,14.7 Z M132.78,0.03 L131.85,6.93 C131.75,7.73 131.38,8.42 130.74,9 C130.1,9.54 129.39,9.81 128.61,9.81 L123.96,9.81 L124.38,7.32 L125.46,7.32 C125.48,7.32 125.49,7.32 125.49,7.32 C125.61,7.32 125.725,7.31 125.835,7.29 C125.945,7.27 126.04,7.22 126.12,7.14 C126.22,7.06 126.3,6.98 126.36,6.9 C126.42,6.82 126.46,6.71 126.48,6.57 L127.02,2.52 L120.96,2.52 C119.84,2.5 119.37,1.97 119.55,0.93 L119.7,0.03 L132.78,0.03 Z M138.69,8.76 L140.58,8.76 L141.06,5.16 L139.2,5.16 L138.69,8.76 Z M146.4,8.76 L147.99,8.76 L148.5,5.16 L146.91,5.16 L146.4,8.76 Z" id="形状"></path>
                            <path d="M171.69,25.26 L178.02,25.26 L179.25,16.17 L172.23,16.17 L172.47,14.52 C172.53,14.18 172.68,13.9 172.92,13.68 C173.16,13.46 173.44,13.35 173.76,13.35 L179.64,13.35 L180.66,5.4 L177.96,5.4 L177.84,5.79 C177.48,6.75 176.81,7.455 175.83,7.905 C174.85,8.355 174.01,8.58 173.31,8.58 L171.45,8.58 L173.97,0.75 L179.34,0.75 L178.65,3 L180.96,3 L181.2,1.08 C181.26,0.76 181.4,0.5 181.62,0.3 C181.84,0.1 182.09,0 182.37,0 L187.23,0 L186.84,3 L193.77,3 L193.59,4.26 C193.55,4.6 193.41,4.87 193.17,5.07 C192.95,5.29 192.69,5.4 192.39,5.4 L186.51,5.4 L185.52,13.35 L191.73,13.35 L191.49,14.82 C191.45,15.22 191.29,15.54 191.01,15.78 C190.73,16.04 190.41,16.17 190.05,16.17 L185.13,16.17 L183.9,25.26 L191.16,25.26 L190.86,27.57 C190.82,27.79 190.73,27.97 190.59,28.11 C190.45,28.23 190.29,28.29 190.11,28.29 L169.38,28.29 L169.53,27.27 C169.61,26.69 169.85,26.21 170.25,25.83 C170.65,25.45 171.13,25.26 171.69,25.26 Z M161.91,5.73 L158.61,5.73 L156.09,25.05 C158.31,24.89 159.62,23.4 160.02,20.58 L161.91,5.73 Z M163.23,28.29 L159.78,28.29 L163.02,1.8 C163.1,1.32 163.31,0.92 163.65,0.6 C163.95,0.28 164.33,0.12 164.79,0.12 L168.33,0.12 L165.06,26.49 C165,27.01 164.79,27.44 164.43,27.78 C164.09,28.12 163.69,28.29 163.23,28.29 Z M170.76,6.06 L168.12,6.06 L166.89,16.62 C166.83,17.28 167,17.87 167.4,18.39 C167.78,18.89 168.28,19.14 168.9,19.14 L169.92,19.14 L171.39,6.84 C171.41,6.62 171.36,6.43 171.24,6.27 C171.12,6.13 170.96,6.06 170.76,6.06 Z" id="形状"></path>
                            <path d="M224.52,9.87 L217.59,9.87 L218.37,7.23 L231.18,7.23 L228.66,24.9 C228.54,25.8 228.11,26.57 227.37,27.21 C226.63,27.85 225.79,28.17 224.85,28.17 L216.03,28.17 L216.09,27.72 C216.21,27.08 216.51,26.55 216.99,26.13 C217.47,25.71 218.03,25.5 218.67,25.5 L221.19,25.5 C221.49,25.5 221.76,25.4 222,25.2 C222.26,24.98 222.41,24.72 222.45,24.42 L224.52,9.87 Z M232.77,2.85 C232.69,3.25 232.495,3.585 232.185,3.855 C231.875,4.125 231.51,4.26 231.09,4.26 L218.58,4.26 L217.89,6.51 L217.89,6.51 L216.87,9.6 L216.87,9.6 L216.69,10.11 L216.69,10.11 L216.69,10.11 L211.77,25.41 C210.93,27.33 209.6,28.29 207.78,28.29 L204.45,28.29 L212.19,4.26 L207.96,4.26 L208.08,3.3 C208.14,2.88 208.325,2.54 208.635,2.28 C208.945,2.02 209.31,1.89 209.73,1.89 L217.59,1.89 L217.86,0 L222.48,0 C222.9,0 223.25,0.155 223.53,0.465 C223.81,0.775 223.93,1.15 223.89,1.59 L223.83,1.89 L232.89,1.89 L232.77,2.85 Z M199.38,1.47 C199.94,0.53 200.7,0.06 201.66,0.06 L206.58,0.06 L202.8,8.01 L204.57,8.01 L201.69,28.14 L195.42,28.14 L197.97,10.29 L195,10.29 L199.38,1.47 Z" id="形状"></path>
                            <path d="M236.91,23.1 L234,28.29 L238.41,28.29 C239.47,28.29 240.32,27.78 240.96,26.76 L242.94,23.1 L236.91,23.1 Z M259.5,1.17 L271.89,1.17 L271.74,2.22 C271.68,2.5 271.555,2.725 271.365,2.895 C271.175,3.065 270.94,3.15 270.66,3.15 L259.11,3.15 L258.9,4.32 L269.76,4.32 C270.16,4.32 270.48,4.42 270.72,4.62 C270.98,4.82 271.09,5.11 271.05,5.49 L268.98,20.31 L270.27,20.31 L270.09,21.6 C270.03,21.88 269.9,22.11 269.7,22.29 C269.5,22.47 269.26,22.56 268.98,22.56 L234.24,22.56 L234.42,21.27 C234.48,20.99 234.61,20.76 234.81,20.58 C235.01,20.4 235.25,20.31 235.53,20.31 L236.49,20.31 L238.56,5.61 C238.62,5.23 238.785,4.92 239.055,4.68 C239.325,4.44 239.65,4.32 240.03,4.32 L245.28,4.32 L244.65,8.73 L264.21,8.73 L264.51,6.57 L246.03,6.57 L246.33,4.32 L251.49,4.32 L251.64,3.15 L238.83,3.15 L238.98,2.1 C239.02,1.82 239.14,1.595 239.34,1.425 C239.54,1.255 239.77,1.17 240.03,1.17 L251.94,1.17 L251.97,0.9 C252.01,0.64 252.13,0.42 252.33,0.24 C252.53,0.08 252.76,0 253.02,0 L259.68,0 L259.5,1.17 Z M261.54,23.1 L262.5,28.29 L268.71,28.29 L268.11,24.81 C267.99,24.31 267.74,23.9 267.36,23.58 C266.98,23.26 266.54,23.1 266.04,23.1 L261.54,23.1 Z M263.97,10.47 L244.41,10.47 L244.14,12.39 L263.7,12.39 L263.97,10.47 Z M243.87,14.34 L243.6,16.32 L263.16,16.32 L263.43,14.34 L243.87,14.34 Z M243.03,20.31 L262.59,20.31 L262.89,18.24 L243.33,18.24 L243.03,20.31 Z" id="形状"></path>
                        </g>
                    </g>
                </g>
            </g>
        </g>
    </g>
</svg>