<?xml version="1.0" encoding="UTF-8"?>
<svg width="326.6688px" height="22.632px" viewBox="0 0 326.6688 22.632" version="1.1" xmlns="http://www.w3.org/2000/svg" xmlns:xlink="http://www.w3.org/1999/xlink">
    <title>多学科耦合综合优化模块</title>
    <g id="页面-1" stroke="none" stroke-width="1" fill="none" fill-rule="evenodd" opacity="0.8">
        <g id="CADO" transform="translate(-803.720000, -2591.768000)" fill="#EFEFEF" fill-rule="nonzero">
            <g id="编组-37" transform="translate(360.000000, 1995.000000)">
                <g id="编组-4" transform="translate(0.000000, 180.000000)">
                    <g id="编组-5" transform="translate(410.000000, 250.000000)">
                        <g id="多学科耦合综合优化模块" transform="translate(33.720000, 166.768000)">
                            <path d="M0,22.584 L0,22.584 L22.008,22.584 C22.728,22.584 23.36,22.344 23.904,21.864 C24.448,21.368 24.856,20.768 25.128,20.064 L28.032,11.928 L7.008,11.928 L7.536,10.992 L3.144,10.992 L0.624,15.432 L3.768,15.432 C4.552,15.432 5.216,15.016 5.76,14.184 L5.88,14.04 L22.488,14.04 L20.76,19.032 C20.664,19.304 20.504,19.544 20.28,19.752 C20.056,19.944 19.808,20.04 19.536,20.04 L2.28,20.04 C1.784,20.04 1.3,20.32 0.828,20.88 C0.356,21.44 0.08,22.008 0,22.584 Z M4.104,8.352 C3.656,8.352 3.28,8.424 2.976,8.568 C2.672,8.712 2.424,8.888 2.232,9.096 C2.04,9.304 1.896,9.512 1.8,9.72 C1.704,9.928 1.636,10.104 1.596,10.248 C1.556,10.392 1.536,10.464 1.536,10.464 L23.664,10.464 C24.368,10.464 24.976,10.232 25.488,9.768 C26,9.288 26.424,8.72 26.76,8.064 L29.832,0.84 L8.736,0.84 L9.192,0.144 L4.8,0.144 L2.496,3.672 L5.856,3.672 C6.528,3.672 7.064,3.408 7.464,2.88 L7.464,2.88 L24.168,2.88 L22.296,7.392 C22.168,7.648 22.008,7.872 21.816,8.064 C21.56,8.256 21.176,8.352 20.664,8.352 L4.104,8.352 Z M4.32,4.512 L4.32,4.512 C4.272,5.056 4.392,5.512 4.68,5.88 C4.968,6.248 5.368,6.448 5.88,6.48 L20.112,7.032 L20.376,5.136 L4.32,4.512 Z M3.36,15.888 L3.36,15.888 C3.312,16.448 3.432,16.916 3.72,17.292 C4.008,17.668 4.408,17.88 4.92,17.928 L19.08,19.104 L19.296,17.208 L3.36,15.888 Z" id="形状"></path>
                            <path d="M32.412,7.512 C32.604,7.944 32.86,8.296 33.18,8.568 C33.516,8.84 33.996,8.976 34.62,8.976 L48.036,8.976 L41.916,12.24 L41.7,13.248 L31.092,13.248 C30.74,13.248 30.436,13.336 30.18,13.512 C29.908,13.688 29.74,13.904 29.676,14.16 L29.46,15.48 L41.292,15.48 L40.38,19.92 C40.348,20.112 40.236,20.28 40.044,20.424 C39.852,20.6 39.644,20.688 39.42,20.688 L36.228,20.688 C35.86,20.688 35.54,20.76 35.268,20.904 C34.98,21.048 34.812,21.264 34.764,21.552 L34.572,22.632 L43.236,22.632 C43.94,22.632 44.58,22.432 45.156,22.032 C45.716,21.664 46.044,21.232 46.14,20.736 L47.196,15.48 L56.412,15.48 C56.78,15.48 57.1,15.36 57.372,15.12 C57.644,14.896 57.82,14.64 57.9,14.352 L58.116,13.248 L47.604,13.248 L55.74,9.312 C56.06,9.136 56.284,8.88 56.412,8.544 L57.012,6.768 L32.052,6.768 L32.412,7.512 Z M58.38,0.024 L54.276,0.024 C53.508,0.008 53.004,0.048 52.764,0.144 C52.236,0.272 51.852,0.608 51.612,1.152 L51.18,2.112 L48.156,2.112 L48.492,0 L43.212,0 C42.892,0 42.604,0.096 42.348,0.288 C42.108,0.48 41.956,0.728 41.892,1.032 L41.724,2.112 L38.556,2.112 L38.292,0 L33.804,0 C33.42,0 33.1,0.12 32.844,0.36 C32.588,0.616 32.476,0.912 32.508,1.248 L32.652,2.112 L31.596,2.112 C31.292,2.112 31.028,2.208 30.804,2.4 C30.58,2.576 30.444,2.808 30.396,3.096 L30.036,5.928 L35.988,5.928 L36.204,4.152 L52.548,4.152 L51.828,5.928 L57.276,5.928 C57.82,5.928 58.284,5.784 58.668,5.496 C59.068,5.192 59.316,4.8 59.412,4.32 L59.772,2.112 L57.444,2.112 L58.38,0.024 Z" id="形状"></path>
                            <path d="M61.968,9.672 L59.616,22.632 C60.448,22.632 61.2,22.344 61.872,21.768 C62.544,21.192 62.976,20.472 63.168,19.608 L65.16,8.592 L63.216,8.592 C62.928,8.592 62.664,8.696 62.424,8.904 C62.184,9.096 62.032,9.352 61.968,9.672 Z M65.976,7.44 L63.984,22.632 L67.8,22.632 C68.024,22.632 68.224,22.544 68.4,22.368 C68.576,22.208 68.688,22 68.736,21.744 L70.584,7.44 L73.848,7.44 C74.152,7.44 74.432,7.328 74.688,7.104 C74.928,6.864 75.072,6.576 75.12,6.24 L75.24,5.4 L70.872,5.4 L71.304,1.944 L74.184,1.944 C74.552,1.944 74.888,1.8 75.192,1.512 C75.48,1.24 75.656,0.896 75.72,0.48 L75.768,0.024 L63.912,0.024 C63.576,0.024 63.272,0.152 63,0.408 C62.744,0.664 62.584,0.984 62.52,1.368 L62.448,1.944 L66.696,1.944 L66.216,5.4 L62.688,5.4 C62.448,5.4 62.232,5.496 62.04,5.688 C61.848,5.864 61.736,6.08 61.704,6.336 L61.56,7.44 L65.976,7.44 Z M71.136,8.592 L70.032,20.448 C69.984,21.072 70.152,21.592 70.536,22.008 C70.904,22.424 71.384,22.632 71.976,22.632 L72.864,22.632 L74.112,9.36 C74.128,9.136 74.072,8.952 73.944,8.808 C73.816,8.664 73.648,8.592 73.44,8.592 L71.136,8.592 Z M82.44,18.84 L81.912,22.632 L85.968,22.632 L86.496,18.84 L87.84,18.84 C88.016,18.84 88.176,18.784 88.32,18.672 C88.448,18.544 88.528,18.392 88.56,18.216 L88.8,16.536 L86.832,16.536 L89.184,0.072 L86.376,0.072 C86.04,0.072 85.736,0.192 85.464,0.432 C85.176,0.672 85.016,0.96 84.984,1.296 L82.776,16.536 L75.264,16.536 C75.024,16.536 74.808,16.616 74.616,16.776 C74.44,16.936 74.328,17.136 74.28,17.376 L74.064,18.84 L82.44,18.84 Z M82.92,11.208 L75.432,8.184 C75.224,9.816 75.84,10.984 77.28,11.688 L82.392,13.776 L82.92,11.208 Z M83.76,4.392 L76.608,1.152 L76.536,1.512 C76.392,3.064 76.968,4.184 78.264,4.872 L83.232,7.2 L83.76,4.392 Z" id="形状"></path>
                            <path d="M102.876,9.144 L98.94,9.144 L99.18,7.128 L101.748,7.128 C102.068,7.128 102.348,7 102.588,6.744 C102.828,6.504 102.972,6.184 103.02,5.784 L103.116,4.968 L99.42,4.968 L99.636,3.096 L102.348,3.096 C102.668,3.096 102.94,2.976 103.164,2.736 C103.404,2.48 103.548,2.16 103.596,1.776 L103.668,1.08 L99.876,1.08 L99.996,0 L96.204,0 C95.98,0 95.788,0.096 95.628,0.288 C95.452,0.464 95.34,0.68 95.292,0.936 L95.292,1.08 L92.46,1.08 C92.14,1.08 91.86,1.208 91.62,1.464 C91.396,1.704 91.26,2.024 91.212,2.424 L91.14,3.096 L95.052,3.096 L94.86,4.968 L92.148,4.968 C91.828,4.968 91.548,5.088 91.308,5.328 C91.068,5.584 90.924,5.904 90.876,6.288 L90.78,7.128 L94.596,7.128 L94.38,9.144 L91.068,9.144 C90.876,9.144 90.716,9.216 90.588,9.36 C90.46,9.488 90.38,9.664 90.348,9.888 L90.204,11.16 L90.708,11.16 L88.86,22.632 L90.06,22.632 C90.54,22.632 90.972,22.44 91.356,22.056 C91.724,21.688 91.956,21.208 92.052,20.616 L93.588,11.16 L94.14,11.16 L92.82,22.632 L97.404,22.632 L98.724,11.16 L99.132,11.16 L98.556,19.944 C98.524,20.68 98.708,21.312 99.108,21.84 C99.492,22.368 99.988,22.632 100.596,22.632 L101.268,22.632 L102.036,11.16 C102.212,11.16 102.364,11.088 102.492,10.944 C102.62,10.816 102.7,10.648 102.732,10.44 L102.876,9.144 Z M101.844,22.632 L105.516,22.632 L106.5,14.088 L106.548,13.632 L106.74,11.928 L104.604,11.928 C104.156,11.928 103.772,12.104 103.452,12.456 C103.132,12.808 102.932,13.248 102.852,13.776 L101.844,22.632 Z M112.716,11.928 L112.836,10.848 L115.98,10.848 C116.524,10.848 117.012,10.632 117.444,10.2 C117.876,9.752 118.124,9.192 118.188,8.52 L119.172,0 L108.9,0 L108.684,1.848 L109.428,1.848 L109.14,4.344 L108.012,4.344 L108.06,3.792 L108.276,1.848 L108.492,0 L104.436,0 L103.452,8.52 C103.388,9.192 103.524,9.752 103.86,10.2 C104.228,10.632 104.684,10.848 105.228,10.848 L108.396,10.848 L108.276,11.928 L107.388,11.928 L107.196,13.632 L108.06,13.632 L107.676,17.184 L107.436,17.184 C107.196,17.184 106.996,17.28 106.836,17.472 C106.676,17.648 106.58,17.88 106.548,18.168 L106.452,18.912 L111.708,18.912 L111.612,19.992 L113.076,19.992 L113.316,16.944 C113.348,16.544 113.26,16.2 113.052,15.912 C112.828,15.64 112.564,15.504 112.26,15.504 L111.972,15.504 L111.828,17.184 L111.492,17.184 L111.9,13.632 L114.036,13.632 L113.316,19.992 C113.3,20.168 113.228,20.32 113.1,20.448 C112.94,20.56 112.788,20.616 112.644,20.616 L111.516,20.616 C111.196,20.616 110.924,20.736 110.7,20.976 C110.492,21.216 110.364,21.52 110.316,21.888 L110.22,22.632 L114.78,22.632 C115.308,22.632 115.788,22.392 116.22,21.912 C116.652,21.448 116.9,20.888 116.964,20.232 L117.924,11.928 L112.716,11.928 Z M108.612,8.976 L108.036,8.976 C107.892,8.976 107.764,8.928 107.652,8.832 C107.604,8.784 107.572,8.728 107.556,8.664 C107.54,8.6 107.532,8.52 107.532,8.424 L107.796,6.216 L108.948,6.216 L108.612,8.976 Z M113.388,6.216 L114.396,6.216 L114.132,8.424 C114.116,8.52 114.1,8.6 114.084,8.664 C114.068,8.728 114.028,8.784 113.964,8.832 C113.9,8.896 113.844,8.936 113.796,8.952 C113.732,8.968 113.668,8.976 113.604,8.976 L113.076,8.976 L113.388,6.216 Z M114.9,1.848 L114.612,4.344 L113.604,4.344 L113.868,1.848 L114.9,1.848 Z" id="形状"></path>
                            <path d="M126.288,13.224 L141.936,13.224 L141.072,19.488 C141.024,19.824 140.872,20.104 140.616,20.328 C140.36,20.568 140.056,20.688 139.704,20.688 L125.712,20.688 C125.376,20.688 125.112,20.568 124.92,20.328 C124.728,20.104 124.656,19.824 124.704,19.488 L125.832,11.28 L119.808,11.28 L118.584,19.944 C118.488,20.68 118.656,21.312 119.088,21.84 C119.552,22.368 120.152,22.632 120.888,22.632 L143.64,22.632 C144.392,22.632 145.056,22.368 145.632,21.84 C146.224,21.312 146.576,20.68 146.688,19.944 L147.888,11.28 L126.552,11.28 L126.288,13.224 Z M126.96,2.712 C127.168,2.36 127.488,2.184 127.92,2.184 L142.152,2.184 C142.584,2.184 142.832,2.36 142.896,2.712 L143.448,5.064 C143.512,5.4 143.704,5.68 144.024,5.904 C144.344,6.128 144.712,6.24 145.128,6.24 L148.872,6.24 L148.056,1.2 C147.976,0.832 147.784,0.544 147.48,0.336 C147.16,0.112 146.76,0 146.28,0 L124.464,0 C124,0 123.552,0.088 123.12,0.264 C122.704,0.504 122.408,0.816 122.232,1.2 L119.832,6.24 L124.44,6.24 C125.016,6.24 125.456,6.008 125.76,5.544 L126.96,2.712 Z M120.096,9.672 L146.976,9.672 C147.248,9.672 147.488,9.576 147.696,9.384 C147.92,9.208 148.056,8.976 148.104,8.688 L148.32,7.416 L121.44,7.416 C121.168,7.416 120.92,7.512 120.696,7.704 C120.488,7.896 120.36,8.136 120.312,8.424 L120.096,9.672 Z" id="形状"></path>
                            <path d="M160.404,12.288 L160.524,11.448 C160.572,11.128 160.708,10.86 160.932,10.644 C161.156,10.428 161.42,10.32 161.724,10.32 L177.396,10.32 L177.276,11.4 C177.228,11.656 177.116,11.868 176.94,12.036 C176.764,12.204 176.548,12.288 176.292,12.288 L171.084,12.288 L170.076,20.04 C169.996,20.76 169.692,21.368 169.164,21.864 C168.652,22.36 168.052,22.608 167.364,22.608 L163.836,22.608 L164.004,21.384 C164.02,21.224 164.084,21.092 164.196,20.988 C164.308,20.884 164.444,20.832 164.604,20.832 L164.604,20.832 C164.844,20.832 165.044,20.736 165.204,20.544 C165.364,20.384 165.46,20.168 165.492,19.896 L166.476,12.288 L160.404,12.288 Z M172.332,13.68 L175.356,13.68 C175.612,13.68 175.824,13.78 175.992,13.98 C176.16,14.18 176.244,14.416 176.244,14.688 L175.764,22.608 L175.764,22.608 C174.692,22.608 173.796,22.196 173.076,21.372 C172.356,20.548 172.02,19.544 172.068,18.36 L172.332,13.68 Z M149.028,19.848 C149.252,19.656 149.492,19.544 149.748,19.512 L158.052,18.744 L157.764,20.496 C157.732,20.704 157.628,20.896 157.452,21.072 C157.308,21.232 157.14,21.328 156.948,21.36 L148.428,22.08 L148.692,20.592 C148.74,20.304 148.852,20.056 149.028,19.848 Z M160.692,3.384 L154.716,13.392 C154.7,13.424 154.684,13.448 154.668,13.464 C154.636,13.496 154.616,13.52 154.608,13.536 C154.6,13.552 154.596,13.576 154.596,13.608 C154.596,13.688 154.676,13.72 154.836,13.704 L158.388,13.344 C158.548,13.344 158.676,13.392 158.772,13.488 C158.836,13.616 158.852,13.776 158.82,13.968 L158.364,16.152 L149.892,17.112 C149.636,17.128 149.46,17.032 149.364,16.824 C149.236,16.6 149.236,16.368 149.364,16.128 L153.9,8.928 L150.252,8.928 C149.98,8.928 149.796,8.8 149.7,8.544 C149.572,8.32 149.58,8.08 149.724,7.824 L153.828,0.36 C154.004,0.12 154.332,0 154.812,0 L157.5,0 L153.876,6.672 C153.7,6.992 153.764,7.152 154.068,7.152 L154.884,7.152 L156.804,3.792 C157.012,3.52 157.236,3.384 157.476,3.384 L160.692,3.384 Z M159.012,22.608 L160.692,14.208 C160.724,14.048 160.796,13.92 160.908,13.824 C161.02,13.728 161.148,13.68 161.292,13.68 L164.748,13.68 L163.764,18.576 C163.508,19.776 162.948,20.748 162.084,21.492 C161.22,22.236 160.228,22.608 159.108,22.608 L159.012,22.608 Z M177.924,1.488 C178.292,1.936 178.428,2.488 178.332,3.144 L178.116,4.968 L173.508,4.968 L173.724,3.288 C173.74,3.16 173.708,3.048 173.628,2.952 C173.532,2.84 173.42,2.784 173.292,2.784 L166.98,2.784 L167.244,0.792 L167.964,0.792 L168.084,0 L171.924,0 C172.132,0 172.296,0.08 172.416,0.24 C172.536,0.4 172.588,0.584 172.572,0.792 L172.572,0.792 L176.484,0.792 C177.076,0.792 177.556,1.024 177.924,1.488 Z M165.996,3.288 L165.924,3.744 L165.924,3.768 L165.78,4.968 L161.172,4.968 L161.412,3.144 C161.508,2.488 161.804,1.936 162.3,1.488 C162.796,1.024 163.34,0.792 163.932,0.792 L166.308,0.792 L165.996,3.288 Z M161.268,7.008 C161.316,6.768 161.424,6.564 161.592,6.396 C161.76,6.228 161.964,6.144 162.204,6.144 L177.588,6.144 L177.468,6.96 C177.436,7.248 177.324,7.484 177.132,7.668 C176.94,7.852 176.708,7.944 176.436,7.944 L161.148,7.944 L161.268,7.008 Z" id="形状"></path>
                            <path d="M185.688,13.224 L201.336,13.224 L200.472,19.488 C200.424,19.824 200.272,20.104 200.016,20.328 C199.76,20.568 199.456,20.688 199.104,20.688 L185.112,20.688 C184.776,20.688 184.512,20.568 184.32,20.328 C184.128,20.104 184.056,19.824 184.104,19.488 L185.232,11.28 L179.208,11.28 L177.984,19.944 C177.888,20.68 178.056,21.312 178.488,21.84 C178.952,22.368 179.552,22.632 180.288,22.632 L203.04,22.632 C203.792,22.632 204.456,22.368 205.032,21.84 C205.624,21.312 205.976,20.68 206.088,19.944 L207.288,11.28 L185.952,11.28 L185.688,13.224 Z M186.36,2.712 C186.568,2.36 186.888,2.184 187.32,2.184 L201.552,2.184 C201.984,2.184 202.232,2.36 202.296,2.712 L202.848,5.064 C202.912,5.4 203.104,5.68 203.424,5.904 C203.744,6.128 204.112,6.24 204.528,6.24 L208.272,6.24 L207.456,1.2 C207.376,0.832 207.184,0.544 206.88,0.336 C206.56,0.112 206.16,0 205.68,0 L183.864,0 C183.4,0 182.952,0.088 182.52,0.264 C182.104,0.504 181.808,0.816 181.632,1.2 L179.232,6.24 L183.84,6.24 C184.416,6.24 184.856,6.008 185.16,5.544 L186.36,2.712 Z M179.496,9.672 L206.376,9.672 C206.648,9.672 206.888,9.576 207.096,9.384 C207.32,9.208 207.456,8.976 207.504,8.688 L207.72,7.416 L180.84,7.416 C180.568,7.416 180.32,7.512 180.096,7.704 C179.888,7.896 179.76,8.136 179.712,8.424 L179.496,9.672 Z" id="形状"></path>
                            <path d="M208.044,22.632 L211.62,22.632 C212.068,22.632 212.452,22.492 212.772,22.212 C213.092,21.932 213.292,21.568 213.372,21.12 L215.436,6.792 L213.996,6.792 L217.14,0 L212.34,0 C212.036,0 211.804,0.152 211.644,0.456 L207.66,8.616 L210.06,8.616 L208.044,22.632 Z M214.596,22.632 L216.252,22.632 C218.364,22.632 219.98,21.576 221.1,19.464 L227.052,5.832 L236.364,5.832 C236.748,5.832 237.084,5.712 237.372,5.472 C237.66,5.232 237.836,4.92 237.9,4.536 L237.972,3.912 L236.22,3.912 L236.316,2.304 C236.332,1.68 236.132,1.156 235.716,0.732 C235.3,0.308 234.78,0.096 234.156,0.096 L231.684,0.096 L231.468,3.912 L227.82,3.912 L228.972,0 L224.964,0 C224.324,0 223.86,0.336 223.572,1.008 L222.708,3.912 L219.204,3.912 C218.82,3.912 218.488,4.036 218.208,4.284 C217.928,4.532 217.756,4.848 217.692,5.232 L217.596,5.832 L221.916,5.832 L214.596,22.632 Z M228.948,22.632 L235.38,22.632 L235.38,22.632 C235.428,22.12 235.284,21.676 234.948,21.3 C234.612,20.924 234.188,20.736 233.676,20.736 L232.236,20.736 C231.996,20.736 231.796,20.648 231.636,20.472 C231.476,20.312 231.42,20.104 231.468,19.848 L233.292,7.032 L228.852,7.032 C228.66,7.032 228.492,7.092 228.348,7.212 C228.204,7.332 228.116,7.488 228.084,7.68 L226.38,19.68 C226.268,20.512 226.46,21.216 226.956,21.792 C227.452,22.352 228.116,22.632 228.948,22.632 Z" id="形状"></path>
                            <path d="M247.848,8.016 C247.48,8.112 247.256,8.344 247.176,8.712 L246.84,10.968 L251.808,9.96 L250.368,19.8 C250.256,20.52 250.44,21.12 250.92,21.6 C251.384,22.096 251.992,22.344 252.744,22.344 L264.84,22.344 L264.84,22.32 C264.904,21.808 264.768,21.368 264.432,21 C264.096,20.632 263.664,20.448 263.136,20.448 L256.392,20.448 C256.136,20.448 255.928,20.36 255.768,20.184 C255.624,20.008 255.568,19.8 255.6,19.56 L257.16,8.928 L263.904,7.56 C265.776,7.096 266.888,5.96 267.24,4.152 L267.24,4.152 L257.568,6.096 L258.48,0 L254.208,0 C253.952,0 253.724,0.084 253.524,0.252 C253.324,0.42 253.2,0.632 253.152,0.888 L252.24,7.152 L247.848,8.016 Z M242.808,0.096 L247.536,0.096 L244.272,6.504 L245.736,6.504 L243.216,21.72 C243.168,21.976 243.044,22.192 242.844,22.368 C242.644,22.544 242.408,22.632 242.136,22.632 L237.864,22.632 L240.24,8.448 L237.792,8.448 L241.848,0.696 C242.072,0.296 242.392,0.096 242.808,0.096 Z" id="形状"></path>
                            <path d="M284.388,21.288 C283.716,22.184 282.884,22.632 281.892,22.632 L278.532,22.632 L282.756,16.704 L279.324,16.704 L279.468,15.672 C279.5,15.416 279.604,15.208 279.78,15.048 C279.956,14.888 280.164,14.808 280.404,14.808 L283.908,14.808 L284.628,13.608 L282.372,13.608 C281.764,13.608 281.276,13.376 280.908,12.912 C280.54,12.448 280.396,11.896 280.476,11.256 L281.412,4.2 L286.068,4.2 L285.828,6.096 L285.636,7.56 L285.612,7.728 L291.3,7.728 L291.516,6.096 L286.308,6.096 L286.548,4.2 L296.436,4.2 L295.5,11.256 C295.42,11.896 295.132,12.448 294.636,12.912 C294.14,13.376 293.588,13.608 292.98,13.608 L289.524,13.608 L288.828,14.808 L295.452,14.808 L295.332,15.672 C295.284,15.976 295.156,16.224 294.948,16.416 C294.74,16.608 294.492,16.704 294.204,16.704 L292.452,16.704 L294.42,22.632 L291.54,22.632 C290.324,22.632 289.412,21.96 288.804,20.616 L287.484,16.848 L284.388,21.288 Z M285.372,9.624 L285.18,10.992 C285.148,11.184 285.188,11.352 285.3,11.496 C285.412,11.624 285.572,11.688 285.78,11.688 L290.076,11.688 C290.284,11.688 290.46,11.624 290.604,11.496 C290.748,11.352 290.836,11.184 290.868,10.992 L291.036,9.624 L285.372,9.624 Z M270.444,22.632 L272.916,3.888 L269.796,3.888 L269.892,2.976 C269.94,2.688 270.068,2.448 270.276,2.256 C270.484,2.064 270.724,1.968 270.996,1.968 L273.156,1.968 L273.276,1.056 C273.324,0.752 273.456,0.5 273.672,0.3 C273.888,0.1 274.14,0 274.428,0 L277.812,0 L277.548,1.968 L280.74,1.968 L280.62,2.856 C280.572,3.16 280.448,3.408 280.248,3.6 C280.048,3.792 279.812,3.888 279.54,3.888 L277.308,3.888 L274.908,22.104 C274.876,22.264 274.808,22.392 274.704,22.488 C274.6,22.584 274.476,22.632 274.332,22.632 L270.444,22.632 Z M272.364,5.112 L269.844,20.808 C269.748,21.352 269.508,21.792 269.124,22.128 C268.74,22.464 268.3,22.632 267.804,22.632 L267.156,22.632 L269.82,6.048 C269.868,5.776 269.992,5.552 270.192,5.376 C270.392,5.2 270.612,5.112 270.852,5.112 L272.364,5.112 Z M277.572,5.112 L279.972,5.112 L278.148,22.632 L277.764,22.632 C277.236,22.632 276.796,22.428 276.444,22.02 C276.092,21.612 275.94,21.112 275.988,20.52 L277.572,5.112 Z M282.3,3.504 L282.42,2.616 L281.172,2.616 L281.34,1.32 C281.372,1.144 281.448,1 281.568,0.888 C281.688,0.776 281.828,0.72 281.988,0.72 L282.66,0.72 L282.66,0.72 C282.692,0.512 282.78,0.34 282.924,0.204 C283.068,0.068 283.236,0 283.428,0 L287.388,0 L287.292,0.72 L291.42,0.72 L291.444,0.6 C291.46,0.424 291.528,0.28 291.648,0.168 C291.768,0.056 291.908,0 292.068,0 L296.172,0 L296.076,0.72 L297.3,0.72 L297.132,2.016 C297.1,2.192 297.024,2.336 296.904,2.448 C296.784,2.56 296.644,2.616 296.484,2.616 L295.836,2.616 L295.788,2.904 C295.772,3.08 295.704,3.224 295.584,3.336 C295.464,3.448 295.324,3.504 295.164,3.504 L291.06,3.504 L291.18,2.616 L287.052,2.616 L287.028,2.784 C286.996,2.992 286.908,3.164 286.764,3.3 C286.62,3.436 286.452,3.504 286.26,3.504 L282.3,3.504 Z" id="形状"></path>
                            <path d="M302.28,3.744 L300.432,3.744 C300.24,3.744 300.064,3.816 299.904,3.96 C299.744,4.104 299.648,4.28 299.616,4.488 L299.424,5.832 L301.992,5.832 L300.264,19.44 L298.368,19.608 C298.16,19.624 297.984,19.704 297.84,19.848 C297.68,19.992 297.584,20.176 297.552,20.4 L297.336,22.08 L306.768,21.36 C306.976,21.344 307.152,21.264 307.296,21.12 C307.44,20.992 307.528,20.824 307.56,20.616 L307.8,18.864 L305.184,19.08 L306.888,5.832 L308.808,5.832 C308.984,5.832 309.144,5.768 309.288,5.64 C309.432,5.512 309.52,5.352 309.552,5.16 L309.744,3.744 L307.176,3.744 L307.632,0.408 L303.456,0.408 C303.264,0.408 303.088,0.48 302.928,0.624 C302.768,0.768 302.672,0.944 302.64,1.152 L302.28,3.744 Z M310.704,14.88 L307.776,22.632 L309.072,22.632 C310.112,22.632 311.08,22.304 311.976,21.648 C312.872,21.008 313.52,20.16 313.92,19.104 L315.576,14.88 L324.552,14.88 C324.744,14.88 324.912,14.808 325.056,14.664 C325.216,14.52 325.312,14.352 325.344,14.16 L325.56,12.6 L324.72,12.6 L326.64,4.224 C326.736,3.568 326.592,3.016 326.208,2.568 C325.824,2.104 325.312,1.872 324.672,1.872 L319.536,1.872 L320.208,0.072 L316.32,0.072 C316.032,0.072 315.76,0.16 315.504,0.336 C315.248,0.528 315.064,0.768 314.952,1.056 L314.664,1.872 L311.16,1.872 C310.968,1.872 310.792,1.944 310.632,2.088 C310.472,2.232 310.368,2.408 310.32,2.616 L310.176,3.768 L313.968,3.768 L311.448,12.6 L308.4,12.6 C308.208,12.6 308.032,12.672 307.872,12.816 C307.728,12.944 307.64,13.104 307.608,13.296 L307.392,14.88 L310.704,14.88 Z M317.712,15.792 L319.488,20.04 C319.872,20.872 320.312,21.512 320.808,21.96 C321.304,22.408 321.96,22.632 322.776,22.632 L324.936,22.632 L322.584,16.368 C322.456,15.984 322.208,15.792 321.84,15.792 L317.712,15.792 Z M322.704,4.368 L320.808,12.6 L316.512,12.6 L319.032,3.768 L322.224,3.768 C322.368,3.768 322.488,3.824 322.584,3.936 C322.696,4.064 322.736,4.208 322.704,4.368 Z" id="形状"></path>
                        </g>
                    </g>
                </g>
            </g>
        </g>
    </g>
</svg>