<?xml version="1.0" encoding="UTF-8"?>
<svg width="40px" height="44px" viewBox="0 0 40 44" version="1.1" xmlns="http://www.w3.org/2000/svg" xmlns:xlink="http://www.w3.org/1999/xlink">
    <title>形状结合</title>
    <g id="页面-1" stroke="none" stroke-width="1" fill="none" fill-rule="evenodd">
        <g id="CDEM" transform="translate(-690.000000, -1521.000000)" fill="#E0E0E0" fill-rule="nonzero">
            <g id="banner推荐入口" transform="translate(360.000000, 1435.000000)">
                <g id="独立体系" transform="translate(330.000000, 86.000000)">
                    <path d="M20.0000612,0 C23.1111958,0 25.7778825,2.95629619 27.4882658,8.32988015 C28.0356773,8.13943968 28.5482737,8.01225019 29.0267959,7.8850607 C33.9157216,6.57879029 37.5068597,7.02635979 39.1135385,9.09301708 C40.7202173,11.1596744 40.0713235,14.4659135 37.1987093,18.3744121 C36.2538684,19.6296096 35.2262164,20.8293184 34.1216491,21.9666557 C39.4550226,27.4034907 41.2676288,32.0765012 39.1135385,34.8746699 C38.1216792,36.1465648 36.343888,36.8457632 33.9505367,36.8457632 C31.9490668,36.7841578 29.967968,36.4520344 28.0697516,35.8598728 C27.8645649,35.7966218 27.6934525,35.7326833 27.4882658,35.6694323 C27.420183,35.8463875 27.3630523,36.0268095 27.3171534,36.2098158 C25.6075109,41.3297083 23.0771214,44 20.0341355,44 C16.923001,44 14.2563142,41.0437038 12.545931,35.7024329 C10.4649295,36.4234964 8.27000367,36.8209443 6.04958576,36.8787637 C3.6562344,36.8787637 1.87844323,36.2111908 0.886583912,34.9076704 C-1.26750639,32.1418147 0.544359112,27.4364912 5.87847336,21.9996562 C4.77392046,20.8623075 3.74626924,19.6625996 2.80141315,18.4074126 C-0.0363860028,14.4968515 -0.720094856,11.1885498 0.886583912,9.09232957 C2.49326268,6.99610931 6.08366009,6.58085283 10.9733266,7.88437319 C11.1785133,7.94762418 11.4177743,8.01156268 11.6570354,8.07481367 L12.1014832,8.20200316 C12.2385213,8.23362865 12.3748186,8.29756715 12.5118567,8.32919264 C12.579978,8.15224912 12.6371093,7.97182505 12.6829691,7.7888092 C14.4266859,2.70122971 16.9570753,0 20.0000612,0 Z M20.0341355,32.4594447 C18.4310925,33.3211337 16.7757269,34.0961049 15.0763204,34.7804809 C16.3755895,38.8814825 18.324493,41.4885233 20.0341355,41.4885233 C21.6756294,41.4885233 23.4874949,39.1358615 24.8208383,35.3524899 L25.026025,34.7804809 C24.8208383,34.684917 24.6156515,34.621666 24.3763905,34.526102 C23.0089728,33.954093 21.5726657,33.2542071 20.0341355,32.4594447 Z M32.3438579,23.8112471 C31.3519986,24.7015735 30.3268057,25.5918999 29.2667977,26.4182878 C29.1049713,28.5011705 28.7966577,30.5720114 28.3438278,32.6175721 C28.3090127,32.8410131 28.2749384,33.0314536 28.240864,33.2542071 L28.8564242,33.4446476 C32.9253438,34.6821669 36.0712934,34.6821669 37.0283376,33.4446476 C38.259458,31.8867482 36.3105544,27.9445616 32.3438579,23.8112471 Z M7.75922827,23.8119346 C3.79327247,27.9452491 1.87844323,31.8874357 3.07474854,33.4453351 C4.1006822,34.7516055 7.51922646,34.6532915 11.8622221,33.2225816 C11.4107643,31.3469494 11.0908313,29.4461188 10.9044371,27.5320552 C10.8703628,27.1504867 10.8362885,26.7689183 10.8014734,26.4196628 C10.528138,26.1969093 10.2548026,25.9748434 10.0148008,25.7837154 L9.87776275,25.6565259 C9.14719703,25.0662442 8.44053074,24.4509554 7.75922827,23.8119346 Z M13.7089027,28.5818841 C13.7366244,28.6931821 13.7560153,28.8060574 13.7669669,28.9197011 L13.7770514,29.0899545 C13.9481638,30.1707214 14.1533505,31.2838013 14.3926116,32.3329427 C15.4123198,31.9098041 16.4158946,31.4539392 17.4015231,30.9661713 C16.407929,30.3861057 15.438573,29.7710226 14.4955753,29.1222675 C14.4274266,29.090642 14.3585372,29.0267035 14.2903886,28.995078 L14.1533505,28.8995141 C13.9971234,28.8037481 13.8485846,28.697593 13.7089027,28.5818841 Z M26.3949242,28.6128221 C26.1215888,28.8032626 25.8823277,28.962765 25.6082516,29.1532055 C24.6504666,29.75684 23.6934224,30.3611619 22.701563,30.9647963 C23.6250268,31.4105325 24.4455268,31.7921009 25.1630631,32.1101892 C25.3341755,32.1734402 25.5393622,32.2690042 25.7104746,32.3329427 C25.7399248,32.1599425 25.7857823,31.9896949 25.8475127,31.8241848 C26.0526994,30.8706074 26.2578861,29.789153 26.3949242,28.6128221 Z M20.0696914,14.5277895 C18.7015329,15.3225519 17.3681895,16.1173143 16.1029948,16.9760153 C15.1804908,17.5953641 14.2797681,18.2421902 13.4022337,18.9154831 C13.3374286,19.9635744 13.3030949,21.0130974 13.29927,22.0629072 C13.29927,22.7304802 13.29927,23.4296786 13.3333443,24.1295645 C13.3378533,24.4378082 13.3606038,24.7455893 13.401493,25.0515164 L13.401493,25.1793934 L13.4696417,25.2426444 C13.742977,25.4653979 14.0170532,25.6551509 14.2903886,25.8785919 C14.8719562,26.3045738 15.4647328,26.7172052 16.0681797,27.1161112 C17.3333745,27.9748121 18.6326435,28.766137 20.0341355,29.5643369 C21.3949819,28.8038352 22.7183031,27.9869352 24.0000913,27.1161112 C24.9227102,26.4966059 25.8236743,25.8497839 26.7015932,25.1766434 C26.7697418,24.0003125 26.8045569,22.9827966 26.8045569,22.0292192 C26.8045569,21.3300208 26.8045569,20.6301348 26.7704826,19.9625619 C26.7659736,19.6543182 26.7432231,19.3465372 26.7023339,19.04061 L26.7023339,18.9134205 L26.6001109,18.8178565 C26.329436,18.6260846 26.0670082,18.4244875 25.8134383,18.2135346 C25.2379935,17.7802181 24.6449661,17.3674121 24.0356472,16.9760153 C22.7469215,16.1144533 21.4240165,15.2978102 20.0696914,14.5277895 Z M21.5307698,18.3045943 C23.0254455,18.9237093 24,20.3822331 24,22.0000585 C23.999334,24.2088892 22.2088892,25.999334 20.0000585,26 C18.3822331,26 16.9237093,25.0254455 16.3045943,23.5307698 C15.6854794,22.0360941 16.0276974,20.3156479 17.1716727,19.1716727 C18.3156479,18.0276974 20.0360941,17.6854794 21.5307698,18.3045943 Z M20.0000585,20.2220972 C19.0181222,20.2220972 18.2221056,21.0181222 18.2221056,22.0000585 C18.2221056,22.9819947 19.0181222,23.7780114 20.0000585,23.7780114 C20.9819947,23.7780114 21.7780197,22.9819947 21.7780197,22.0000585 C21.7794594,21.5280736 21.592605,21.0750025 21.2588597,20.7412572 C20.9251144,20.407512 20.4720433,20.2206575 20.0000585,20.2220972 Z M29.4712437,21.1093298 L29.4719844,22.0319692 C29.4783025,22.3396303 29.4669282,22.6473851 29.4379101,22.9539212 C29.7801349,22.6679167 30.1216189,22.3495992 30.4638437,22.0319692 L29.8482835,21.4599603 C29.7313967,21.3352131 29.6054206,21.2180609 29.4712437,21.1093298 Z M10.6318425,21.1100173 C10.2910992,21.3953343 9.9473929,21.7136518 9.60590885,22.0312817 L10.2222098,22.6039782 L10.3244328,22.6995422 C10.4239448,22.7761848 10.5154605,22.8613537 10.5977682,22.9539212 L10.5977682,22.0319692 C10.5920036,21.7243123 10.6033769,21.4165845 10.6318425,21.1100173 Z M34.0883155,9.69665151 C32.6510368,9.7351171 31.2254585,9.94893456 29.8482835,10.3325989 C29.3697614,10.4597884 28.8564242,10.6186034 28.2416048,10.8097314 C28.6954397,12.6849163 29.0151521,14.5859071 29.198649,16.5002578 L29.3016128,17.6442757 L30.2245827,18.4074126 C30.9423659,19.0117346 31.6608898,19.615369 32.3445986,20.2513164 C33.3165143,19.2373776 34.2296617,18.1761967 35.0801748,17.0722668 C37.1661164,14.210847 37.917974,11.7626213 37.0290784,10.6186034 C36.5505562,10.0142815 35.5246226,9.69665151 34.0883155,9.69665151 Z M3.1443787,10.5869779 C2.18585296,11.7309958 2.93845122,14.178534 5.02365211,17.0399537 C5.85782071,18.156469 6.77177385,19.2185862 7.75996902,20.2196909 C8.74556069,19.3107678 9.77216645,18.4409756 10.8370292,17.6126502 C10.9964227,15.5295309 11.3047584,13.458542 11.7599991,11.4133658 C11.7940735,11.1906124 11.8629629,11.0008594 11.8970372,10.7774184 L11.281477,10.5869779 L11.042216,10.5237269 C10.8029549,10.4604759 10.5636938,10.364912 10.3244328,10.3009735 C6.76885044,9.34739605 3.9984592,9.47596056 3.1443787,10.5869779 Z M25.6749188,11.7014328 C24.7186153,12.1441898 23.6934224,12.5890092 22.6674887,13.0977672 C23.7593488,13.7364646 24.6823187,14.3380365 25.571955,14.9127955 L25.9141798,15.135549 C26.0704054,15.2313169 26.2189441,15.3374719 26.3586276,15.453179 C26.3245533,15.294364 26.3245533,15.103236 26.290479,14.944421 C26.1196135,13.8636541 25.9144267,12.7826581 25.6749188,11.7014328 Z M14.3903893,11.7309958 C14.356315,11.8898108 14.3222407,12.0809388 14.2881663,12.2397537 C14.0539568,13.3025132 13.871302,14.3738194 13.7407548,15.4511164 C14.0140902,15.2606759 14.2881663,15.069548 14.5274274,14.910733 C15.4503973,14.306411 16.4081823,13.6732136 17.3993009,13.0984547 C16.5960118,12.6858054 15.7748213,12.3039159 14.9378009,11.9537493 C14.7666885,11.8904983 14.5955761,11.7949343 14.3903893,11.7309958 Z M20.1008027,2.54653979 C18.4593089,2.54653979 16.6474434,4.89920155 15.3141,8.71419866 C15.2204129,8.89754128 15.1409509,9.086859 15.0763204,9.28070751 C15.2800257,9.37970906 15.4852124,9.44296005 15.7244735,9.53852404 C17.0918912,10.110533 18.5281983,10.8104189 20.0667284,11.6051813 C21.677641,10.7368913 23.3447754,9.96173797 25.0586178,9.28414506 C23.7593488,5.18314349 21.8104452,2.54653979 20.1008027,2.54653979 Z" id="形状结合"></path>
                </g>
            </g>
        </g>
    </g>
</svg>