<?xml version="1.0" encoding="UTF-8"?>
<svg width="40px" height="31.957672px" viewBox="0 0 40 31.957672" version="1.1" xmlns="http://www.w3.org/2000/svg" xmlns:xlink="http://www.w3.org/1999/xlink">
    <title>形状结合</title>
    <g id="页面-1" stroke="none" stroke-width="1" fill="none" fill-rule="evenodd">
        <g id="CDEM" transform="translate(-1091.000000, -1533.000000)" fill="#E0E0E0" fill-rule="nonzero">
            <g id="banner推荐入口" transform="translate(360.000000, 1435.000000)">
                <g id="编组-7" transform="translate(399.000000, 20.000000)">
                    <g id="编组-5" transform="translate(31.000000, 10.000000)">
                        <g id="编组-41" transform="translate(301.000000, 68.000000)">
                            <path d="M4.02116402,23.9153439 C6.34920635,23.9153439 8.04232804,25.8201058 8.04232804,27.9365079 C8.04232804,30.0529101 6.13756614,31.957672 4.02116402,31.957672 C1.69312169,31.957672 0,30.0529101 0,27.9365079 C0,25.8201058 1.69312169,23.9153439 4.02116402,23.9153439 Z M35.978836,9.31216931 C36.6137566,9.31216931 37.037037,9.73544974 37.037037,10.3703704 L37.037037,25.8201058 C37.037037,28.1481481 35.3439153,29.8412698 33.015873,29.8412698 L10.1587302,29.8412698 C9.52380952,29.8412698 9.1005291,29.4179894 9.1005291,28.7830688 C9.1005291,28.1481481 9.52380952,27.7248677 10.1587302,27.7248677 L33.015873,27.7248677 C34.0740741,27.7248677 34.9206349,26.8783069 34.9206349,25.8201058 L34.9206349,10.3703704 C34.9206349,9.73544974 35.3439153,9.31216931 35.978836,9.31216931 Z M4.02116402,26.4550265 C3.17460317,26.4550265 2.53968254,27.0899471 2.53968254,27.9365079 C2.53968254,28.7830688 3.17460317,29.4179894 4.02116402,29.4179894 C4.86772487,29.4179894 5.5026455,28.7830688 5.5026455,27.9365079 C5.5026455,27.0899471 4.86772487,26.4550265 4.02116402,26.4550265 Z M25.3968254,15.8730159 C27.5132275,15.8730159 29.4179894,17.7777778 29.4179894,19.8941799 C29.4179894,22.010582 27.5132275,23.9153439 25.3968254,23.9153439 C23.0687831,23.9153439 21.3756614,22.010582 21.3756614,19.8941799 C21.3756614,17.7777778 23.2804233,15.8730159 25.3968254,15.8730159 Z M11.6402116,16.0846561 C12.0634921,16.5079365 12.2751323,17.1428571 11.8518519,17.5661376 L8.25396825,23.2804233 C7.83068783,23.7037037 7.1957672,23.9153439 6.77248677,23.7037037 C6.34920635,23.2804233 6.13756614,22.6455026 6.34920635,22.2222222 L9.94708995,16.7195767 C10.3703704,15.8730159 11.005291,15.8730159 11.6402116,16.0846561 Z M29.8412698,2.32804233 C30.4761905,2.32804233 30.8994709,2.75132275 30.8994709,3.38624339 C30.8994709,4.02116402 30.4761905,4.44444444 29.8412698,4.44444444 L6.13756614,4.44444444 C5.07936508,4.44444444 4.23280423,5.29100529 4.23280423,6.34920635 L4.23280423,21.5873016 C4.23280423,22.2222222 3.5978836,22.6455026 3.17460317,22.6455026 C2.53968254,22.6455026 2.11640212,22.2222222 2.11640212,21.5873016 L2.11640212,6.34920635 C2.11640212,4.23280423 3.80952381,2.32804233 6.13756614,2.32804233 L29.8412698,2.32804233 Z M25.3968254,18.4126984 C24.5502646,18.4126984 23.9153439,19.047619 23.9153439,19.8941799 C23.9153439,20.7407407 24.5502646,21.3756614 25.3968254,21.3756614 C26.2433862,21.3756614 26.8783069,20.7407407 26.8783069,19.8941799 C26.8783069,19.047619 26.2433862,18.4126984 25.3968254,18.4126984 Z M20.3174603,14.3915344 L21.3756614,15.2380952 C21.7989418,15.6613757 22.010582,16.2962963 21.5873016,16.7195767 C21.1640212,17.3544974 20.5291005,17.3544974 20.1058201,16.9312169 L19.047619,16.2962963 C18.4126984,15.8730159 18.4126984,15.026455 18.8359788,14.6031746 C19.2592593,14.1798942 19.8941799,13.968254 20.3174603,14.3915344 Z M14.6031746,8.04232804 C16.7195767,8.04232804 18.6243386,9.94708995 18.6243386,12.0634921 C18.6243386,14.1798942 16.9312169,16.0846561 14.6031746,16.0846561 C12.4867725,16.0846561 10.5820106,14.1798942 10.5820106,12.0634921 C10.5820106,9.94708995 12.4867725,8.04232804 14.6031746,8.04232804 Z M32.8042328,8.04232804 C33.4391534,8.25396825 33.6507937,9.1005291 33.2275132,9.52380952 L29.6296296,15.026455 C29.4179894,15.6613757 28.5714286,15.8730159 28.1481481,15.4497354 C27.7248677,15.026455 27.5132275,14.3915344 27.7248677,13.968254 L31.3227513,8.46560847 C31.7460317,8.04232804 32.3809524,7.83068783 32.8042328,8.04232804 Z M14.6031746,10.5820106 C13.7566138,10.5820106 13.1216931,11.2169312 13.1216931,12.0634921 C13.1216931,12.9100529 13.7566138,13.5449735 14.6031746,13.5449735 C15.4497354,13.5449735 16.0846561,12.9100529 16.0846561,12.0634921 C16.0846561,11.2169312 15.4497354,10.5820106 14.6031746,10.5820106 Z M35.978836,0 C38.0952381,0 40,1.9047619 40,4.02116402 C40,6.13756614 38.3068783,8.04232804 35.978836,8.04232804 C33.6507937,8.04232804 31.957672,6.13756614 31.957672,4.02116402 C31.957672,1.9047619 33.8624339,0 35.978836,0 Z M35.978836,2.53968254 C35.1322751,2.53968254 34.4973545,3.17460317 34.4973545,4.02116402 C34.4973545,4.86772487 35.1322751,5.5026455 35.978836,5.5026455 C36.8253968,5.5026455 37.4603175,4.86772487 37.4603175,4.02116402 C37.4603175,3.17460317 36.8253968,2.53968254 35.978836,2.53968254 Z" id="形状结合"></path>
                        </g>
                    </g>
                </g>
            </g>
        </g>
    </g>
</svg>