<?xml version="1.0" encoding="UTF-8"?>
<svg width="44.7628757px" height="40px" viewBox="0 0 44.7628757 40" version="1.1" xmlns="http://www.w3.org/2000/svg" xmlns:xlink="http://www.w3.org/1999/xlink">
    <title>形状</title>
    <g id="页面-1" stroke="none" stroke-width="1" fill="none" fill-rule="evenodd">
        <g id="CDEM" transform="translate(-1485.000000, -1525.000000)" fill="#E0E0E0" fill-rule="nonzero">
            <g id="banner推荐入口" transform="translate(360.000000, 1435.000000)">
                <g id="编组-7" transform="translate(800.000000, 0.000000)">
                    <g id="编组-42" transform="translate(325.000000, 90.000000)">
                        <path d="M44.7623989,19.9352678 C44.7274322,17.6721075 42.952875,15.8106917 40.7368639,15.7169513 C40.3041517,15.699096 39.884552,15.7481981 39.4868064,15.85533 C39.1808482,15.9401427 38.8574068,15.8062279 38.695686,15.5294706 L34.4210137,8.08827105 C34.2636638,7.81151378 34.3030013,7.46333528 34.517172,7.2356801 C35.2427299,6.45451038 35.6841838,5.39658339 35.6710713,4.23152455 C35.6448463,1.97282811 33.8746599,0.102484608 31.6673905,0.00428041489 C29.6830334,-0.0849961244 27.9871511,1.23183283 27.4539098,3.05753806 C27.3664932,3.36107829 27.0955017,3.57087816 26.7808019,3.57087816 L17.98232,3.57087816 C17.671991,3.57087816 17.4009995,3.36107829 17.309212,3.05753806 C16.7759707,1.23183283 15.0800885,-0.0849961244 13.0957314,0.00428041489 C10.8840911,0.102484608 9.11827556,1.97282811 9.09205057,4.23152455 C9.07893808,5.39658339 9.52039197,6.45451038 10.2459498,7.2356801 C10.4601205,7.4677991 10.499458,7.81597761 10.3421081,8.08827105 L6.06743582,15.5294706 C5.90571509,15.8106917 5.58227363,15.9401427 5.27631549,15.85533 C4.8785699,15.7481981 4.45897017,15.699096 4.02625794,15.7169513 C1.81024684,15.8062279 0.0356896301,17.6721075 0.00035717483,19.9352678 C-0.0298728285,22.3323429 1.86269681,24.2874991 4.20109116,24.2874991 C4.57698259,24.2874991 4.93976153,24.238397 5.28505715,24.1446567 C5.59101529,24.0598439 5.91008592,24.1937587 6.07180665,24.470516 L10.3464789,31.9117156 C10.5038288,32.1884728 10.4644914,32.5366513 10.2503207,32.7643065 C9.5247628,33.5454762 9.08330891,34.6034032 9.09642141,35.7684621 C9.12264639,38.0271585 10.8928328,39.8930382 13.1001022,39.9957062 C15.0844593,40.0849827 16.7803415,38.7726176 17.3135829,36.9424486 C17.4009995,36.6389083 17.671991,36.4291085 17.9866908,36.4291085 L26.7851727,36.4291085 C27.0955017,36.4291085 27.3664932,36.6389083 27.4582806,36.9424486 C27.991522,38.7681538 29.6874042,40.0849827 31.6717613,39.9957062 C33.8834016,39.897502 35.6492171,38.0271585 35.6754421,35.7684621 C35.6885546,34.6034032 35.2471007,33.5454762 34.5215428,32.7643065 C34.3073721,32.5321875 34.2680347,32.184009 34.4253846,31.9117156 L38.7000569,24.470516 C38.8617776,24.1937587 39.1808482,24.0598439 39.4868064,24.1446567 C39.832102,24.238397 40.1948809,24.2874991 40.5707724,24.2874991 C42.9047959,24.2874991 44.7973655,22.3323429 44.7623989,19.9352678 Z M16.7410041,6.73573148 C16.7410041,6.73573148 16.7453749,6.73126765 16.7453749,6.72680383 C16.872129,6.53932309 17.0819289,6.43219125 17.3048412,6.43219125 L27.6068889,6.43219125 C27.7511263,6.43219125 27.8822512,6.50361248 27.9609262,6.62859963 L27.965297,6.63306346 C28.0527136,6.7714421 28.0570844,6.94999518 27.9784095,7.09283764 L24.9188281,12.5074597 C24.792074,12.7306511 24.5647908,12.8645659 24.3112826,12.8645659 L20.1458811,12.8645659 C19.8967437,12.8645659 19.6650897,12.7306511 19.5383356,12.5074597 L16.7060374,7.49458207 C16.5705417,7.25353541 16.588025,6.95892283 16.7410041,6.73573148 Z M8.02119708,17.7837032 L13.1962605,8.78016423 C13.2661938,8.65517708 13.3929479,8.57482819 13.5328144,8.56590054 C13.6158602,8.56143671 13.698906,8.55250906 13.7775809,8.5435814 C13.9436725,8.52126227 14.1097641,8.60607498 14.1928099,8.7578451 L17.130008,13.9492759 C17.2567621,14.1724672 17.2567621,14.4536883 17.1256372,14.6724158 L15.040751,18.2256221 C14.9139969,18.4398858 14.6867137,18.5738006 14.4419472,18.5738006 L8.45390931,18.5738006 C8.28344692,18.5738006 8.13483868,18.4711326 8.06490539,18.3104348 C8.04742207,18.2657965 8.02556791,18.2211583 8.00808459,18.1809838 C7.94252213,18.0515328 7.9512638,17.9042266 8.02119708,17.7837032 L8.02119708,17.7837032 Z M14.3151931,31.2599968 C14.2277765,31.411767 14.0616849,31.4965797 13.8868517,31.4697967 C13.7688393,31.4519414 13.6508269,31.4430137 13.5284436,31.4340861 C13.388577,31.4251584 13.2618229,31.3448095 13.1918897,31.2198224 L8.02119708,22.2207472 C7.9512638,22.1002239 7.94252213,21.9484538 7.99934293,21.8234666 C8.02119708,21.7788284 8.03868041,21.7386539 8.05616373,21.6940156 C8.12172619,21.5333179 8.27470526,21.4306499 8.44516765,21.4306499 L14.4332055,21.4306499 C14.677972,21.4306499 14.9052552,21.5645647 15.0320093,21.7788284 L17.1868288,25.4480941 C17.3179537,25.6712855 17.3179537,25.9480427 17.1911996,26.1712341 L14.3151931,31.2599968 L14.3151931,31.2599968 Z M27.9609262,33.371387 C27.9609262,33.3758508 27.9565553,33.3758508 27.9609262,33.371387 C27.8822512,33.4963741 27.7467555,33.5722592 27.6068889,33.5722592 L17.1649746,33.5722592 C17.0251081,33.5722592 16.8896123,33.500838 16.8153082,33.3803146 C16.7847124,33.3312125 16.7541166,33.2821105 16.7191499,33.2330084 C16.6229916,33.0946297 16.61425,32.9160766 16.6972958,32.7687704 L19.6738314,27.5014545 C19.8005855,27.2782632 20.0278687,27.1443484 20.2813768,27.1443484 L24.3069118,27.1443484 C24.5560491,27.1443484 24.7877032,27.2782632 24.9144572,27.5014545 L27.9784095,32.9205405 C28.0527136,33.0633829 28.0483428,33.2374722 27.9609262,33.371387 Z M36.7462956,22.2207472 L31.5712322,31.2242862 C31.4969281,31.3492734 31.370174,31.4296223 31.2259366,31.4385499 C31.0554742,31.4474776 30.8850118,31.4697967 30.7232911,31.5010435 C30.5484579,31.5322903 30.3692538,31.4519414 30.2818372,31.2912436 L27.4801348,26.3319319 C27.3533807,26.1087405 27.3533807,25.8275194 27.4845056,25.6087919 L29.7354834,21.7788284 C29.8622375,21.5645647 30.0895206,21.4306499 30.3342872,21.4306499 L36.322325,21.4306499 C36.4927874,21.4306499 36.6413957,21.5333179 36.711329,21.6940156 C36.7288123,21.7386539 36.7506664,21.7832922 36.7681498,21.8234666 C36.8249706,21.9484538 36.8162289,22.1002239 36.7462956,22.2207472 L36.7462956,22.2207472 Z M36.7681498,18.1809838 C36.7462956,18.2256221 36.7288123,18.2657965 36.711329,18.3104348 C36.6457665,18.4711326 36.4927874,18.5738006 36.322325,18.5738006 L30.3342872,18.5738006 C30.0895206,18.5738006 29.8622375,18.4398858 29.7354834,18.2256221 L27.4888765,14.4001224 C27.3577515,14.176931 27.3533807,13.9001738 27.4845056,13.6769824 L30.2905788,8.71320683 C30.3823663,8.55697288 30.5571995,8.47216017 30.7320327,8.50340696 C30.8937535,8.53465375 31.0642159,8.55250906 31.2303074,8.56143671 C31.3745448,8.57036436 31.5012989,8.64624942 31.575603,8.7757004 L36.7506664,17.7792394 C36.8162289,17.9042266 36.8249706,18.0515328 36.7681498,18.1809838 Z" id="形状"></path>
                    </g>
                </g>
            </g>
        </g>
    </g>
</svg>