<?xml version="1.0" encoding="UTF-8"?>
<svg width="42px" height="48.4126307px" viewBox="0 0 42 48.4126307" version="1.1" xmlns="http://www.w3.org/2000/svg" xmlns:xlink="http://www.w3.org/1999/xlink">
    <title>形状</title>
    <g id="页面-1" stroke="none" stroke-width="1" fill="none" fill-rule="evenodd">
        <g id="CDEM" transform="translate(-688.000000, -1677.000000)" fill="#E0E0E0" fill-rule="nonzero">
            <g id="banner推荐入口" transform="translate(360.000000, 1435.000000)">
                <g id="编组-43" transform="translate(328.000000, 242.000000)">
                    <path d="M19.2274312,21.1545912 L22.7144518,21.1604029 L22.6656335,48.4126307 L19.1786129,48.4056567 L19.2274312,21.1545912 L19.2274312,21.1545912 Z M20.9825649,0 L31.3448276,10.6249516 L31.3448276,19.1507168 L42,29.8058891 L42,37.483146 L31.3239054,37.483146 L31.3239054,42.4405269 L27.8368849,42.4405269 L27.8368849,35.9709414 L27.857807,35.9709414 L27.857807,12.0430065 L20.9825649,4.9934134 L14.1084851,12.0418442 L14.1584657,37.4389771 L14.142193,37.4389771 L14.142193,42.4405269 L10.6551724,42.4405269 L10.6551724,37.4389771 L0,37.4389771 L0,29.8058891 L10.6354126,19.1693142 L10.6191399,10.6261139 L20.9825649,0 Z M31.3448276,24.0825261 L31.3448276,33.9961255 L38.5129795,33.9961255 L38.5129795,31.250678 L31.3448276,24.0825261 L31.3448276,24.0825261 Z M10.6447114,24.0918249 L3.48702053,31.2495156 L3.48702053,33.9519566 L10.6644712,33.9519566 L10.6447114,24.0918249 Z" id="形状"></path>
                </g>
            </g>
        </g>
    </g>
</svg>