<?xml version="1.0" encoding="UTF-8"?>
<svg width="40px" height="36.6144201px" viewBox="0 0 40 36.6144201" version="1.1" xmlns="http://www.w3.org/2000/svg" xmlns:xlink="http://www.w3.org/1999/xlink">
    <title>形状</title>
    <g id="页面-1" stroke="none" stroke-width="1" fill="none" fill-rule="evenodd">
        <g id="OpenCFD" transform="translate(-890.000000, -1558.000000)" fill="#E0E0E0" fill-rule="nonzero">
            <g id="编组-38" transform="translate(890.000000, 1558.000000)">
                <path d="M0,0 L0,29.153605 L18.9823969,29.153605 L18.9823969,34.5792139 L0,34.5792139 L0,36.6144201 L40,36.6144201 L40,34.5792139 L21.0176031,34.5792139 L21.0176031,29.1487823 L40,29.1487823 L40,0 L0,0 Z M22.855076,27.1135761 L17.144924,27.1135761 C16.6047745,26.4673258 16.2720039,25.647456 16.2720039,24.7407765 C16.2720039,22.6814565 17.94068,21.0127803 20,21.0127803 C22.05932,21.0127803 23.7279961,22.6814565 23.7279961,24.7407765 C23.7279961,25.647456 23.3904027,26.4673258 22.855076,27.1135761 Z M25.2471666,27.1135761 C25.5751145,26.3901616 25.7632023,25.5895828 25.7632023,24.7407765 C25.7632023,23.3421751 25.2664577,22.0641428 24.4369424,21.0658307 L29.8191464,15.6836267 L28.3819629,14.2464432 L22.874367,19.7540391 C22.0255606,19.26694 21.0465397,18.9823969 20,18.9823969 C16.8169761,18.9823969 14.2367977,21.5625754 14.2367977,24.7455992 C14.2367977,25.5944056 14.4248855,26.3949843 14.7528334,27.1183988 L2.20882566,27.1183988 C2.1509525,26.6698818 2.10754762,26.2165421 2.07378828,25.7632023 L4.74559923,25.7632023 L4.74559923,23.7279961 L2.08343381,23.7279961 C2.31974922,19.5370147 4.00289366,15.7414999 6.62165421,12.8044369 L8.49288642,14.6756692 L9.93006993,13.2384857 L8.05883771,11.3672534 C10.9959007,8.74849289 14.7865927,7.06534844 18.9823969,6.82903304 L18.9823969,9.49119846 L21.0176031,9.49119846 L21.0176031,6.82903304 C25.2085845,7.06534844 29.0040993,8.74367012 31.9411623,11.3672534 L30.0651073,13.2384857 L31.5022908,14.6756692 L33.373523,12.8044369 C35.9971063,15.7414999 37.675428,19.5321919 37.9117434,23.7279961 L35.249578,23.7279961 L35.249578,25.7632023 L37.921389,25.7632023 C37.8924524,26.2213648 37.8490475,26.6698818 37.7863516,27.1183988 L25.2471666,27.1183988 L25.2471666,27.1135761 Z M20,4.74559923 C12.109959,4.74559923 5.2905715,9.31275621 2.03520617,15.9488787 L2.03520617,2.03038341 L37.9647938,2.03038341 L37.9647938,15.9440559 C34.7094285,9.31275621 27.890041,4.74559923 20,4.74559923 Z" id="形状"></path>
            </g>
        </g>
    </g>
</svg>