<?xml version="1.0" encoding="UTF-8"?>
<svg width="40px" height="34.0132318px" viewBox="0 0 40 34.0132318" version="1.1" xmlns="http://www.w3.org/2000/svg" xmlns:xlink="http://www.w3.org/1999/xlink">
    <title>形状结合</title>
    <g id="页面-1" stroke="none" stroke-width="1" fill="none" fill-rule="evenodd">
        <g id="OpenCFD" transform="translate(-1490.000000, -1559.000000)" fill="#E0E0E0" fill-rule="nonzero">
            <g id="education_ruler" transform="translate(890.000000, 1558.000000)">
                <g id="编组-41" transform="translate(600.000000, 1.000000)">
                    <path d="M34.352765,19.5131694 C34.5125453,19.5131694 34.652353,19.5331419 34.8121333,19.573087 C35.690925,19.7927849 36.6496068,20.352016 37.3087006,21.0111097 C37.7880415,21.5104232 37.9478218,22.209462 37.7281238,22.8685557 C37.6482337,23.1082262 37.5883161,23.4477593 37.7081513,23.6674572 C37.8279866,23.8871552 38.1675197,23.9870179 38.4071901,24.0469355 C39.0862564,24.1867432 39.6055424,24.6860567 39.8052678,25.3251779 C40.0649107,26.2039696 40.0649107,27.3224317 39.8052678,28.2012233 C39.625515,28.8603171 39.0662839,29.339658 38.4071901,29.4794658 C38.1675197,29.5393834 37.8279866,29.6392461 37.7081513,29.858944 C37.5883161,30.0786419 37.6482337,30.418175 37.7281238,30.6578455 C37.9478217,31.3169392 37.7880414,32.015978 37.3087006,32.5152915 C36.6695794,33.1943578 35.7108975,33.7336163 34.8121333,33.9533142 C34.6723256,33.9932593 34.5325178,34.0132318 34.3727375,34.0132318 C33.833479,34.0132318 33.3541381,33.7935339 33.0146049,33.3940832 C32.7749345,33.1144676 32.535264,32.9746599 32.3355386,32.9746599 C32.0758957,32.9746599 31.8162527,33.1943577 31.6564724,33.3940832 C31.2170765,33.8933966 30.5180377,34.133067 29.8389714,33.9533142 C28.9601798,33.7336163 27.9815254,33.1743853 27.3424042,32.5152915 C26.8630633,32.0159781 26.703283,31.3169392 26.9229809,30.6578455 C27.0028711,30.418175 27.0627887,30.0786419 26.9429534,29.858944 C26.8231182,29.639246 26.4835851,29.5393834 26.2439146,29.4794658 C25.5648484,29.339658 25.0455624,28.8403446 24.845837,28.2012233 C24.586194,27.3224317 24.586194,26.2039696 24.845837,25.3251779 C25.0455624,24.6660842 25.5848209,24.1867433 26.2439146,24.0469355 C26.4835851,23.9870179 26.8231182,23.8871552 26.9429534,23.6674572 C27.0627887,23.4477594 27.002871,23.1082262 26.9229809,22.8685557 C26.703283,22.209462 26.8630633,21.5104232 27.3424042,21.0111097 C27.9815254,20.3320435 28.9402072,19.792785 29.8389714,19.573087 C29.9787792,19.5331419 30.1385595,19.5131694 30.2783673,19.5131694 C30.8176258,19.5131694 31.2969667,19.7328673 31.6364998,20.1323181 C31.8761703,20.4119336 32.1158407,20.5517414 32.3155661,20.5517414 C32.5752091,20.5517414 32.8348521,20.3320435 32.9946324,20.1323181 C33.3541381,19.7328673 33.8534515,19.5131694 34.352765,19.5131694 Z M26.4236675,0 C27.1227063,0 27.6819373,0.579203576 27.6819374,1.27824242 L27.6819374,9.00761452 C27.6819374,9.7465984 27.1027338,10.2858569 26.4236675,10.2858569 L21.3905879,10.2858569 L21.3905879,15.4387717 L35.2315566,15.4387717 C35.9305954,15.4387717 36.4898265,16.0179753 36.4898265,16.7170141 L36.4898265,17.8155037 C35.0717763,17.0765198 33.4739733,16.6970416 31.8761703,16.6970416 C30.0786419,16.6970416 28.3809762,17.1763825 26.9429534,17.975284 L21.3905879,17.975284 L21.3905879,23.1281987 L22.4890775,23.1281987 C22.1695169,23.9470728 21.949819,24.8258644 21.8499563,25.7046561 L17.6357508,25.7046561 L17.6357508,30.8575708 L22.6688304,30.8575708 L22.6688304,30.7577082 C23.0882536,31.6964174 23.6275122,32.5752091 24.326551,33.3541381 C24.2067158,33.4140557 24.066908,33.4140557 23.9071277,33.4140557 L16.3575084,33.4140557 C15.6584696,33.4140557 15.0992386,32.8148795 15.0992386,32.1358133 L15.0992386,24.4264137 C15.0992386,23.6874298 15.6784421,23.1481713 16.3575084,23.1481713 L18.8740482,23.1481713 L18.8740482,18.0551742 L6.29134938,18.0551742 L6.29134938,23.2080889 L8.80788914,23.2080889 C9.50692794,23.2080889 10.066159,23.7872925 10.066159,24.4863313 L10.066159,32.2157034 C10.066159,32.9546873 9.48695546,33.4939458 8.80788914,33.4939458 L1.25826986,33.4939458 C0.559231058,33.4939458 0,32.8947697 0,32.2157034 L0,24.4863313 C0,23.7473474 0.579203576,23.2080889 1.25826986,23.2080889 L3.77480962,23.2080889 L3.77480962,16.7769317 C3.77480962,16.0379479 4.3540132,15.4986893 5.03307952,15.4986893 L18.8740482,15.4986893 L18.8740482,10.325802 L13.8409687,10.325802 C13.1419299,10.325802 12.5826988,9.72662588 12.5826988,9.04755959 L12.5826988,1.27824242 C12.5826988,0.559231058 13.1419299,0 13.8409687,0 L26.4236675,0 Z M34.3927101,21.4704781 C33.7735614,22.1495444 33.0944951,22.4890775 32.3355386,22.4890775 C31.5765822,22.4890775 30.8975159,22.1495444 30.2783673,21.4704781 C30.0187243,21.5303957 29.7191362,21.6702035 29.4395207,21.8299838 C29.1599052,21.9897641 28.9002622,22.1894895 28.7205093,22.3692423 C29.0001249,23.2280614 28.9601798,24.0069904 28.5807015,24.6660841 C28.2012233,25.3251779 27.5621021,25.7446012 26.6633379,25.924354 C26.5834478,26.183997 26.5435027,26.5035576 26.5435027,26.8031457 C26.5435027,27.1027338 26.5834478,27.4422669 26.6633379,27.6819374 C27.5421296,27.8816627 28.2012233,28.301086 28.5807015,28.9402072 C28.9601797,29.5993009 29.0200974,30.3582574 28.7205093,31.2370491 C28.9202347,31.4367745 29.1599052,31.6165273 29.4395207,31.7763076 C29.7191362,31.9360879 29.9987517,32.0559231 30.2783673,32.1358133 C30.8775434,31.4767195 31.5566097,31.1172139 32.3355386,31.1172139 C33.0944951,31.1172139 33.7735614,31.456747 34.3927101,32.1358133 C34.652353,32.0758957 34.9519411,31.9360879 35.2315566,31.7763076 C35.5111722,31.6165273 35.7708151,31.4168019 35.950568,31.2370491 C35.6709525,30.37823 35.7108975,29.599301 36.0903757,28.9402072 C36.4698539,28.2811135 37.1089752,27.8616902 38.0077394,27.6819374 C38.0876295,27.4222944 38.1275746,27.1027338 38.1275746,26.8031457 C38.1275746,26.5035576 38.0876295,26.1640245 38.0077394,25.924354 C37.1289477,25.7246287 36.469854,25.3052054 36.0903757,24.6660841 C35.7108975,24.0269629 35.6509799,23.248034 35.950568,22.3692423 C35.7508426,22.1695169 35.5111722,21.9897641 35.2315566,21.8299838 C34.9519411,21.6702035 34.6523531,21.5503682 34.3927101,21.4704781 Z M7.54961928,25.8045188 L2.51653976,25.8045188 L2.51653976,30.9574336 L7.54961928,30.9574336 L7.54961928,25.8045188 Z M32.3355386,23.1681438 C34.3327924,23.1681438 35.950568,24.7859194 35.950568,26.7831731 C35.950568,28.7804269 34.3128199,30.3982025 32.3355386,30.3982025 C30.3382849,30.3982025 28.7205093,28.780427 28.7205093,26.7831731 C28.7205093,24.7859193 30.3382849,23.1681438 32.3355386,23.1681438 Z M32.3355386,25.0455624 C31.8761703,25.0455624 31.456747,25.2253152 31.1172139,25.5648484 C30.7776807,25.9043815 30.5979279,26.3437773 30.5979279,26.7831731 C30.5979279,27.2425415 30.7776807,27.6619648 31.1172139,28.001498 C31.456747,28.3410311 31.8961428,28.5207839 32.3355386,28.5207839 C32.7749345,28.5207839 33.2143303,28.3410311 33.5538635,28.001498 C33.8933966,27.6619648 34.0731494,27.222569 34.0731494,26.7831731 C34.0731494,26.3238048 33.8933966,25.9043815 33.5538635,25.5648484 C33.2143303,25.2253152 32.794907,25.0455624 32.3355386,25.0455624 Z M25.1653976,2.57645735 L15.0992386,2.57645735 L15.0992386,7.7293721 L25.1653976,7.7293721 L25.1653976,2.57645735 Z" id="形状结合"></path>
                </g>
            </g>
        </g>
    </g>
</svg>