<?xml version="1.0" encoding="UTF-8"?>
<svg width="17px" height="20px" viewBox="0 0 17 20" version="1.1" xmlns="http://www.w3.org/2000/svg" xmlns:xlink="http://www.w3.org/1999/xlink">
    <title>jiantou</title>
    <g id="页面-1" stroke="none" stroke-width="1" fill="none" fill-rule="evenodd">
        <g id="首页" transform="translate(-998.000000, -738.500000)" fill="#FFFFFF" fill-rule="nonzero">
            <g id="btn" transform="translate(856.000000, 718.000000)">
                <g id="编组-6" transform="translate(52.000000, 16.000000)">
                    <g id="jiantou" transform="translate(98.500000, 14.500000) rotate(-270.000000) translate(-98.500000, -14.500000) translate(88.500000, 6.000000)">
                        <path d="M19.7147189,16.6168714 C20.0950937,16.2635477 20.0950937,15.5579841 19.7147189,15.2046604 L10.8259609,8.26499277 C10.4444085,7.91166908 9.6836589,7.91166908 9.30210649,8.26499277 C9.17492235,8.26499277 9.17492235,8.38204479 9.17492235,8.38204479 L0.286164309,15.3238801 C-0.095388103,15.6772038 -0.095388103,16.3827673 0.286164309,16.7350072 C0.666539084,17.0883309 1.42846629,17.0883309 1.8100187,16.7350072 L10.1912178,10.3838511 L18.1908645,16.6179552 C18.5712393,16.9701951 19.3331665,16.9701951 19.7147189,16.6179552 L19.7147189,16.6168714 Z" id="路径"></path>
                        <path d="M19.7147189,8.61764971 C20.0950937,8.265378 20.0950937,7.55866678 19.7147189,7.20639508 L10.8259609,0.265016706 C10.4444085,-0.0883389021 9.6836589,-0.0883389021 9.30210649,0.265016706 C9.17492235,0.265016706 9.17492235,0.383163221 9.17492235,0.383163221 L0.286164309,7.32345767 C-0.095388103,7.67681328 -0.095388103,8.3824406 0.286164309,8.73579622 C0.666539084,9.08806793 1.42846629,9.08806793 1.8100187,8.73579622 L10.1912178,2.38298257 L18.1908645,8.61764971 C18.5712393,8.97100531 19.3331665,8.97100531 19.7147189,8.61764971 L19.7147189,8.61764971 Z" id="路径"></path>
                    </g>
                </g>
            </g>
        </g>
    </g>
</svg>