<?xml version="1.0" encoding="UTF-8"?>
<svg width="40px" height="39.4891096px" viewBox="0 0 40 39.4891096" version="1.1" xmlns="http://www.w3.org/2000/svg" xmlns:xlink="http://www.w3.org/1999/xlink">
    <title>形状结合</title>
    <g id="页面-1" stroke="none" stroke-width="1" fill="none" fill-rule="evenodd">
        <g id="SiMech" transform="translate(-890.000000, -1526.000000)" fill="#E0E0E0" fill-rule="nonzero">
            <g id="编组-21" transform="translate(890.000000, 1526.000000)">
                <path d="M0,32.0849016 L36.297896,32.0849016 L40,35.7870056 L36.297896,39.4891096 L0,39.4891096 L0,32.0849016 Z M2.468,37.021 L4.936,37.021 L4.936,34.552 L2.468,34.552 L2.468,37.021 Z M7.404,37.021 L35.2761153,37.0210403 L36.5101499,35.7870056 L35.2761153,34.5529709 L7.404,34.552 L7.404,37.021 Z M19.7445548,0 C29.2713025,0 37.0210403,7.74973777 37.0210403,17.2764855 L39.4891096,17.2764855 L39.4891096,29.6168322 L0,29.6168322 L0,17.2764855 L2.46806935,17.2764855 C2.46806935,7.74973777 10.2178071,0 19.7445548,0 Z M37.0210403,19.7445548 L2.46806935,19.7445548 L2.46806935,27.1487629 L6.17,27.148 L6.17017338,24.6806935 L8.63824273,24.6806935 L8.638,27.148 L11.106,27.148 L11.1063121,24.6806935 L13.5743814,24.6806935 L13.574,27.148 L16.042,27.148 L16.0424508,24.6806935 L18.5105201,24.6806935 L18.51,27.148 L20.978,27.148 L20.9785895,24.6806935 L23.4466589,24.6806935 L23.446,27.148 L25.914,27.148 L25.9147282,24.6806935 L28.3827976,24.6806935 L28.382,27.148 L30.85,27.148 L30.8508669,24.6806935 L33.3189363,24.6806935 L33.318,27.148 L37.0210403,27.1487629 L37.0210403,19.7445548 Z M19.7445548,2.46806935 C11.5789474,2.46806935 4.93613871,9.11087802 4.93613871,17.2764855 L11.1063121,17.2764855 C11.1063121,12.5143457 14.981181,8.63824273 19.7445548,8.63824273 C24.5079287,8.63824273 28.3827976,12.5143457 28.3827976,17.2764855 L34.5529709,17.2764855 C34.5529709,9.11087802 27.9101623,2.46806935 19.7445548,2.46806935 Z M19.7445548,11.1063121 C16.3423212,11.1063121 13.5743814,13.8742519 13.5743814,17.2764855 L25.9147282,17.2764855 C25.9147282,13.8742519 23.1467884,11.1063121 19.7445548,11.1063121 Z" id="形状结合"></path>
            </g>
        </g>
    </g>
</svg>