<?xml version="1.0" encoding="UTF-8"?>
<svg width="36px" height="35.7417504px" viewBox="0 0 36 35.7417504" version="1.1" xmlns="http://www.w3.org/2000/svg" xmlns:xlink="http://www.w3.org/1999/xlink">
    <title>形状</title>
    <g id="页面-1" stroke="none" stroke-width="1" fill="none" fill-rule="evenodd">
        <g id="SiMech" transform="translate(-892.000000, -1687.000000)" fill="#E0E0E0" fill-rule="nonzero">
            <g id="编组-22" transform="translate(892.000000, 1687.000000)">
                <path d="M32.2347202,11.2080344 L24.482066,11.2080344 L24.482066,3.80659971 C24.482066,1.71994261 22.7827834,0 20.6961263,0 L3.77560976,0 C1.68895265,0 0,1.71994261 0,3.80659971 L0,20.7271162 C0,22.8137733 1.68895265,24.5337159 3.77560976,24.5337159 L11.517934,24.5337159 L11.517934,31.9351506 C11.517934,34.0218077 13.2275466,35.7417504 15.3142037,35.7417504 L32.2347202,35.7417504 C34.3213773,35.7417504 36,34.0218077 36,31.9351506 L36,15.0146341 C36,12.927977 34.3213773,11.2080344 32.2347202,11.2080344 Z M3.77560976,20.8149211 C3.7446198,20.8149211 3.71879484,20.7581062 3.71879484,20.7271162 L3.71879484,3.80659971 C3.71879484,3.77560976 3.7446198,3.71879484 3.77560976,3.71879484 L20.6961263,3.71879484 C20.7271162,3.71879484 20.7632712,3.77560976 20.7632712,3.80659971 L20.7632712,11.2080344 L15.3142037,11.2080344 C13.2275466,11.2080344 11.517934,12.927977 11.517934,15.0146341 L11.517934,20.8149211 L3.77560976,20.8149211 Z M20.7632712,14.9268293 L20.7632712,20.7271162 C20.7632712,20.7581062 20.7271162,20.8149211 20.6961263,20.8149211 L15.2367288,20.8149211 L15.2367288,15.0146341 C15.2367288,14.9836442 15.2832138,14.9268293 15.3142037,14.9268293 L20.7632712,14.9268293 Z M32.2812052,31.9351506 C32.2812052,31.9661406 32.2657102,32.0229555 32.2347202,32.0229555 L15.3142037,32.0229555 C15.2832138,32.0229555 15.2367288,31.9661406 15.2367288,31.9351506 L15.2367288,24.5337159 L20.6961263,24.5337159 C22.7827834,24.5337159 24.482066,22.8137733 24.482066,20.7271162 L24.482066,14.9268293 L32.2347202,14.9268293 C32.2657102,14.9268293 32.2812052,14.9836442 32.2812052,15.0146341 L32.2812052,31.9351506 Z" id="形状"></path>
            </g>
        </g>
    </g>
</svg>
