<?xml version="1.0" encoding="UTF-8"?>
<svg width="40px" height="39.4805195px" viewBox="0 0 40 39.4805195" version="1.1" xmlns="http://www.w3.org/2000/svg" xmlns:xlink="http://www.w3.org/1999/xlink">
    <title>形状</title>
    <g id="页面-1" stroke="none" stroke-width="1" fill="none" fill-rule="evenodd">
        <g id="SiMech" transform="translate(-1490.000000, -1686.000000)" fill="#E0E0E0" fill-rule="nonzero">
            <g id="编组-26" transform="translate(1490.000000, 1686.000000)">
                <path d="M14.0903896,24.9350649 L18.2462338,29.0909091 L26.4935065,29.0909091 L26.4935065,39.4805195 L16.1038961,39.4805195 L16.1038961,31.3558442 L12.798961,28.0509091 L0,28.0519481 L0,24.9350649 L14.0903896,24.9350649 Z M23.3766234,32.2077923 L19.2207792,32.2077923 L19.2207792,36.3636364 L23.3766234,36.3636364 L23.3766234,32.2077923 Z M40,14.5454546 L40,24.9350649 L29.6103896,24.9350649 L29.6103896,21.2987013 L0,21.2987013 L0,18.1818182 L29.6103896,18.1818182 L29.6103896,14.5454546 L40,14.5454546 L40,14.5454546 Z M36.8831169,17.6623377 L32.7272727,17.6623377 L32.7272727,21.8181818 L36.8831169,21.8181818 L36.8831169,17.6623377 Z M26.4935065,8.8817842e-16 L26.4935065,10.3896104 L18.0779221,10.3896104 L14.0903896,14.3792208 L0,14.3792208 L0,11.2623377 L12.798961,11.2612987 L16.1038961,7.95636366 L16.1038961,8.8817842e-16 L26.4935065,8.8817842e-16 L26.4935065,8.8817842e-16 Z M23.3766234,3.11688312 L19.2207792,3.11688312 L19.2207792,7.27272731 L23.3766234,7.27272731 L23.3766234,3.11688312 Z" id="形状"></path>
            </g>
        </g>
    </g>
</svg>