<?xml version="1.0" encoding="UTF-8"?>
<svg width="300px" height="78.8436268px" viewBox="0 0 300 78.8436268" version="1.1" xmlns="http://www.w3.org/2000/svg" xmlns:xlink="http://www.w3.org/1999/xlink">
    <title>编组 26备份</title>
    <g id="页面-1" stroke="none" stroke-width="1" fill="none" fill-rule="evenodd">
        <g id="iPhone-15-Pro" transform="translate(-47.000000, -153.000000)" fill="#FFFFFF" fill-rule="nonzero">
            <g id="编组-26" transform="translate(47.000000, 153.000000)">
                <g id="专注力学仿真" transform="translate(35.252957, 0.305519)">
                    <path d="M30.3942181,25.4862024 L30.3942181,25.4862024 L33.8534823,16.586728 C33.9520368,15.8968463 33.7549277,15.3055191 33.2621551,14.8127464 C32.8285151,14.4185283 32.3455979,14.2214192 31.8134034,14.2214192 L9.57950066,14.2214192 L11.0578187,10.7030223 L34.2674113,10.7030223 C34.6813403,10.7030223 35.0459921,10.5749014 35.3613666,10.3186597 C35.6570302,10.042707 35.8442838,9.6977661 35.9231275,9.28383706 L36.0709593,8.33771353 L12.0630749,8.33771353 L14.044021,3.96189225 L35.5387648,3.96189225 C35.9724047,3.96189225 36.346912,3.8239159 36.6622865,3.54796321 C36.9579501,3.27201051 37.1452037,2.92706965 37.2240473,2.5131406 L37.3423127,1.59658344 L15.0788436,1.59658344 L15.7884363,0 L9.07687254,0 C8.6629435,0 8.34756899,0.20696452 8.13074901,0.620893561 L7.71681997,1.59658344 L3.22273325,1.59658344 C2.88764783,1.59658344 2.58212878,1.69513798 2.30617608,1.89224704 C2.03022339,2.12877792 1.87253614,2.41458607 1.83311432,2.74967148 L1.65571616,3.96189225 L6.71156373,3.96189225 L4.73061761,8.33771353 L1.65571616,8.33771353 C1.26149803,8.33771353 0.926412615,8.46583443 0.650459921,8.72207622 C0.374507227,8.9586071 0.20696452,9.26412615 0.1478318,9.63863338 L0,10.7030223 L3.72536137,10.7030223 L2.217477,14.2509855 L1.09395532,16.586728 L27.674113,16.586728 L24.2739816,25.0131406 C24.195138,25.2496715 24.0571616,25.4369251 23.8600526,25.5749014 C23.6235217,25.6931669 23.3869908,25.7522996 23.1504599,25.7522996 L10.9986859,25.7522996 C10.4467806,25.7522996 10.151117,25.5059133 10.1116951,25.0131406 L9.87516426,21.346912 L2.217477,21.346912 L2.60183968,25.456636 C2.68068331,26.2253614 3.02562418,26.826544 3.63666229,27.260184 C4.28712221,27.674113 5.0065703,27.8810775 5.79500657,27.8810775 L26.521025,27.8810775 C27.3094612,27.8810775 28.0781866,27.674113 28.8272011,27.260184 C29.5762155,26.8462549 30.0985545,26.2549277 30.3942181,25.4862024 Z" id="路径"></path>
                    <path d="M49.1688568,24.2739816 L49.1688568,24.2739816 C48.7549277,24.2739816 48.4001314,24.4021025 48.1044678,24.6583443 C47.8088042,24.9145861 47.6215506,25.2496715 47.542707,25.6636005 L47.3948752,26.7871222 L71.1662286,26.7871222 C71.5013141,26.7871222 71.7969777,26.6787122 72.0532194,26.4618922 C72.3094612,26.2450723 72.457293,25.9691196 72.4967148,25.6340342 L72.7036794,24.2739816 L63.2128778,24.2739816 L64.6320631,14.1327201 L72.3193167,14.1327201 C72.674113,14.1327201 72.9747043,14.0243101 73.2210907,13.8074901 C73.467477,13.5906702 73.6202365,13.304862 73.6793693,12.9500657 L73.8863338,11.6195795 L64.9868594,11.6195795 L65.9329829,4.87844941 L73.738502,4.87844941 C74.1721419,4.87844941 74.5515769,4.73554534 74.8768068,4.44973719 C75.2020368,4.16392904 75.3942181,3.80420499 75.4533509,3.37056505 L75.6011827,2.3653088 L66.1399474,2.3653088 L66.1399474,1.95137976 C66.1202365,1.39947438 65.9181997,0.936268068 65.5338371,0.561760841 C65.1494744,0.187253614 64.6911958,0 64.1590013,0 L60.10841,0 L60.1675427,2.3653088 L52.4802891,2.3653088 C52.0466491,2.3653088 51.6672142,2.50328515 51.3419842,2.77923784 C51.0167543,3.05519054 50.8245729,3.41984231 50.7654402,3.87319317 L50.6176084,4.87844941 L59.9605782,4.87844941 L59.0144547,11.6195795 L51.4159001,11.6195795 C51.0413929,11.6195795 50.7161629,11.7427727 50.4402102,11.989159 C50.1642576,12.2355453 49.9967148,12.5459921 49.9375821,12.9204993 L49.760184,14.1327201 L58.6596583,14.1327201 L57.2404731,24.2739816 L49.1688568,24.2739816 Z M42.043364,1.59658344 L42.043364,1.59658344 L42.1616294,0.591327201 L48.8140604,1.86268068 L48.4592641,4.58278581 L43.3147175,3.60709593 C42.8810775,3.50854139 42.5459921,3.27201051 42.3094612,2.89750329 C42.0729304,2.52299606 41.9842313,2.08935611 42.043364,1.59658344 Z M38.6432326,27.8810775 L38.6432326,27.8810775 L42.0137976,10.9986859 L47.6609724,10.9986859 L44.7043364,25.1609724 C44.5269382,25.9296978 44.1622865,26.5703022 43.6103811,27.0827858 C43.0387648,27.6149803 42.3981603,27.8810775 41.6885677,27.8810775 L38.6432326,27.8810775 Z M41.3929041,6.47503285 L41.3929041,6.47503285 L41.5407359,5.44021025 L48.1931669,6.74113009 L47.8383706,9.46123522 L42.6938239,8.45597898 C42.2404731,8.35742444 41.8955322,8.13074901 41.6590013,7.77595269 C41.4224704,7.40144547 41.3337714,6.96780552 41.3929041,6.47503285 Z" id="形状"></path>
                    <path d="M84.5597898,7.53942181 L84.5597898,7.53942181 L76.8725361,27.8810775 L79.0900131,27.8810775 C82.2437582,27.8810775 84.5992116,26.2549277 86.1563732,23.0026281 L92.0400788,7.53942181 L106.379763,7.53942181 L104.103154,23.5348226 C104.063732,23.8501971 103.9159,24.1064389 103.659658,24.303548 C103.423127,24.500657 103.15703,24.5992116 102.861367,24.5992116 L98.9586071,24.5992116 C98.3869908,24.5992116 97.8942181,24.7864652 97.4802891,25.1609724 C97.0663601,25.5157687 96.8101183,25.978975 96.7115637,26.5505913 L96.5341656,27.8810775 L107.532852,27.8810775 C108.459264,27.8810775 109.287122,27.565703 110.016426,26.934954 C110.726018,26.304205 111.149803,25.5354796 111.287779,24.6287779 L114.214849,3.96189225 L93.4296978,3.96189225 L94.9967148,0 L87.3390276,0 L85.8015769,3.96189225 L79.7109067,3.96189225 L79.5926413,4.73061761 C79.5137976,5.49934297 79.7207622,6.15965834 80.2135348,6.71156373 C80.6865966,7.26346912 81.2976347,7.53942181 82.0466491,7.53942181 L84.5597898,7.53942181 Z" id="路径"></path>
                    <path d="M118.945466,8.84034166 L118.945466,8.84034166 C119.181997,9.39224704 119.497372,9.83574244 119.89159,10.1708279 C120.305519,10.5059133 120.896846,10.673456 121.665572,10.673456 L138.193167,10.673456 L130.653745,14.78318 L130.417214,15.847569 L117.348883,15.847569 C116.915243,15.847569 116.540736,15.955979 116.225361,16.1727989 C115.890276,16.3896189 115.683311,16.6655716 115.604468,17.000657 L115.308804,18.8633377 L129.88502,18.8633377 L128.761498,24.4809461 C128.722076,24.717477 128.5841,24.9244415 128.347569,25.1018397 C128.111038,25.3186597 127.854796,25.4270696 127.578844,25.4270696 L123.646518,25.4270696 C123.193167,25.4270696 122.798949,25.5157687 122.463863,25.6931669 C122.109067,25.890276 121.902102,26.1662286 121.84297,26.521025 L121.606439,27.8810775 L133.166886,27.8810775 C134.034166,27.8810775 134.822602,27.6248357 135.532194,27.1123522 C136.222076,26.6590013 136.62615,26.1169514 136.744415,25.4862024 L138.045335,18.8633377 L148.511827,18.8633377 C148.965177,18.8633377 149.359396,18.7155059 149.694481,18.4198423 C150.029566,18.1241787 150.246386,17.7989488 150.344941,17.4441524 L150.640604,15.847569 L138.57753,15.847569 L147.683968,11.087385 C148.078187,10.870565 148.354139,10.5551905 148.511827,10.1412615 L149.250986,7.89421813 L118.501971,7.89421813 L118.945466,8.84034166 Z M150.374507,2.60183968 L150.374507,2.60183968 L151.527595,0.0295663601 L145.88042,0.0295663601 C145.072273,0.0295663601 144.392247,0.0886990802 143.840342,0.20696452 C143.308147,0.344940867 142.894218,0.749014455 142.598555,1.41918528 L142.06636,2.60183968 L139.13929,2.60183968 L139.553219,0 L131.954665,0 C131.560447,0 131.20565,0.11826544 130.890276,0.354796321 C130.594612,0.591327201 130.407359,0.896846255 130.328515,1.27135348 L130.121551,2.60183968 L127.253614,2.60183968 L126.928384,0 L120.423784,0 C119.950723,0 119.556505,0.1478318 119.24113,0.443495401 C118.925756,0.758869908 118.787779,1.12352168 118.827201,1.53745072 L119.004599,2.60183968 L117.94021,2.60183968 C117.565703,2.60183968 117.240473,2.72010512 116.96452,2.95663601 C116.688568,3.17345598 116.521025,3.45926413 116.461892,3.81406045 L116.018397,7.30289093 L123.350854,7.30289093 L123.616951,5.11498029 L143.751643,5.11498029 L142.864652,7.30289093 L149.576216,7.30289093 C150.246386,7.30289093 150.818003,7.12549277 151.291064,6.77069645 C151.783837,6.39618922 152.089356,5.91327201 152.207622,5.32194481 L152.651117,2.60183968 L150.374507,2.60183968 Z" id="形状"></path>
                    <path d="M175.298949,9.46123522 L175.298949,9.46123522 L175.298949,9.46123522 L175.121551,9.96386334 L175.298949,9.46123522 Z M182.838371,9.72733246 L182.838371,9.72733246 L176.008541,9.72733246 L176.777267,7.12549277 L189.402102,7.12549277 L186.918528,24.5400788 C186.800263,25.4270696 186.376478,26.1859396 185.647175,26.8166886 C184.917871,27.4474376 184.090013,27.7628121 183.163601,27.7628121 L174.471091,27.7628121 L174.530223,27.3193167 C174.648489,26.6885677 174.944152,26.1662286 175.417214,25.7522996 C175.890276,25.3383706 176.442181,25.131406 177.07293,25.131406 L179.556505,25.131406 C179.852168,25.131406 180.118265,25.0328515 180.354796,24.8357424 C180.611038,24.6189225 180.75887,24.3626807 180.798292,24.0670171 L182.838371,9.72733246 Z M190.96912,2.8088042 L190.96912,2.8088042 C190.890276,3.20302234 190.698095,3.53318003 190.392576,3.79927727 C190.087057,4.06537451 189.727332,4.19842313 189.313403,4.19842313 L176.984231,4.19842313 L176.304205,6.41590013 L176.304205,6.41590013 L175.298949,9.46123522 L175.298949,9.46123522 L175.121551,9.96386334 L175.121551,9.96386334 L175.121551,9.96386334 L170.272668,25.042707 C169.444809,26.934954 168.134034,27.8810775 166.340342,27.8810775 L163.058476,27.8810775 L170.686597,4.19842313 L166.51774,4.19842313 L166.636005,3.25229961 C166.695138,2.83837057 166.877464,2.50328515 167.182983,2.24704336 C167.488502,1.99080158 167.848226,1.86268068 168.262155,1.86268068 L176.008541,1.86268068 L176.274639,0 L180.827858,0 C181.241787,0 181.586728,0.152759527 181.862681,0.458278581 C182.138633,0.763797635 182.256899,1.13337714 182.217477,1.56701708 L182.158344,1.86268068 L191.087385,1.86268068 L190.96912,2.8088042 Z M158.061761,1.44875164 L158.061761,1.44875164 C158.613666,0.522339028 159.362681,0.0591327201 160.308804,0.0591327201 L165.157687,0.0591327201 L161.432326,7.89421813 L163.176741,7.89421813 L160.338371,27.7332457 L154.159001,27.7332457 L156.672142,10.1412615 L153.745072,10.1412615 L158.061761,1.44875164 Z" id="形状"></path>
                    <path d="M195.049277,22.7660972 L195.049277,22.7660972 L192.18134,27.8810775 L196.527595,27.8810775 C197.572273,27.8810775 198.409987,27.3784494 199.040736,26.3731932 L200.992116,22.7660972 L195.049277,22.7660972 Z M217.312746,1.15308804 L217.312746,1.15308804 L229.523653,1.15308804 L229.375821,2.18791064 C229.316689,2.46386334 229.193495,2.68561104 229.006242,2.85315375 C228.818988,3.02069645 228.587385,3.10446781 228.311432,3.10446781 L216.928384,3.10446781 L216.721419,4.25755585 L227.424442,4.25755585 C227.81866,4.25755585 228.134034,4.35611038 228.370565,4.55321945 C228.626807,4.75032852 228.735217,5.03613666 228.695795,5.41064389 L226.655716,20.0164258 L227.92707,20.0164258 L227.749671,21.2877792 C227.690539,21.5637319 227.562418,21.7904074 227.365309,21.9678055 C227.1682,22.1452037 226.931669,22.2339028 226.655716,22.2339028 L192.417871,22.2339028 L192.595269,20.9625493 C192.654402,20.6865966 192.782523,20.4599212 192.979632,20.282523 C193.176741,20.1051248 193.413272,20.0164258 193.689225,20.0164258 L194.635348,20.0164258 L196.675427,5.52890933 C196.73456,5.1544021 196.897175,4.84888305 197.163272,4.61235217 C197.429369,4.37582129 197.749671,4.25755585 198.124179,4.25755585 L203.298292,4.25755585 L202.677398,8.60381078 L221.954665,8.60381078 L222.250329,6.47503285 L204.037451,6.47503285 L204.333114,4.25755585 L209.418528,4.25755585 L209.56636,3.10446781 L196.941524,3.10446781 L197.089356,2.0696452 C197.128778,1.79369251 197.247043,1.57194481 197.444152,1.4044021 C197.641261,1.2368594 197.867937,1.15308804 198.124179,1.15308804 L209.862024,1.15308804 L209.89159,0.886990802 C209.931012,0.630749014 210.049277,0.413929041 210.246386,0.23653088 C210.443495,0.0788436268 210.670171,0 210.926413,0 L217.490145,0 L217.312746,1.15308804 Z M201.376478,17.9763469 L201.376478,17.9763469 L201.080815,20.0164258 L220.358081,20.0164258 L220.653745,17.9763469 L201.376478,17.9763469 Z M221.18594,14.1327201 L221.18594,14.1327201 L201.908673,14.1327201 L201.642576,16.0840999 L220.919842,16.0840999 L221.18594,14.1327201 Z M221.452037,12.2109067 L221.452037,12.2109067 L221.718134,10.3186597 L202.440867,10.3186597 L202.17477,12.2109067 L221.452037,12.2109067 Z M219.323259,22.7660972 L219.323259,22.7660972 L220.269382,27.8810775 L226.389619,27.8810775 L225.798292,24.4513798 C225.680026,23.9586071 225.43364,23.5545335 225.059133,23.239159 C224.684625,22.9237845 224.250986,22.7660972 223.758213,22.7660972 L219.323259,22.7660972 Z" id="形状"></path>
                </g>
                <g id="驱动工业未来" transform="translate(35.252957, 47.611695)">
                    <path d="M14.9014455,0 L13.2752957,12.2404731 L14.2509855,12.2404731 L12.5361367,24.9540079 C12.4375821,25.7621551 12.0729304,26.4520368 11.4421813,27.0236531 C10.8311432,27.5952694 10.1412615,27.8810775 9.37253614,27.8810775 L2.98620237,27.8810775 L2.98620237,27.8810775 C3.0847569,27.2306176 3.36070959,26.6934954 3.81406045,26.2697109 C4.2674113,25.8459264 4.79960578,25.6340342 5.41064389,25.6340342 L5.73587385,25.6340342 C6.01182654,25.6340342 6.26806833,25.5256242 6.50459921,25.3088042 C6.74113009,25.0919842 6.87910644,24.8357424 6.91852825,24.5400788 L8.18988173,14.9901445 L3.90275953,14.9901445 C3.13403417,14.9901445 2.55256242,14.7733246 2.15834428,14.3396846 C1.76412615,13.9060447 1.6261498,13.2851511 1.74441524,12.4770039 L2.72010512,5.20367937 C2.77923784,4.73061761 2.97141919,4.34625493 3.29664915,4.05059133 C3.62187911,3.75492773 4.00131406,3.60709593 4.43495401,3.60709593 L7.27332457,3.60709593 L6.23850197,11.5013141 C6.21879106,11.6984231 6.26806833,11.8659658 6.38633377,12.0039422 C6.50459921,12.1616294 6.65243101,12.2404731 6.82982917,12.2404731 L7.86465177,12.2404731 L9.19513798,2.24704336 L4.76018397,2.24704336 C4.20827858,2.24704336 3.75492773,2.03022339 3.40013141,1.59658344 C3.04533509,1.1629435 2.89750329,0.650459921 2.95663601,0.0591327201 L2.95663601,0.0591327201 L14.9014455,0 Z M26.934954,21.5243101 C25.7917214,23.4756899 24.2542707,24.4513798 22.3226018,24.4513798 L20.3712221,24.4513798 L25.7227332,13.0683311 L23.239159,3.42969777 L26.0775296,3.42969777 C27.1813403,3.42969777 27.9697766,4.05059133 28.4428384,5.29237845 L29.0045992,7.45072273 L30.3055191,4.93758213 C30.8968463,3.93232589 31.695138,3.42969777 32.7003942,3.42969777 L36.4848883,3.42969777 L30.9264126,14.4283837 L33.7056505,24.4513798 L31.3994744,24.4513798 C29.78318,24.4513798 28.630092,23.5249671 27.9402102,21.6721419 L27.5558476,20.2529566 L26.934954,21.5243101 Z M23.0321945,0.1478318 L22.7069645,2.48357424 L22.6478318,3.07490145 L19.8094612,24.2739816 C19.7700394,24.5893561 19.8291721,24.8455979 19.9868594,25.042707 C20.1642576,25.2595269 20.4007884,25.3679369 20.696452,25.3679369 L31.695138,25.3679369 C32.3061761,25.3679369 32.8038765,25.5995401 33.1882392,26.0627464 C33.5726018,26.5259527 33.7253614,27.0827858 33.6465177,27.7332457 L33.6465177,27.7332457 L16.586728,27.7332457 C15.6997372,27.7332457 15,27.4178712 14.4875164,26.7871222 C13.9750329,26.1563732 13.7779238,25.3777924 13.8961892,24.4513798 L17.1484888,0.1478318 L23.0321945,0.1478318 Z M7.06636005,17.651117 L6.65243101,20.8442838 L0,22.1156373 L0,22.1156373 C0.0985545335,21.2680683 0.409001314,20.4944152 0.931340342,19.7946781 C1.45367937,19.0949409 2.08935611,18.6563732 2.83837057,18.478975 L7.06636005,17.651117 Z M37.3423127,0.11826544 L37.3127464,0.354796321 C37.2141919,0.985545335 36.9480946,1.49802891 36.5144547,1.89224704 C36.0808147,2.28646518 35.5683311,2.48357424 34.9770039,2.48357424 L23.4165572,2.48357424 L23.7417871,0.1478318 L37.3423127,0.11826544 Z" id="形状"></path>
                    <path d="M50.0262812,27.7628121 L55.4073587,27.7628121 L55.7325887,16.9710907 C55.7522996,16.4191853 55.5995401,15.9707622 55.2743101,15.6258213 C54.9490802,15.2808804 54.5302234,15.10841 54.0177398,15.10841 L50.3219448,15.10841 L50.2036794,22.6478318 L45.5321945,23.4461235 C45.1576873,23.5052562 45.0295664,23.2982917 45.1478318,22.82523 L48.8436268,11.3534823 L56.1169514,11.3534823 C56.609724,11.3534823 57.0630749,11.1760841 57.4770039,10.8212878 C57.890933,10.4664915 58.1373193,10.0131406 58.2161629,9.46123522 L58.4231275,7.98291721 L42.3390276,7.98291721 C41.8856767,7.98291721 41.4865309,8.13567674 41.14159,8.4411958 C40.7966491,8.74671485 40.5847569,9.13600526 40.5059133,9.60906702 L40.2989488,11.3534823 L42.9894875,11.3534823 L38.7023653,24.2148489 C38.2687254,25.6143233 38.3377135,26.5703022 38.9093298,27.0827858 C39.4612352,27.5952694 40.3088042,27.7529566 41.4520368,27.5558476 L50.0854139,26.195795 L50.0262812,27.7628121 Z M43.7877792,0.325229961 C43.3541393,0.325229961 42.9500657,0.487844941 42.5755585,0.813074901 C42.2010512,1.13830486 41.9743758,1.53745072 41.8955322,2.01051248 L41.718134,3.48883049 L57.151774,3.48883049 C57.565703,3.48883049 57.945138,3.33607096 58.2900788,3.03055191 C58.6350197,2.72503285 58.8370565,2.3455979 58.8961892,1.89224704 L59.1031537,0.325229961 L43.7877792,0.325229961 Z M55.9986859,27.8810775 L55.9986859,27.8810775 C57.6346912,27.8810775 59.0686597,27.368594 60.3005913,26.3436268 C61.532523,25.3186597 62.3357424,24.0965834 62.7102497,22.6773982 L66.6721419,5.88370565 L69.9835742,5.88370565 L67.4704336,24.4513798 C67.4310118,24.7273325 67.3028909,24.9835742 67.086071,25.2201051 C66.8495401,25.4369251 66.5834428,25.5453351 66.2877792,25.5453351 L65.9034166,25.5453351 C65.5289093,25.5453351 65.1938239,25.6783837 64.8981603,25.9444809 C64.6024967,26.2105782 64.4152431,26.5407359 64.3363995,26.934954 L64.218134,27.8810775 L69.303548,27.8810775 C70.1905388,27.8810775 70.978975,27.565703 71.6688568,26.934954 C72.3784494,26.2844941 72.7923784,25.5157687 72.9106439,24.6287779 L75.7785808,3.40013141 C75.8180026,3.04533509 75.7243758,2.7348883 75.4977004,2.46879106 C75.271025,2.20269382 74.9901445,2.0696452 74.6550591,2.0696452 L67.4113009,2.0696452 L67.9434954,0 L62.7989488,0 L62.2667543,2.0696452 L59.8718791,2.0696452 L59.4579501,4.90801577 C59.4382392,5.18396846 59.5072273,5.41557162 59.6649146,5.60282523 C59.8226018,5.79007884 60.0295664,5.88370565 60.2858081,5.88370565 L61.4980289,5.88370565 L55.9986859,27.8810775 Z" id="形状"></path>
                    <path d="M83.3180026,0 L114.214849,0 L113.948752,1.98094612 C113.889619,2.37516426 113.722076,2.69053876 113.446124,2.92706965 C113.170171,3.16360053 112.844941,3.28186597 112.470434,3.28186597 L101.116951,3.28186597 L97.9829172,24.5696452 L112.618265,24.5696452 L112.381735,26.609724 C112.322602,27.0039422 112.155059,27.314389 111.879106,27.5410644 C111.603154,27.7677398 111.277924,27.8810775 110.903417,27.8810775 L76.8725361,27.8810775 L77.1386334,25.870565 C77.1977661,25.4763469 77.3653088,25.1609724 77.6412615,24.9244415 C77.9172142,24.6879106 78.2424442,24.5696452 78.6169514,24.5696452 L90.7687254,24.5696452 L93.9027595,3.28186597 L81.5735874,3.28186597 L81.8396846,1.24178712 C81.8988173,0.867279895 82.0663601,0.566688568 82.3423127,0.340013141 C82.6182654,0.113337714 82.9434954,0 83.3180026,0 Z" id="路径"></path>
                    <path d="M115.308804,27.8810775 L148.363995,27.8810775 C148.975033,27.8810775 149.329829,27.565703 149.428384,26.934954 L149.694481,24.9244415 L141.238502,24.9244415 L144.579501,0 L140.617608,0 C140.065703,0 139.577858,0.19218134 139.154074,0.576544021 C138.730289,0.960906702 138.478975,1.44875164 138.400131,2.04007884 L135.32523,24.9244415 L130.091984,24.9244415 L133.432983,0 L128.820631,0 C128.465834,0 128.145532,0.123193167 127.859724,0.369579501 C127.573916,0.615965834 127.401445,0.936268068 127.342313,1.3304862 L124.208279,24.9244415 L116.550591,24.9244415 C116.038108,24.9244415 115.742444,25.1609724 115.663601,25.6340342 L115.308804,27.8810775 Z M117.112352,20.607753 C117.07293,20.9625493 117.161629,21.2631406 117.378449,21.5095269 C117.595269,21.7559133 117.871222,21.8791064 118.206307,21.8791064 L122.375164,21.8791064 L123.735217,6.09067017 C123.833771,4.94743758 123.557819,4.00131406 122.907359,3.25229961 C122.256899,2.50328515 121.399474,2.12877792 120.335085,2.12877792 L118.886334,2.12877792 L117.112352,20.607753 Z M143.751643,21.8791064 L144.254271,21.8791064 C145.634034,21.8791064 146.885677,21.3863338 148.009198,20.4007884 C149.13272,19.4152431 149.822602,18.1636005 150.078844,16.6458607 L152.651117,2.12877792 L148.570959,2.12877792 C148.216163,2.12877792 147.895861,2.25689882 147.610053,2.5131406 C147.324244,2.76938239 147.141919,3.09461235 147.063075,3.48883049 L143.751643,21.8791064 Z" id="形状"></path>
                    <path d="M168.114323,27.8810775 L173.347569,27.8810775 C173.524967,27.8810775 173.682654,27.8170171 173.820631,27.6888962 C173.958607,27.5607753 174.037451,27.4080158 174.057162,27.2306176 L175.949409,13.0091984 L188.426413,13.0091984 C188.899474,13.0091984 189.318331,12.8416557 189.682983,12.5065703 C190.047635,12.1714849 190.269382,11.7477004 190.348226,11.2352168 L190.525624,9.93429698 L176.363338,9.93429698 L177.043364,4.90801577 L189.047306,4.90801577 C189.421813,4.90801577 189.761827,4.77003942 190.067346,4.49408673 C190.372865,4.21813403 190.565046,3.87319317 190.64389,3.45926413 L190.850854,1.83311432 L177.427727,1.83311432 L177.693824,0 L172.726675,0 C172.470434,0 172.248686,0.0886990802 172.061432,0.26609724 C171.874179,0.443495401 171.760841,0.660315375 171.721419,0.916557162 L171.603154,1.83311432 L159.599212,1.83311432 C159.204993,1.83311432 158.855125,1.9760184 158.549606,2.26182654 C158.244087,2.54763469 158.061761,2.90735874 158.002628,3.34099869 L157.795664,4.90801577 L171.189225,4.90801577 L170.509198,9.93429698 L158.091327,9.93429698 C157.618265,9.93429698 157.189553,10.1116951 156.805191,10.4664915 C156.420828,10.8212878 156.189225,11.2549277 156.110381,11.7674113 L155.962549,13.0091984 L170.095269,13.0091984 L168.114323,27.8810775 Z M153.981603,27.8810775 L156.169514,27.8810775 C158.357424,27.8810775 160.131406,26.6688568 161.491459,24.2444152 L166.133377,14.1327201 L161.757556,14.1327201 C160.890276,14.1327201 160.180683,14.6156373 159.628778,15.5814717 L153.981603,27.8810775 Z M181.714849,24.9244415 C182.306176,26.8955322 183.48883,27.8810775 185.262812,27.8810775 L188.130749,27.8810775 L185.676741,15.2562418 C185.459921,14.5072273 185.016426,14.1327201 184.346255,14.1327201 L179.615637,14.1327201 L181.714849,24.9244415 Z" id="形状"></path>
                    <path d="M217.904074,15.4336399 L220.417214,26.3140604 C220.515769,26.7674113 220.742444,27.1419185 221.09724,27.4375821 C221.432326,27.7332457 221.816689,27.8810775 222.250329,27.8810775 L226.596583,27.8810775 L223.817346,15.4336399 L227.069645,15.4336399 C227.404731,15.4336399 227.700394,15.3203022 227.956636,15.0936268 C228.212878,14.8669514 228.370565,14.5762155 228.429698,14.2214192 L228.666229,12.5952694 L214.415243,12.5952694 L215.568331,3.81406045 L227.986202,3.81406045 C228.340999,3.81406045 228.646518,3.70072273 228.90276,3.47404731 C229.159001,3.24737188 229.316689,2.96649146 229.375821,2.63140604 L229.553219,1.15308804 L215.952694,1.15308804 L216.100526,0 L210.985545,0 C210.768725,0 210.571616,0.0689881735 210.394218,0.20696452 C210.236531,0.364651774 210.137976,0.561760841 210.098555,0.798291721 L210.068988,1.15308804 L197.680683,1.15308804 C197.306176,1.15308804 196.980946,1.27135348 196.704993,1.50788436 C196.448752,1.74441524 196.291064,2.0696452 196.231932,2.48357424 L196.054534,3.81406045 L209.714192,3.81406045 L208.501971,12.5952694 L194.990145,12.5952694 C194.793035,12.5952694 194.615637,12.6642576 194.45795,12.8022339 C194.300263,12.9599212 194.201708,13.1471748 194.162286,13.3639947 L193.896189,15.4336399 L198.331143,15.4336399 L192.210907,27.8810775 L193.80749,27.8810775 C196.40933,27.8810775 198.449409,26.5407359 199.927727,23.8600526 L204.214849,15.4336399 L208.147175,15.4336399 L206.432326,27.8810775 L212.345598,27.8810775 L214.001314,15.4336399 L217.904074,15.4336399 Z M198.449409,4.70105125 L198.478975,11.6491459 L205.338371,11.6787122 L205.397503,8.01248357 C205.358081,7.08607096 205.022996,6.30749014 204.392247,5.67674113 C203.781209,5.02628121 203.032194,4.70105125 202.145204,4.70105125 L198.449409,4.70105125 Z M220.505913,4.70105125 L218.347569,11.6491459 L223.255585,11.6491459 C224.556505,11.6491459 225.512484,10.9296978 226.123522,9.49080158 L227.60184,4.70105125 L220.505913,4.70105125 Z" id="形状"></path>
                </g>
            </g>
        </g>
    </g>
</svg>