<?xml version="1.0" encoding="UTF-8"?>
<svg width="393px" height="205px" viewBox="0 0 393 205" version="1.1" xmlns="http://www.w3.org/2000/svg" xmlns:xlink="http://www.w3.org/1999/xlink">
    <title>编组 9备份</title>
    <defs>
        <rect id="path-1" x="0" y="0" width="393" height="205"></rect>
        <linearGradient x1="50%" y1="0%" x2="50%" y2="58.7851562%" id="linearGradient-3">
            <stop stop-color="#3545BD" offset="0%"></stop>
            <stop stop-color="#20287B" offset="100%"></stop>
        </linearGradient>
        <linearGradient x1="50%" y1="0%" x2="50%" y2="73.0868736%" id="linearGradient-4">
            <stop stop-color="#3EECD6" offset="0%"></stop>
            <stop stop-color="#00A3C1" offset="100%"></stop>
        </linearGradient>
        <linearGradient x1="50%" y1="0%" x2="50%" y2="84.1182338%" id="linearGradient-5">
            <stop stop-color="#A78BF6" offset="0%"></stop>
            <stop stop-color="#3E24A9" offset="100%"></stop>
        </linearGradient>
        <linearGradient x1="50%" y1="0%" x2="50%" y2="56.6397015%" id="linearGradient-6">
            <stop stop-color="#462FAB" offset="0%"></stop>
            <stop stop-color="#29146A" offset="100%"></stop>
        </linearGradient>
    </defs>
    <g id="页面-1" stroke="none" stroke-width="1" fill="none" fill-rule="evenodd">
        <g id="iPhone-15-Pro" transform="translate(0.000000, -90.000000)">
            <g id="编组-9" transform="translate(0.000000, 90.000000)">
                <mask id="mask-2" fill="white">
                    <use xlink:href="#path-1"></use>
                </mask>
                <rect stroke="#979797" x="0.5" y="0.5" width="392" height="204"></rect>
                <g mask="url(#mask-2)">
                    <g transform="translate(-10.234375, -0.205000)">
                        <rect id="矩形" fill="url(#linearGradient-3)" x="10.234375" y="0.205" width="393" height="205"></rect>
                        <ellipse id="椭圆形" fill="#FFFFFF" style="mix-blend-mode: overlay;" opacity="0.300000012" cx="247.467188" cy="215.455" rx="197.114063" ry="140.835"></ellipse>
                        <path d="M247.462271,282.343976 C356.322647,282.343976 371.29512,282.138918 370.885755,282.343976 C230.473632,182.480623 220.659226,143.088982 219.625465,119.52775 C217.169277,63.5468562 328.925864,87.1285514 328.840907,87.148945 C304.033268,79.1015074 276.480038,74.62 247.462271,74.62 C138.601896,74.62 50.353125,137.691884 50.353125,215.494997 C50.353125,256.92086 75.4104467,276.191913 115.237444,282.343976 C150.210682,287.74628 196.564038,282.343976 247.462271,282.343976 Z" id="椭圆形" fill="#FFFFFF" style="mix-blend-mode: overlay;" opacity="0.300000012"></path>
                        <path d="M371.303125,281.464833 C230.922458,181.623068 221.110293,142.239941 220.076769,118.683803 C219.9441,115.660008 220.144726,112.868394 220.643006,110.292704 C220.690676,110.073219 198.831683,123.193176 186.10725,157.841456 C178.12646,179.572929 161.681677,251.457887 165.848321,283.925 C165.848321,283.719986 371.711787,281.259819 371.303125,281.464833 Z" id="椭圆形" fill="#FFFFFF" style="mix-blend-mode: soft-light;" opacity="0.300000012"></path>
                        <path d="M247.876563,0 C231.774479,17.0833333 210.077604,31.98 182.785938,44.69 C141.848438,63.755 90.0625,103.115 118.104688,187.78 C135.571354,230.693333 171.186979,262.195 224.951563,282.285 L10.0296875,282.285 L10.0296875,0 L247.876563,0 Z" id="路径-14" fill="url(#linearGradient-4)"></path>
                        <path d="M10.3356563,239.235 C39.0514759,218.744715 57.9265625,184.07967 57.9265625,144.766091 C57.9265625,105.406311 39.0070858,70.7059964 10.234375,50.225 L10.3356563,239.235 Z" id="形状" fill="url(#linearGradient-5)"></path>
                        <path d="M53.8328125,158.465 C15.7575138,195.775 -2.12013539,237.048333 0.199864889,282.285 C0.199864889,282.285 44.006929,282.285 43.8022231,282.285 C31.1104568,241.011667 34.4539866,199.738333 53.8328125,158.465 Z" id="蒙版" fill="#FFFFFF" style="mix-blend-mode: overlay;" opacity="0.200000003"></path>
                        <path d="M220.415969,110.327786 C271.461995,99.8067759 315.34247,125.494437 352.057393,187.390771 C360.045884,200.858273 376.625,233.505589 376.625,281.465 C376.625,281.328364 374.98716,281.328364 371.711479,281.465 C311.070533,237.511329 269.919792,203.283886 248.259256,178.782672 C226.59872,154.281457 217.317624,131.463162 220.415969,110.327786 Z" id="路径-16" fill="url(#linearGradient-6)"></path>
                    </g>
                </g>
            </g>
        </g>
    </g>
</svg>