<?xml version="1.0" encoding="UTF-8"?>
<svg width="20px" height="20px" viewBox="0 0 20 20" version="1.1" xmlns="http://www.w3.org/2000/svg" xmlns:xlink="http://www.w3.org/1999/xlink">
    <title>icon菜单</title>
    <g id="页面-1" stroke="none" stroke-width="1" fill="none" fill-rule="evenodd">
        <g id="iPhone-15-Pro" transform="translate(-313.000000, -59.000000)" fill="#464646" fill-rule="nonzero">
            <g id="菜单" transform="translate(0.000000, 50.000000)">
                <g id="用户-圆" transform="translate(313.000000, 9.000000)">
                    <path d="M10,0 C15.5228571,0 20,4.47714286 20,10 C20,15.5228571 15.5228571,20 10,20 C4.47714286,20 0,15.5228571 0,10 C0,4.47714286 4.47714286,0 10,0 Z M10.0138646,13.295777 C8.85182441,13.295777 7.60113854,13.643964 6.5824732,14.2510465 C5.70753684,14.7724625 5.08151682,15.4368367 4.82782965,16.10319 C5.44634968,16.6287518 6.13618211,17.0545637 6.8864103,17.3718758 C7.87184652,17.7886669 8.91938682,18 9.99996875,18 C11.0805507,18 12.1281118,17.7886669 13.1135064,17.3718758 C13.8662137,17.0535221 14.5581295,16.6259601 15.178212,16.0980025 C14.9245873,15.4315033 14.301109,14.767775 13.4310684,14.2479216 C12.4183614,13.6428182 11.1728422,13.295777 10.0138646,13.295777 Z M9.99998958,2 C8.91940766,2 7.87184652,2.21133306 6.88643114,2.62812418 C5.93395321,3.03099866 5.07826683,3.60799791 4.34314278,4.34314278 C3.60799791,5.07826683 3.03097782,5.93395321 2.62812418,6.88643114 C2.21133306,7.87186735 2,8.91940766 2,9.99998958 C2,11.0805715 2.21133306,12.1281326 2.62812418,13.113548 C2.93262379,13.8334638 3.16390991,14.155304 3.63,14.59 C4.05789528,13.8401676 4.96980863,13.1542909 5.89989076,12.6 C7.13690998,11.8627718 8.59794974,11.46 10.0138646,11.46 C11.4271752,11.46 12.8836525,11.8642718 14.1149842,12.6 C15.039858,13.1526243 15.9430631,13.8413135 16.37,14.59 C16.7903137,14.2184753 17.0684595,13.8308179 17.371855,13.113548 C17.7886461,12.1281118 17.9999792,11.0805715 17.9999792,9.99998958 C17.9999792,8.91940766 17.7886461,7.87184652 17.371855,6.88643114 C16.9689805,5.93395321 16.3919813,5.07826683 15.6568364,4.34314278 C14.9217123,3.60799791 14.066026,3.03097782 13.113548,2.62812418 C12.1281118,2.21133306 11.0805715,2 9.99998958,2 Z" id="形状结合"></path>
                    <path d="M10,4 C7.7944,4 6,5.7944 6,8 C6,10.2056 7.7944,12 10,12 C12.205625,12 14,10.205625 14,8 C14,5.794375 12.205625,4 10,4 L10,4 Z M10,10.4 C8.676625,10.4 7.6,9.323375 7.6,8 C7.6,6.676625 8.676625,5.6 10,5.6 C11.323375,5.6 12.4,6.676625 12.4,8 C12.4,9.323375 11.323375,10.4 10,10.4 Z" id="形状"></path>
                </g>
            </g>
        </g>
    </g>
</svg>