<?xml version="1.0" encoding="UTF-8"?>
<svg width="50px" height="50px" viewBox="0 0 50 50" version="1.1" xmlns="http://www.w3.org/2000/svg" xmlns:xlink="http://www.w3.org/1999/xlink">
    <title>形状</title>
    <g id="页面-1" stroke="none" stroke-width="1" fill="none" fill-rule="evenodd">
        <g id="首页" transform="translate(-867.000000, -1055.000000)" fill="#FFFFFF" fill-rule="nonzero">
            <g id="编组-10" transform="translate(0.000000, 1000.000000)">
                <g id="编组-3备份-3" transform="translate(852.000000, 55.000000)">
                    <g id="提升" transform="translate(15.000000, 0.000000)">
                        <path d="M13.9773053,41.0453947 L6.99609832,41.0453947 L6.99609832,34.5206278 L13.9773053,28.871217 L13.9773053,41.0453947 Z M22.2215434,27.8741698 C22.2830672,28.0005455 22.3578206,28.1200397 22.4445494,28.2306476 L22.4669765,28.2587034 L22.945451,28.8491826 C23.1983103,29.1614284 23.5401099,29.3894368 23.9255252,29.5029726 L23.9255252,41.0453947 L16.9443182,41.0453947 L16.9443182,27.6914367 L20.0420543,25.1846598 L22.2215434,27.8741698 Z M33.8301125,21.4232434 L33.8301125,41.0453947 L26.8489056,41.0453947 L26.8489056,27.0727851 L33.8301125,21.4232434 Z M43.7783324,14.761863 L43.7783324,41.0453947 L36.7971255,41.0453947 L36.7971255,20.4114047 L43.7783324,14.761863 Z M43.8312587,6.00489878 C44.1026486,6.02821525 44.3591698,6.13887022 44.5623656,6.32027481 C44.8304439,6.55226904 45,6.89500267 45,7.27735465 C45,7.38150553 44.9874338,7.48273303 44.9636977,7.57959728 L44.5289431,12.5482095 C44.4680757,13.2444104 43.8543403,13.7593617 43.1581394,13.6984943 C42.4619822,13.6375832 41.9469873,13.0238479 42.0078983,12.327647 L42.1136636,11.1188074 L25.0337481,24.9442151 C24.9434525,25.0719839 24.8359611,25.1866844 24.7143143,25.2850725 L24.7136598,25.2855961 C24.1515854,25.7405527 23.3874923,25.7785566 22.7957914,25.4389209 C22.5897636,25.331424 22.4080732,25.1826615 22.2620344,25.0018973 C22.1994425,24.9247228 22.1437015,24.8422355 22.0954454,24.7553735 L19.6969645,21.794949 L7.77000875,31.4492601 C7.04029809,32.0399575 5.96994817,31.9274728 5.37894537,31.1980676 C4.78829163,30.4690986 4.90042726,29.3993596 5.62939617,28.8087058 L5.63000702,28.8081823 L18.7912402,18.1548605 C19.0331958,17.9583629 19.3247145,17.8324967 19.6336537,17.7911396 C20.2394915,17.662249 20.8942851,17.8700272 21.3109323,18.3842804 L23.8561058,21.5256926 L39.8953415,8.54269841 L38.9351201,8.54269841 C38.2362577,8.54269841 37.6697763,7.9762171 37.6697763,7.27735465 C37.6697763,6.57853583 38.2362577,6.01201089 38.9351201,6.01201089 L43.5456401,6.01201089 C43.6402752,5.99889909 43.7360882,5.99651328 43.8312587,6.00489878 L43.8312587,6.00489878 Z" id="形状"></path>
                    </g>
                </g>
            </g>
        </g>
    </g>
</svg>