<?xml version="1.0" encoding="UTF-8"?>
<svg width="50px" height="50px" viewBox="0 0 50 50" version="1.1" xmlns="http://www.w3.org/2000/svg" xmlns:xlink="http://www.w3.org/1999/xlink">
    <title>形状备份 2</title>
    <g id="页面-1" stroke="none" stroke-width="1" fill="none" fill-rule="evenodd">
        <g id="首页备份" transform="translate(-1315.000000, -1055.000000)" fill="#FFFFFF" fill-rule="nonzero">
            <g id="编组-10" transform="translate(0.000000, 1000.000000)">
                <g id="编组-31" transform="translate(760.000000, 55.000000)">
                    <g id="编组-3备份-2" transform="translate(540.165591, 0.000000)">
                        <g id="rocket" transform="translate(14.834409, 0.000000)">
                            <g id="网,蜂窝,数据结构,发散,聚合" transform="translate(1.500000, 4.000000)">
                                <path d="M46.9994993,20.9315772 C46.9627851,18.5553104 45.0995405,16.6008662 42.7727793,16.5024409 C42.3184413,16.4836933 41.8778711,16.5352494 41.4602473,16.6477354 C41.1389983,16.7367868 40.7993921,16.5961793 40.629589,16.3055904 L36.1412805,8.49250039 C35.9760666,8.20191156 36.0173701,7.83633206 36.2422445,7.59729931 C37.0040637,6.77708889 37.4675802,5.66628965 37.4538124,4.4430044 C37.4262768,2.07142458 35.5676214,0.107606504 33.2500388,0.00449433814 C31.166509,-0.0892439948 29.3858713,1.29339642 28.82598,3.21034533 C28.7341946,3.52905566 28.4496597,3.74934074 28.119232,3.74934074 L18.8810264,3.74934074 C18.555188,3.74934074 18.2706531,3.52905566 18.1742784,3.21034533 C17.6143872,1.29339642 15.8337494,-0.0892439948 13.7502197,0.00449433814 C11.4280478,0.107606504 9.57398166,2.07142458 9.54644603,4.4430044 C9.53267821,5.66628965 9.99619474,6.77708889 10.758014,7.59729931 C10.9828883,7.84101897 11.0241918,8.20659847 10.858978,8.49250039 L6.37066942,16.3055904 C6.20086634,16.6008662 5.86126017,16.7367868 5.54001109,16.6477354 C5.12238729,16.5352494 4.68181712,16.4836933 4.22747914,16.5024409 C1.90071795,16.5961793 0.0374732987,18.5553104 0.000375025437,20.9315772 C-0.0313657895,23.4484514 1.95578923,25.5013209 4.41105004,25.5013209 C4.80572748,25.5013209 5.1866371,25.4497648 5.54918963,25.3513396 C5.87043871,25.2622882 6.20545561,25.4028957 6.37525869,25.6934845 L10.8635672,33.5065745 C11.0287811,33.7971634 10.9874776,34.1627429 10.7626033,34.4017756 C10.000784,35.221986 9.53726748,36.3327853 9.5510353,37.5560705 C9.57857093,39.9276503 11.4372263,41.8867815 13.754809,41.9945806 C15.8383387,42.0883189 17.6189764,40.7103654 18.1788677,38.7887296 C18.2706531,38.4700193 18.555188,38.2497342 18.8856157,38.2497342 L28.1238213,38.2497342 C28.4496597,38.2497342 28.7341946,38.4700193 28.8305693,38.7887296 C29.3904605,40.7056785 31.1710983,42.0883189 33.254628,41.9945806 C35.5767999,41.8914684 37.430866,39.9276503 37.4584017,37.5560705 C37.4721695,36.3327853 37.008653,35.221986 36.2468337,34.4017756 C36.0219594,34.158056 35.9806559,33.7924765 36.1458697,33.5065745 L40.6341783,25.6934845 C40.8039814,25.4028957 41.1389983,25.2622882 41.4602473,25.3513396 C41.8227999,25.4497648 42.2037095,25.5013209 42.5983869,25.5013209 C45.0490585,25.5013209 47.0362135,23.4484514 46.9994993,20.9315772 Z M17.577673,7.07236464 C17.577673,7.07236464 17.5822623,7.06767773 17.5822623,7.06299081 C17.7153512,6.86614031 17.9356362,6.75365431 18.1696891,6.75365431 L28.9866046,6.75365431 C29.1380505,6.75365431 29.2757287,6.82864498 29.3583356,6.95987864 L29.3629249,6.96456556 C29.4547104,7.10985998 29.4592996,7.29733664 29.3766927,7.44731798 L26.1642019,13.1325479 C26.031113,13.3668937 25.7924709,13.5075012 25.526293,13.5075012 L21.1527163,13.5075012 C20.8911278,13.5075012 20.6478963,13.3668937 20.5148074,13.1325479 L17.5409588,7.86914047 C17.3986914,7.61604697 17.4170485,7.30671048 17.577673,7.07236464 Z M8.42207425,18.6724833 L13.855773,9.21897247 C13.9292013,9.0877388 14.0622902,9.0033743 14.2091469,8.99400047 C14.2963431,8.98931355 14.3835393,8.97993972 14.4661462,8.97056589 C14.6405386,8.9471313 14.8149309,9.03618272 14.9021271,9.19553789 L17.9861182,14.6464219 C18.1192072,14.8807678 18.1192072,15.1760435 17.981529,15.4057024 L15.792446,19.1364881 C15.6593571,19.3614601 15.4207149,19.5020676 15.1637156,19.5020676 L8.87641223,19.5020676 C8.6974306,19.5020676 8.54139534,19.3942685 8.46796698,19.2255395 C8.44960989,19.1786703 8.42666352,19.1318012 8.40830643,19.0896189 C8.33946734,18.9536983 8.34864589,18.7990301 8.42207425,18.6724833 L8.42207425,18.6724833 Z M15.0306267,32.8222847 C14.9388413,32.9816399 14.7644489,33.0706913 14.580878,33.0425698 C14.4569677,33.0238221 14.3330573,33.0144483 14.2045577,33.0050745 C14.0577009,32.9957006 13.924612,32.9113361 13.8511837,32.7801025 L8.42207425,23.3312785 C8.34864589,23.2047317 8.33946734,23.0453766 8.39912789,22.9141429 C8.42207425,22.8672737 8.44043134,22.8250915 8.45878843,22.7782223 C8.52762752,22.6094933 8.68825206,22.5016942 8.86723369,22.5016942 L15.1545371,22.5016942 C15.4115363,22.5016942 15.6501785,22.6423017 15.7832674,22.8672737 L18.0457788,26.7199192 C18.183457,26.9542651 18.183457,27.2448539 18.0503681,27.4791997 L15.0306267,32.8222847 L15.0306267,32.8222847 Z M29.3583356,35.0391963 C29.3583356,35.0438832 29.3537464,35.0438832 29.3583356,35.0391963 C29.2757287,35.1704299 29.1334613,35.2501075 28.9866046,35.2501075 L18.0228324,35.2501075 C17.8759757,35.2501075 17.7337083,35.1751169 17.6556906,35.0485701 C17.6235657,34.997014 17.5914408,34.945458 17.5547266,34.8939019 C17.4537626,34.7486075 17.4445841,34.5611308 17.5317803,34.4064625 L20.6570749,28.8759009 C20.7901638,28.6415551 21.0288059,28.5009476 21.2949838,28.5009476 L25.5217038,28.5009476 C25.7832923,28.5009476 26.0265238,28.6415551 26.1596127,28.8759009 L29.3766927,34.5658177 C29.4547104,34.715799 29.4501211,34.8985888 29.3583356,35.0391963 Z M38.5827735,23.3312785 L33.1490748,32.7847894 C33.0710571,32.916023 32.9379682,33.0003875 32.7865222,33.0097614 C32.6075406,33.0191352 32.428559,33.0425698 32.2587559,33.0753782 C32.075185,33.1081866 31.8870248,33.0238221 31.7952394,32.8550931 L28.8535156,27.6479287 C28.7204267,27.4135829 28.7204267,27.1183071 28.8581049,26.8886482 L31.2215803,22.8672737 C31.3546692,22.6423017 31.5933114,22.5016942 31.8503106,22.5016942 L38.137614,22.5016942 C38.3165956,22.5016942 38.4726309,22.6094933 38.5460593,22.7782223 C38.5644164,22.8250915 38.5873627,22.8719607 38.6057198,22.9141429 C38.6653804,23.0453766 38.6562018,23.2047317 38.5827735,23.3312785 L38.5827735,23.3312785 Z M38.6057198,19.0896189 C38.5827735,19.1364881 38.5644164,19.1786703 38.5460593,19.2255395 C38.4772202,19.3942685 38.3165956,19.5020676 38.137614,19.5020676 L31.8503106,19.5020676 C31.5933114,19.5020676 31.3546692,19.3614601 31.2215803,19.1364881 L28.8626942,15.1198005 C28.725016,14.8854547 28.7204267,14.5948659 28.8581049,14.36052 L31.8044179,9.14866872 C31.9007926,8.98462664 32.0843635,8.89557522 32.2679344,8.92838364 C32.4377375,8.96119205 32.6167191,8.97993972 32.7911115,8.98931355 C32.9425575,8.99868739 33.0756464,9.07836497 33.153664,9.21428555 L38.5873627,18.6677964 C38.6562018,18.7990301 38.6653804,18.9536983 38.6057198,19.0896189 Z" id="形状"></path>
                            </g>
                        </g>
                    </g>
                </g>
            </g>
        </g>
    </g>
</svg>