<?xml version="1.0" encoding="UTF-8"?>
<svg width="50px" height="50px" viewBox="0 0 50 50" version="1.1" xmlns="http://www.w3.org/2000/svg" xmlns:xlink="http://www.w3.org/1999/xlink">
    <title>形状</title>
    <g id="页面-1" stroke="none" stroke-width="1" fill="none" fill-rule="evenodd">
        <g id="首页" transform="translate(-1067.470002, -1055.000000)" fill="#FFFFFF" fill-rule="nonzero">
            <g id="编组-10" transform="translate(0.000000, 1000.000000)">
                <g id="编组-3备份" transform="translate(1052.000000, 55.000000)">
                    <g id="成本管理" transform="translate(15.470002, 0.000000)">
                        <path d="M11.269128,2 C10.3126063,2 9.52999758,2.78260869 9.52999758,3.73913041 L9.52999758,30.173913 L6,30.173913 C5.44771525,30.173913 5,30.6216283 5,31.173913 C5,31.5177914 5.17668849,31.8375473 5.46782845,32.0205496 L23.8343454,43.5652174 L23.8343454,43.5652174 C24.095215,43.6521739 24.269128,43.7391304 24.5299976,43.7391304 C24.7908672,43.7391304 24.9647802,43.6521739 25.2256497,43.5652174 L43.5921667,32.0205496 C44.0597512,31.7266393 44.2005419,31.1093259 43.9066317,30.6417415 C43.7236295,30.3506015 43.4038735,30.173913 43.0599952,30.173913 L39.5299976,30.173913 L39.5299976,30.173913 L39.5299976,3.73913041 C39.5299976,2.78260864 38.7473889,2 37.7908671,2 L11.269128,2 Z M33.2256497,19.0434783 L26.269128,19.0434783 L26.269128,20.7826087 L33.2256497,20.7826087 L33.2256497,24.2608696 L26.269128,24.2608696 L26.269128,29.4782609 L22.7908672,29.4782609 L22.7908672,24.2608696 L15.8343454,24.2608696 L15.8343454,20.7826087 L22.7908672,20.7826087 L22.7908672,19.0434783 L15.8343454,19.0434783 L15.8343454,15.5652174 L20.1821715,15.5652174 L17.0517367,12.4347826 L19.4865193,10 L24.443041,14.9565217 L29.3995628,10 L31.8343454,12.4347826 L28.7039106,15.5652174 L33.0517367,15.5652174 L33.0517367,19.0434783 L33.2256497,19.0434783 Z" id="形状"></path>
                    </g>
                </g>
            </g>
        </g>
    </g>
</svg>