<?xml version="1.0" encoding="UTF-8"?>
<svg width="50px" height="50px" viewBox="0 0 50 50" version="1.1" xmlns="http://www.w3.org/2000/svg" xmlns:xlink="http://www.w3.org/1999/xlink">
    <title>形状备份</title>
    <g id="页面-1" stroke="none" stroke-width="1" fill="none" fill-rule="evenodd">
        <g id="首页备份" transform="translate(-955.470002, -1055.000000)" fill="#FFFFFF" fill-rule="nonzero">
            <g id="编组-10" transform="translate(0.000000, 1000.000000)">
                <g id="编组-31" transform="translate(760.000000, 55.000000)">
                    <g id="编组-3备份" transform="translate(180.000000, 0.000000)">
                        <g id="丰富呈现" transform="translate(15.470002, 0.000000)">
                            <path d="M25.3432574,16.7338004 C25.1120841,16.6077058 24.8388792,16.6077058 24.6077058,16.7338004 L16.8318739,21.3152364 C16.6007005,21.4623468 16.4535902,21.7145359 16.4535902,21.966725 L16.4535902,41.4518389 C16.4535902,41.8721541 16.6637478,42.2924694 17.0420315,42.502627 L24.4185639,46.8528897 C24.58669,46.9579685 24.7758319,47 24.9649737,47 C25.1541156,47 25.3642732,46.9369527 25.5323993,46.8318739 L32.8879159,42.4816112 C33.2661996,42.2714536 33.4763573,41.8511384 33.4763573,41.4308231 L33.4763573,21.9877408 C33.4763573,21.7355517 33.3502627,21.4623468 33.0980736,21.3152364 L25.3432574,16.7338004 Z M23.8301226,43.7635727 L18.7443082,40.7583187 L18.7443082,23.8371278 L23.8301226,26.8423818 L23.8301226,43.7635727 Z M31.206655,40.7583187 L26.1208406,43.7635727 L26.1208406,26.8423818 L31.206655,23.8371278 L31.206655,40.7583187 Z M16.8528897,9.06304729 L24.6287215,13.6444834 C24.8598949,13.7705779 25.1330998,13.7705779 25.3642732,13.6444834 L33.1190893,9.06304729 C33.3502627,8.91593695 33.497373,8.64273205 33.497373,8.36952715 C33.497373,8.07530648 33.3502627,7.82311734 33.1190893,7.67600701 L25.3432574,3.09457093 C25.1120841,2.96847636 24.8388792,2.96847636 24.6077058,3.09457093 L16.8318739,7.67600701 C16.6007005,7.82311734 16.4535902,8.09632224 16.4535902,8.36952715 C16.4535902,8.64273205 16.6007005,8.91593695 16.8528897,9.06304729 Z M22.0227671,15.1996497 C22.0227671,14.9054291 21.8756567,14.6532399 21.6444834,14.5061296 L13.8896673,9.92469352 C13.6584939,9.79859895 13.385289,9.79859895 13.1541156,9.92469352 L5.39929947,14.5061296 C5.14711033,14.6532399 5,14.9264448 5,15.1996497 L5,34.6637478 C5,35.084063 5.21015762,35.4833625 5.58844133,35.7145359 L12.943958,40.0858144 C13.1120841,40.1908932 13.3012259,40.2329247 13.4903678,40.2539405 C13.6795096,40.2539405 13.8896673,40.1908932 14.0577933,40.0858144 L14.6462347,39.7285464 L14.6462347,20.0122592 L21.6024518,15.8931699 C21.8756567,15.7670753 22.0227671,15.4938704 22.0227671,15.1996497 Z M12.3765324,36.9754816 L7.29071804,33.9702277 L7.29071804,17.0490368 L12.3765324,20.0542907 L12.3765324,36.9754816 Z M44.9299475,15.0525394 L44.9089317,14.9684764 C44.8458844,14.7793345 44.7197898,14.6112084 44.5516637,14.5061296 L37.2802102,10.2189142 L36.7968476,9.92469352 C36.5656743,9.79859895 36.2924694,9.79859895 36.061296,9.92469352 L28.3274956,14.5061296 C28.1383538,14.6112084 28.0122592,14.8003503 27.9912434,14.9264448 C27.9492119,15.0105079 27.9492119,15.0945709 27.9492119,15.1996497 C27.9492119,15.4728546 28.0963222,15.7460595 28.3274956,15.8931699 L35.3047285,20.0122592 L35.3047285,39.7285464 L35.8931699,40.0647986 C36.2294221,40.2749562 36.6707531,40.2749562 37.0070053,40.0647986 L44.3835377,35.7145359 C44.7408056,35.5043783 44.971979,35.1050788 44.971979,34.6637478 L44.971979,15.2206655 C44.9509632,15.1576182 44.9509632,15.1155867 44.9299475,15.0525394 Z M37.5744308,36.9754816 L37.5744308,20.0542907 L42.6602452,17.0490368 L42.6602452,33.9702277 L37.5744308,36.9754816 Z" id="形状"></path>
                        </g>
                    </g>
                </g>
            </g>
        </g>
    </g>
</svg>