<?xml version="1.0" encoding="UTF-8"?>
<svg width="50px" height="50px" viewBox="0 0 50 50" version="1.1" xmlns="http://www.w3.org/2000/svg" xmlns:xlink="http://www.w3.org/1999/xlink">
    <title>形状</title>
    <g id="页面-1" stroke="none" stroke-width="1" fill="none" fill-rule="evenodd">
        <g id="首页" transform="translate(-1467.000000, -1055.000000)" fill="#FFFFFF" fill-rule="nonzero">
            <g id="编组-10" transform="translate(0.000000, 1000.000000)">
                <g id="编组-3备份-2" transform="translate(1452.000000, 55.000000)">
                    <g id="创新" transform="translate(15.000000, 0.000000)">
                        <path d="M25,8.19999998 C32.0696,8.19999998 37.8,13.9312 37.8,21 C37.8,26.6712 34.108,31.4728 29,33.1536 L29,37 L21,37 L21,33.1536 C15.892,31.4728 12.2,26.6712 12.2,21 C12.2,13.9312 17.9304,8.19999998 25,8.19999998 Z M36.88,31.7488 L39.1424,34.0112 C39.2925731,34.161118 39.3769609,34.3646035 39.3769609,34.5768 C39.3769609,34.7889965 39.2925731,34.9924821 39.1424,35.1424 C38.9926919,35.2929674 38.7891277,35.3776279 38.5768,35.3776279 C38.3644723,35.3776279 38.1609081,35.2929674 38.0112,35.1424 L35.7488,32.88 C35.4364277,32.5676277 35.4364277,32.0611722 35.7488,31.7488 C36.0611723,31.4364277 36.5676278,31.4364277 36.88,31.7488 Z M13.892624,31.541776 C14.1686559,31.6157385 14.3842615,31.831344 14.458224,32.107376 C14.5321865,32.3834079 14.4532695,32.6779306 14.2512,32.88 L11.9888,35.1424 C11.7867306,35.3444694 11.492208,35.4233865 11.216176,35.349424 C10.9401441,35.2754615 10.7245385,35.0598559 10.650576,34.783824 C10.5766135,34.507792 10.6555306,34.2132694 10.8576,34.0112 L13.12,31.7488 C13.3220694,31.5467305 13.616592,31.4678134 13.892624,31.541776 Z M44.2,20.2 C44.6418278,20.2 45,20.5581722 45,21 C45,21.4418278 44.6418278,21.8 44.2,21.8 L41,21.8 C40.5581722,21.8 40.2,21.4418278 40.2,21 C40.2,20.5581722 40.5581722,20.2 41,20.2 L44.2,20.2 Z M9,20.2 C9.44182782,20.2 9.80000003,20.5581722 9.80000003,21 C9.80000003,21.4418278 9.44182782,21.8 9,21.8 L5.80000001,21.8 C5.35817221,21.8 5,21.4418278 5,21 C5,20.5581722 5.35817221,20.2 5.80000001,20.2 L9,20.2 Z M25,11.4 C19.7064,11.4 15.4,15.7064 15.4,21 C15.4,21.2121732 15.4842855,21.4156563 15.6343146,21.5656854 C15.7843437,21.7157145 15.9878268,21.8 16.2,21.8 C16.4121732,21.8 16.6156563,21.7157145 16.7656854,21.5656854 C16.9157145,21.4156563 17,21.2121732 17,21 C17,16.5888 20.5888,13 25,13 C25.4418278,13 25.8,12.6418278 25.8,12.2 C25.8,11.7581722 25.4418278,11.4 25,11.4 Z M11.9888,6.8576 L14.2512,9.11999998 C14.4013731,9.26991793 14.485761,9.47340351 14.485761,9.6856 C14.485761,9.89779649 14.4013731,10.1012821 14.2512,10.2512 C14.1014919,10.4017674 13.8979277,10.4864279 13.6856,10.4864279 C13.4732723,10.4864279 13.2697081,10.4017674 13.12,10.2512 L10.8576,7.98879999 C10.6555306,7.78673057 10.5766135,7.49220798 10.650576,7.21617602 C10.7245386,6.94014406 10.9401441,6.72453856 11.216176,6.65057602 C11.492208,6.57661348 11.7867306,6.65553058 11.9888,6.8576 Z M38.783824,6.65057603 C39.0598559,6.72453857 39.2754614,6.94014407 39.349424,7.21617603 C39.4233865,7.49220798 39.3444694,7.78673057 39.1424,7.98879999 L36.88,10.2512 C36.6779306,10.4532694 36.383408,10.5321865 36.107376,10.458224 C35.8313441,10.3842614 35.6157386,10.1686559 35.541776,9.89262397 C35.4678135,9.61659201 35.5467306,9.32206941 35.7488,9.11999998 L38.0112,6.8576 C38.2132694,6.65553058 38.507792,6.57661349 38.783824,6.65057603 Z M25,1 C25.4418278,1 25.8,1.35817221 25.8,1.80000001 L25.8,5 C25.8,5.2858125 25.6475209,5.54991414 25.4,5.69282039 C25.1524791,5.83572664 24.8475209,5.83572664 24.6,5.69282039 C24.3524791,5.54991414 24.2,5.2858125 24.2,5 L24.2,1.80000001 C24.2,1.35817221 24.5581722,1 25,1 Z M21,38.5 L21,41.6 L22.6,41.6 L22.6,43 L27.4,43 L27.4,41.6 L29,41.6 L29,38.5 L21,38.5 Z" id="形状结合"></path>
                    </g>
                </g>
            </g>
        </g>
    </g>
</svg>