<?xml version="1.0" encoding="UTF-8"?>
<svg width="50px" height="50px" viewBox="0 0 50 50" version="1.1" xmlns="http://www.w3.org/2000/svg" xmlns:xlink="http://www.w3.org/1999/xlink">
    <title>形状</title>
    <g id="页面-1" stroke="none" stroke-width="1" fill="none" fill-rule="evenodd">
        <g id="首页" transform="translate(-1267.165591, -1055.000000)" fill="#FFFFFF" fill-rule="nonzero">
            <g id="编组-10" transform="translate(0.000000, 1000.000000)">
                <g id="编组-3备份-2" transform="translate(1252.000000, 55.000000)">
                    <g id="rocket" transform="translate(15.165591, 0.000000)">
                        <path d="M28.6659099,41.8045465 L28.0510636,42.4193928 L22.3518243,33.8433081 C20.3507378,34.9232595 17.3218825,34.2539619 15.1665173,32.0985967 C13.0088833,29.9409627 12.3418545,26.9098386 13.4717196,24.8588384 L5,19.159599 L5.61484628,18.5447528 C9.10653791,15.0530611 12.5982295,13.5125422 16.9089599,13.6123697 C25.9988193,2.9963117 36.6473126,1.07485564 43.6357879,2.82263295 L44.2730228,2.98755362 L44.3773878,3.39593861 C46.2264643,10.3815907 44.3252053,21.108503 33.6459379,30.3538853 C33.8002167,34.719067 32.2596978,38.2107586 28.6659099,41.8045465 Z M31.7424101,20.0330892 C34.3084291,20.1351854 36.5159769,18.1318302 36.6203419,15.5635424 C36.7224382,12.9975234 34.7236205,10.7899756 32.1553327,10.6856106 C29.5893137,10.5835144 27.3794972,12.5891384 27.277401,15.1551574 C27.1730359,17.7234452 29.1763911,19.9309929 31.7424101,20.0330892 Z M13.4422252,37.1580329 C11.9538888,38.6463693 7.99709203,39.3133981 7.99709203,39.3133981 L8.1036766,38.8313039 C8.36648625,37.7063548 9.10152266,34.9237371 10.154726,33.8705338 C11.2845912,32.7406686 12.9249375,32.5342073 13.8506102,33.45988 C14.7762828,34.3855526 14.5720903,36.0281678 13.4422252,37.1580329 Z" id="形状"></path>
                    </g>
                </g>
            </g>
        </g>
    </g>
</svg>